<svg width="22" height="22" viewBox="0 0 22 22" fill="none" xmlns="http://www.w3.org/2000/svg">
<path fill-rule="evenodd" clip-rule="evenodd" d="M20 10.7682C20 15.6108 16.0442 19.5364 11.1636 19.5364C9.6142 19.5364 8.1586 19.1404 6.8922 18.4454L2 20L3.595 15.2956C2.7904 13.9744 2.327 12.4248 2.327 10.7682C2.327 5.9256 6.2832 2 11.1636 2C16.0446 2 20 5.9256 20 10.7682ZM11.1636 3.3964C7.0668 3.3964 3.7344 6.7034 3.7344 10.7682C3.7344 12.3812 4.2602 13.875 5.1496 15.0902L4.2214 17.828L7.0764 16.9206C8.2494 17.6908 9.6546 18.14 11.1638 18.14C15.26 18.14 18.593 14.8334 18.593 10.7686C18.593 6.7038 15.2602 3.3964 11.1636 3.3964ZM15.6258 12.7876C15.5712 12.6982 15.427 12.6442 15.2106 12.5368C14.9938 12.4294 13.9286 11.9092 13.7306 11.8378C13.532 11.7662 13.3872 11.7302 13.243 11.9452C13.0988 12.1604 12.6836 12.6442 12.557 12.7876C12.4306 12.9314 12.3044 12.9494 12.0876 12.8418C11.8712 12.7344 11.1734 12.5072 10.346 11.7752C9.7022 11.2056 9.2674 10.5024 9.141 10.287C9.0148 10.072 9.1278 9.9558 9.236 9.8488C9.3336 9.7524 9.4528 9.5978 9.561 9.4724C9.6696 9.3468 9.7056 9.2574 9.7774 9.1138C9.85 8.9704 9.8138 8.845 9.7594 8.7372C9.7054 8.6298 9.2718 7.5722 9.0914 7.1418C8.911 6.7118 8.7308 6.7834 8.6042 6.7834C8.478 6.7834 8.3334 6.7654 8.189 6.7654C8.0446 6.7654 7.8098 6.8192 7.6112 7.0342C7.4128 7.2494 6.8534 7.7694 6.8534 8.8268C6.8534 9.8844 7.6292 10.9062 7.7378 11.0494C7.846 11.1926 9.2358 13.4334 11.4378 14.294C13.64 15.1542 13.64 14.8672 14.0372 14.8312C14.434 14.7954 15.3184 14.3114 15.4996 13.8098C15.6796 13.3074 15.6796 12.8772 15.6258 12.7876Z" fill="#4FCE5D"/>
</svg>
