<svg width="32" height="32" viewBox="0 0 32 32" fill="none" xmlns="http://www.w3.org/2000/svg">
<path d="M0 6.4C0 2.86538 2.86538 0 6.4 0H25.6C29.1346 0 32 2.86538 32 6.4V25.6C32 29.1346 29.1346 32 25.6 32H6.4C2.86538 32 0 29.1346 0 25.6V6.4Z" fill="#FFA101"/>
<path d="M6 9C6 7.34315 7.34315 6 9 6H23C24.6569 6 26 7.34315 26 9V32H6V9Z" fill="white"/>
<path d="M7 10C7 8.89543 7.89543 8 9 8H23C24.1046 8 25 8.89543 25 10V32H7V10Z" fill="#FFF8EC"/>
<path d="M9 12C9 11.4477 9.44772 11 10 11H12C12.5523 11 13 11.4477 13 12V14C13 14.5523 12.5523 15 12 15H10C9.44772 15 9 14.5523 9 14V12Z" fill="#FFA101"/>
<path opacity="0.2" d="M9 17C9 16.4477 9.44772 16 10 16H12C12.5523 16 13 16.4477 13 17V19C13 19.5523 12.5523 20 12 20H10C9.44772 20 9 19.5523 9 19V17Z" fill="#FFA101"/>
<path opacity="0.2" d="M9 22C9 21.4477 9.44772 21 10 21H12C12.5523 21 13 21.4477 13 22V24C13 24.5523 12.5523 25 12 25H10C9.44772 25 9 24.5523 9 24V22Z" fill="#FFA101"/>
<path opacity="0.2" d="M14 12C14 11.4477 14.4477 11 15 11H17C17.5523 11 18 11.4477 18 12V14C18 14.5523 17.5523 15 17 15H15C14.4477 15 14 14.5523 14 14V12Z" fill="#FFA101"/>
<path opacity="0.2" d="M14 17C14 16.4477 14.4477 16 15 16H17C17.5523 16 18 16.4477 18 17V19C18 19.5523 17.5523 20 17 20H15C14.4477 20 14 19.5523 14 19V17Z" fill="#FFA101"/>
<path opacity="0.2" d="M14 22C14 21.4477 14.4477 21 15 21H17C17.5523 21 18 21.4477 18 22V24C18 24.5523 17.5523 25 17 25H15C14.4477 25 14 24.5523 14 24V22Z" fill="#FFA101"/>
<path opacity="0.2" d="M19 12C19 11.4477 19.4477 11 20 11H22C22.5523 11 23 11.4477 23 12V14C23 14.5523 22.5523 15 22 15H20C19.4477 15 19 14.5523 19 14V12Z" fill="#FFA101"/>
<path opacity="0.2" d="M19 17C19 16.4477 19.4477 16 20 16H22C22.5523 16 23 16.4477 23 17V19C23 19.5523 22.5523 20 22 20H20C19.4477 20 19 19.5523 19 19V17Z" fill="#FFA101"/>
<path opacity="0.2" d="M19 22C19 21.4477 19.4477 21 20 21H22C22.5523 21 23 21.4477 23 22V24C23 24.5523 22.5523 25 22 25H20C19.4477 25 19 24.5523 19 24V22Z" fill="#FFA101"/>
</svg>
