<svg width="32" height="32" viewBox="0 0 32 32" fill="none" xmlns="http://www.w3.org/2000/svg">
<path d="M0 6.4C0 2.86538 2.86538 0 6.4 0H25.6C29.1346 0 32 2.86538 32 6.4V25.6C32 29.1346 29.1346 32 25.6 32H6.4C2.86538 32 0 29.1346 0 25.6V6.4Z" fill="#FFA101"/>
<path d="M3.20001 11.12C3.20001 9.92703 4.16708 8.95996 5.36001 8.95996H26.64C27.8329 8.95996 28.8 9.92703 28.8 11.12V24.72C28.8 25.9129 27.8329 26.88 26.64 26.88H5.36001C4.16708 26.88 3.20001 25.9129 3.20001 24.72V11.12Z" fill="white"/>
<path d="M5.12 12.5642C5.12 11.6341 5.87404 10.88 6.80421 10.88H12.4182C13.3484 10.88 14.1025 11.6341 14.1025 12.5642V22.3888C14.1025 23.3189 13.3484 24.073 12.4182 24.073H6.80421C5.87404 24.073 5.12 23.3189 5.12 22.3888V12.5642Z" fill="#FFF8EC"/>
<path d="M16 12.5642C16 11.6341 16.754 10.88 17.6842 10.88H25.8358C26.766 10.88 27.52 11.6341 27.52 12.5642V16.8758C27.52 17.806 26.766 18.56 25.8358 18.56H17.6842C16.754 18.56 16 17.806 16 16.8758V12.5642Z" fill="#FFF8EC"/>
<path d="M6.2428 16.6344C6.2428 16.0143 6.7455 15.5116 7.3656 15.5116H11.8568C12.4769 15.5116 12.9796 16.0143 12.9796 16.6344V20.5642C12.9796 21.1843 12.4769 21.687 11.8568 21.687H7.3656C6.7455 21.687 6.2428 21.1843 6.2428 20.5642V16.6344Z" fill="#FFA101"/>
<path fill-rule="evenodd" clip-rule="evenodd" d="M8.19339 15.5827C8.2008 15.7423 8.20767 15.908 8.20767 16.073L7.64626 16.073C7.64627 15.9221 7.63998 15.7677 7.63259 15.6088C7.63148 15.5848 7.63034 15.5607 7.62919 15.5365C7.62283 15.402 7.61631 15.2642 7.61344 15.1294C7.60673 14.814 7.61853 14.4824 7.7115 14.1828C7.80777 13.8725 7.99152 13.5957 8.31725 13.4036C8.63345 13.2171 9.05799 13.1256 9.61115 13.1256C10.1643 13.1256 10.5889 13.2171 10.9051 13.4036C11.2308 13.5957 11.4146 13.8725 11.5108 14.1828C11.6038 14.4824 11.6156 14.814 11.6089 15.1294C11.606 15.2643 11.5995 15.4021 11.5932 15.5366C11.592 15.5607 11.5909 15.5848 11.5898 15.6088C11.5824 15.7677 11.5761 15.9222 11.5761 16.073H11.0147C11.0147 15.908 11.0215 15.7423 11.029 15.5827C11.0301 15.5578 11.0313 15.5331 11.0325 15.5085C11.0388 15.3738 11.0449 15.2444 11.0476 15.1174C11.0541 14.8144 11.0396 14.5583 10.9747 14.3492C10.913 14.1506 10.8073 13.9977 10.6199 13.8871C10.4229 13.771 10.1106 13.687 9.61115 13.687C9.11168 13.687 8.79939 13.771 8.60244 13.8871C8.41501 13.9977 8.3093 14.1506 8.24768 14.3492C8.18278 14.5583 8.16827 14.8144 8.17471 15.1174C8.17742 15.2443 8.18353 15.3738 8.1899 15.5084C8.19106 15.533 8.19223 15.5577 8.19339 15.5827Z" fill="#FFA101"/>
<path d="M17.92 22.6021C17.92 22.137 18.297 21.76 18.7621 21.76H23.8147C24.2798 21.76 24.6568 22.137 24.6568 22.6021C24.6568 23.0672 24.2798 23.4442 23.8147 23.4442H18.7621C18.297 23.4442 17.92 23.0672 17.92 22.6021Z" fill="#FFA101"/>
<path opacity="0.6" d="M7.92001 7.04004C6.72708 7.04004 5.76001 6.07297 5.76001 4.88004L5.76001 3.91006e-05L10.88 3.89093e-05L10.88 4.88004C10.88 6.07297 9.91295 7.04004 8.72001 7.04004L7.92001 7.04004Z" fill="white"/>
<path d="M13.04 7.04004C11.8471 7.04004 10.88 6.07297 10.88 4.88004L10.88 3.91006e-05L16 3.89307e-05L16 4.88004C16 6.07297 15.0329 7.04004 13.84 7.04004L13.04 7.04004Z" fill="white"/>
<path opacity="0.6" d="M18.16 7.04004C16.9671 7.04004 16 6.07297 16 4.88004L16 3.91006e-05L21.12 3.89254e-05L21.12 4.88004C21.12 6.07297 20.1529 7.04004 18.96 7.04004L18.16 7.04004Z" fill="white"/>
<path d="M23.28 7.04004C22.0871 7.04004 21.12 6.07297 21.12 4.88004L21.12 3.91006e-05L26.24 3.89248e-05L26.24 4.88004C26.24 6.07297 25.2729 7.04004 24.08 7.04004L23.28 7.04004Z" fill="white"/>
</svg>
