<svg width="90" height="26" viewBox="0 0 90 26" fill="none" xmlns="http://www.w3.org/2000/svg">
<path d="M90 22.8716C90 23.2064 89.933 23.538 89.8027 23.8473C89.6724 24.1566 89.4815 24.4376 89.2408 24.6743C89.0001 24.9109 88.7143 25.0986 88.3999 25.2265C88.0855 25.3544 87.7486 25.42 87.4083 25.4197H2.59505C1.90763 25.4204 1.24808 25.1523 0.761431 24.6745C0.274784 24.1967 0.000895866 23.5481 0 22.8716V2.55141C0.000895454 1.87455 0.274675 1.22569 0.761225 0.747325C1.24777 0.268956 1.90732 0.000175694 2.59505 0H87.4077C87.7481 -1.13958e-08 88.0851 0.0659991 88.3996 0.194228C88.7141 0.322457 88.9998 0.510403 89.2405 0.747332C89.4812 0.984262 89.672 1.26553 89.8022 1.57508C89.9324 1.88463 89.9994 2.21639 89.9993 2.55141L90 22.8716Z" fill="white"/>
<path d="M90 22.8716C90 23.2064 89.933 23.538 89.8027 23.8473C89.6724 24.1566 89.4815 24.4376 89.2408 24.6743C89.0001 24.9109 88.7143 25.0986 88.3999 25.2265C88.0855 25.3544 87.7486 25.42 87.4083 25.4197H2.59505C1.90763 25.4204 1.24808 25.1523 0.761431 24.6745C0.274784 24.1967 0.000895866 23.5481 0 22.8716V2.55141C0.000895454 1.87455 0.274675 1.22569 0.761225 0.747325C1.24777 0.268956 1.90732 0.000175694 2.59505 0H87.4077C87.7481 -1.13958e-08 88.0851 0.0659991 88.3996 0.194228C88.7141 0.322457 88.9998 0.510403 89.2405 0.747332C89.4812 0.984262 89.672 1.26553 89.8022 1.57508C89.9324 1.88463 89.9994 2.21639 89.9993 2.55141L90 22.8716Z" fill="black"/>
<path d="M19.7638 12.57C19.7442 10.4258 21.5477 9.38259 21.6302 9.33403C20.6088 7.86838 19.0257 7.66812 18.4694 7.65216C17.1397 7.51444 15.85 8.43521 15.1727 8.43521C14.4818 8.43521 13.4388 7.66546 12.3147 7.68808C10.8681 7.71004 9.51479 8.53434 8.77257 9.81437C7.24083 12.4243 8.38322 16.2598 9.85075 18.3694C10.5848 19.4033 11.4427 20.5563 12.5654 20.5157C13.6639 20.4718 14.0742 19.8271 15.3998 19.8271C16.7132 19.8271 17.0985 20.5157 18.2436 20.4897C19.4225 20.4718 20.1647 19.4519 20.8731 18.4093C21.7215 17.2258 22.0621 16.0589 22.0757 15.999C22.0486 15.9897 19.7868 15.1394 19.7638 12.57ZM17.6007 6.26435C18.1915 5.53718 18.5958 4.54788 18.4836 3.54395C17.6285 3.5812 16.5591 4.12608 15.9433 4.83728C15.3984 5.46399 14.9117 6.49121 15.0375 7.45722C15.998 7.52775 16.9843 6.98021 17.6007 6.26435Z" fill="white"/>
<path d="M35.6744 20.3676H34.1392L33.2983 17.767H30.3754L29.5744 20.3676H28.0798L30.9764 11.5139H32.765L35.6744 20.3676ZM33.0448 16.6759L32.2844 14.364C32.2039 14.1278 32.0525 13.5716 31.8308 12.6961H31.8038C31.7145 13.0727 31.5719 13.6289 31.3765 14.364L30.6289 16.6759H33.0448ZM43.1087 17.097C43.1087 18.1828 42.8092 19.041 42.2096 19.6711C41.6729 20.2319 41.0057 20.512 40.2101 20.512C39.351 20.512 38.7331 20.2106 38.358 19.6066V22.9563H36.9168V16.0818C36.9168 15.3999 36.8985 14.7006 36.8634 13.9835H38.1308L38.2113 14.9954H38.2383C38.7189 14.2329 39.4483 13.8517 40.4271 13.8517C41.1923 13.8517 41.8311 14.1491 42.3421 14.7446C42.8525 15.3413 43.1087 16.125 43.1087 17.097ZM41.6405 17.1489C41.6405 16.5276 41.4985 16.0153 41.2133 15.6114C40.9016 15.1916 40.4832 14.9814 39.9587 14.9814C39.6031 14.9814 39.28 15.0985 38.9913 15.3294C38.702 15.5622 38.5128 15.8663 38.4242 16.2428C38.3847 16.3836 38.3622 16.5286 38.3573 16.6746V17.7397C38.3573 18.2034 38.5019 18.5953 38.7913 18.916C39.0806 19.2353 39.4564 19.3956 39.9188 19.3956C40.4616 19.3956 40.8841 19.1887 41.1862 18.7783C41.4891 18.3664 41.6405 17.8236 41.6405 17.1489ZM50.5694 17.097C50.5694 18.1828 50.2699 19.041 49.6703 19.6711C49.1329 20.2319 48.4664 20.512 47.6701 20.512C46.811 20.512 46.1931 20.2106 45.818 19.6066V22.9563H44.3768V16.0818C44.3768 15.3999 44.3585 14.7006 44.3234 13.9835H45.5908L45.6713 14.9954H45.6983C46.1783 14.2329 46.9076 13.8517 47.8871 13.8517C48.6516 13.8517 49.2904 14.1491 49.8028 14.7446C50.3125 15.3413 50.5694 16.125 50.5694 17.097ZM49.1005 17.1489C49.1005 16.5276 48.9578 16.0153 48.6726 15.6114C48.361 15.1916 47.9439 14.9814 47.4193 14.9814C47.0638 14.9814 46.7407 15.0985 46.4507 15.3294C46.1614 15.5622 45.9728 15.8663 45.8842 16.2428C45.8403 16.4184 45.8166 16.5615 45.8166 16.6746V17.7397C45.8166 18.2034 45.9619 18.5953 46.2499 18.916C46.5392 19.2346 46.9151 19.3956 47.3788 19.3956C47.9223 19.3956 48.3447 19.1887 48.6462 18.7783C48.9491 18.3664 49.1005 17.8236 49.1005 17.1489ZM58.9108 17.8841C58.9108 18.6379 58.6431 19.2506 58.1112 19.7236C57.5258 20.2399 56.7085 20.4987 55.6608 20.4987C54.6928 20.4987 53.9168 20.3151 53.3314 19.9472L53.6646 18.7649C54.2967 19.1335 54.9909 19.3171 55.7466 19.3171C56.2901 19.3171 56.7126 19.1961 57.0141 18.9559C57.3162 18.7151 57.469 18.393 57.469 17.9912C57.469 17.6313 57.3426 17.3299 57.0945 17.0844C56.8451 16.8396 56.4327 16.6114 55.8534 16.4018C54.2784 15.8237 53.4902 14.9781 53.4902 13.8657C53.4902 13.1392 53.7687 12.5444 54.3244 12.0794C54.88 11.615 55.6168 11.3828 56.5334 11.3828C57.352 11.3828 58.0341 11.5232 58.5755 11.8033L58.2139 12.9596C57.7042 12.6881 57.129 12.5524 56.4855 12.5524C55.9771 12.5524 55.5783 12.6755 55.293 12.9203C55.0531 13.1392 54.9314 13.406 54.9314 13.7227C54.9314 14.0719 55.07 14.362 55.3458 14.5895C55.5851 14.7991 56.0217 15.0273 56.6531 15.2721C57.4277 15.5795 57.9969 15.9374 58.3613 16.3486C58.7283 16.7597 58.9108 17.2727 58.9108 17.8841ZM63.6879 15.0479H62.0994V18.1476C62.0994 18.9359 62.3792 19.3291 62.9403 19.3291C63.1978 19.3291 63.4114 19.3078 63.5804 19.2633L63.6203 20.3404C63.3364 20.4448 62.9626 20.4974 62.4996 20.4974C61.9304 20.4974 61.4856 20.3264 61.1645 19.9844C60.8448 19.6425 60.6839 19.0697 60.6839 18.2633V15.0453H59.7375V13.9808H60.6839V12.8119L62.0994 12.3914V13.9808H63.6879V15.0479ZM70.841 17.123C70.841 18.1043 70.5558 18.91 69.9866 19.54C69.3911 20.1887 68.5988 20.512 67.6112 20.512C66.6581 20.512 65.9004 20.2013 65.3352 19.5806C64.7701 18.9585 64.4876 18.1748 64.4876 17.2294C64.4876 16.2401 64.7796 15.4298 65.3616 14.7998C65.945 14.1691 66.7304 13.8537 67.718 13.8537C68.6698 13.8537 69.4343 14.1651 70.013 14.7865C70.5659 15.3892 70.841 16.1676 70.841 17.123ZM69.3471 17.1556C69.3471 16.5708 69.2187 16.0692 68.9612 15.6494C68.659 15.1424 68.2264 14.8889 67.666 14.8889C67.0887 14.8889 66.646 15.1424 66.3445 15.6494C66.0863 16.0692 65.9578 16.5794 65.9578 17.1822C65.9578 17.7677 66.0863 18.2706 66.3445 18.6891C66.6561 19.1961 67.0907 19.4495 67.6538 19.4495C68.2047 19.4495 68.6367 19.1907 68.949 18.6765C69.214 18.2467 69.3471 17.7417 69.3471 17.1556ZM75.5275 15.2309C75.3776 15.2043 75.2256 15.1911 75.0733 15.1916C74.5663 15.1916 74.1742 15.3793 73.8984 15.7571C73.6591 16.0898 73.5388 16.5103 73.5388 17.0179V20.3676H72.0977V15.994C72.0989 15.3238 72.085 14.6537 72.0557 13.9841H73.311L73.3637 15.2056H73.4036C73.5564 14.7858 73.7957 14.4472 74.1242 14.1937C74.4249 13.9722 74.7903 13.8523 75.1659 13.8517C75.299 13.8517 75.4194 13.861 75.5262 13.8777L75.5275 15.2309ZM81.9729 16.8735C81.9766 17.0891 81.9589 17.3046 81.9202 17.5169H77.5967C77.6129 18.1476 77.8224 18.6306 78.224 18.9632C78.5883 19.2599 79.0595 19.409 79.6381 19.409C80.2782 19.409 80.8623 19.3092 81.3875 19.1076L81.6133 20.0916C80.9995 20.355 80.2749 20.4861 79.4387 20.4861C78.4328 20.4861 77.6433 20.1947 77.0687 19.6132C76.4955 19.0311 76.2082 18.2487 76.2082 17.2687C76.2082 16.3067 76.4752 15.505 77.0099 14.8656C77.5696 14.183 78.326 13.8417 79.2778 13.8417C80.2127 13.8417 80.9204 14.183 81.401 14.8656C81.7816 15.4065 81.9729 16.0771 81.9729 16.8735ZM80.5987 16.5056C80.6088 16.0845 80.5142 15.7219 80.3188 15.4152C80.0694 15.02 79.6854 14.8231 79.171 14.8231C78.6999 14.8231 78.3159 15.0153 78.0239 15.4012C77.7839 15.7079 77.6413 16.0765 77.5973 16.5043L80.5987 16.5056Z" fill="white"/>
<path d="M29.9596 8.38341C29.5587 8.38341 29.212 8.36412 28.9233 8.33152V4.051C29.327 3.98962 29.735 3.95937 30.1435 3.96051C31.7962 3.96051 32.5574 4.76087 32.5574 6.06552C32.5574 7.57042 31.6583 8.38341 29.9596 8.38341ZM30.2016 4.50939C29.9785 4.50939 29.7886 4.52269 29.6311 4.55463V7.8086C29.7163 7.8219 29.8798 7.82789 30.1097 7.82789C31.1926 7.82789 31.8091 7.22114 31.8091 6.08481C31.8091 5.07156 31.2514 4.50939 30.2016 4.50939ZM34.9293 8.41601C33.9978 8.41601 33.3942 7.73142 33.3942 6.802C33.3942 5.83333 34.0107 5.14275 34.9821 5.14275C35.9 5.14275 36.5172 5.79474 36.5172 6.75077C36.5172 7.73142 35.8811 8.41601 34.9293 8.41601ZM34.9564 5.65237C34.4447 5.65237 34.1168 6.1234 34.1168 6.78204C34.1168 7.42805 34.4514 7.89908 34.9496 7.89908C35.4478 7.89908 35.7824 7.39545 35.7824 6.76874C35.7824 6.13005 35.4546 5.65237 34.9564 5.65237ZM41.829 5.20728L40.8319 8.34483H40.1823L39.7693 6.9823C39.6666 6.64901 39.5811 6.31083 39.5131 5.96905H39.4996C39.4475 6.31101 39.3488 6.65364 39.244 6.9823L38.8047 8.34483H38.1483L37.2101 5.20728H37.9381L38.299 6.69888C38.3842 7.05415 38.4559 7.38946 38.5154 7.70614H38.5289C38.5809 7.44202 38.6661 7.11203 38.7911 6.70553L39.244 5.20795H39.8213L40.2546 6.6736C40.3594 7.02887 40.4446 7.37748 40.5108 7.70681H40.5297C40.5757 7.38414 40.648 7.04151 40.7461 6.6736L41.1334 5.20795L41.829 5.20728ZM45.4995 8.34483H44.7911V6.5432C44.7911 5.98834 44.5747 5.71025 44.1482 5.71025C43.7284 5.71025 43.4398 6.06552 43.4398 6.47867V8.34483H42.7314V6.1041C42.7314 5.82667 42.7246 5.52929 42.705 5.20662H43.3283L43.3614 5.69095H43.381C43.5716 5.35564 43.9583 5.14275 44.3916 5.14275C45.0608 5.14275 45.5001 5.64638 45.5001 6.46603L45.4995 8.34483ZM47.453 8.34483H46.7439V3.76758H47.453V8.34483ZM50.0359 8.41601C49.1051 8.41601 48.5008 7.73142 48.5008 6.802C48.5008 5.83333 49.1173 5.14275 50.088 5.14275C51.0066 5.14275 51.6231 5.79474 51.6231 6.75077C51.6238 7.73142 50.987 8.41601 50.0359 8.41601ZM50.0623 5.65237C49.5506 5.65237 49.2227 6.1234 49.2227 6.78204C49.2227 7.42805 49.558 7.89908 50.0548 7.89908C50.5537 7.89908 50.8876 7.39545 50.8876 6.76874C50.8883 6.13005 50.5611 5.65237 50.0623 5.65237ZM54.4162 8.34483L54.3648 7.98357H54.3459C54.1296 8.27431 53.8139 8.41601 53.4137 8.41601C52.8425 8.41601 52.4369 8.02216 52.4369 7.49258C52.4369 6.71817 53.119 6.31766 54.2999 6.31766V6.25978C54.2999 5.84663 54.0775 5.63973 53.6381 5.63973C53.3238 5.63973 53.048 5.71757 52.8054 5.87258L52.6614 5.41419C52.9561 5.23323 53.3238 5.14275 53.7558 5.14275C54.5886 5.14275 55.009 5.57519 55.009 6.44075V7.59637C55.009 7.91305 55.0232 8.15854 55.055 8.34549L54.4162 8.34483ZM54.3189 6.78204C53.532 6.78204 53.1373 6.96966 53.1373 7.41474C53.1373 7.74406 53.3407 7.90507 53.6233 7.90507C53.9836 7.90507 54.3189 7.63429 54.3189 7.26638V6.78204ZM58.449 8.34483L58.4159 7.8412H58.3963C58.1928 8.22175 57.8508 8.41601 57.3729 8.41601C56.6043 8.41601 56.0351 7.75072 56.0351 6.81464C56.0351 5.83333 56.6253 5.14208 57.431 5.14208C57.8575 5.14208 58.1597 5.28379 58.3301 5.56854H58.3443V3.76758H59.0533V7.49923C59.0533 7.80261 59.0608 8.08669 59.0797 8.34483H58.449ZM58.3443 6.49863C58.3443 6.05953 58.0489 5.68497 57.598 5.68497C57.0728 5.68497 56.7517 6.14336 56.7517 6.7887C56.7517 7.42139 57.0849 7.8545 57.5838 7.8545C58.0293 7.8545 58.3443 7.47329 58.3443 7.02155V6.49863ZM63.5492 8.41601C62.6184 8.41601 62.0148 7.73142 62.0148 6.802C62.0148 5.83333 62.6313 5.14275 63.6019 5.14275C64.5206 5.14275 65.1371 5.79474 65.1371 6.75077C65.1377 7.73142 64.5017 8.41601 63.5492 8.41601ZM63.5756 5.65237C63.0645 5.65237 62.7367 6.1234 62.7367 6.78204C62.7367 7.42805 63.0713 7.89908 63.5688 7.89908C64.0677 7.89908 64.4016 7.39545 64.4016 6.76874C64.403 6.13005 64.0751 5.65237 63.5756 5.65237ZM68.9468 8.34483H68.2377V6.5432C68.2377 5.98834 68.0214 5.71025 67.5949 5.71025C67.1751 5.71025 66.8872 6.06552 66.8872 6.47867V8.34483H66.1781V6.1041C66.1781 5.82667 66.1713 5.52929 66.1517 5.20662H66.7749L66.8081 5.69095H66.8277C67.0176 5.35564 67.405 5.14208 67.8376 5.14208C68.5068 5.14208 68.9468 5.64571 68.9468 6.46536V8.34483ZM73.7131 5.73021H72.9337V7.25374C72.9337 7.64161 73.0703 7.83521 73.346 7.83521C73.4711 7.83521 73.5759 7.8219 73.6604 7.80261L73.68 8.33219C73.5428 8.38408 73.3589 8.41003 73.1304 8.41003C72.5721 8.41003 72.2381 8.10665 72.2381 7.31228V5.73021H71.7731V5.20728H72.2381V4.63247L72.9337 4.42556V5.20662H73.7131V5.73021ZM77.4634 8.34483H76.7556V6.55651C76.7556 5.995 76.54 5.71091 76.1128 5.71091C75.7457 5.71091 75.4037 5.95641 75.4037 6.45339V8.34483H74.696V3.76758H75.4037V5.65237H75.4179C75.641 5.3104 75.9641 5.14208 76.3764 5.14208C77.051 5.14208 77.4634 5.65835 77.4634 6.47867V8.34483ZM81.3056 6.94371H79.1797C79.1932 7.53782 79.5927 7.87313 80.1842 7.87313C80.4985 7.87313 80.7878 7.82124 81.0433 7.72477L81.1535 8.20911C80.852 8.33817 80.4971 8.40271 80.0841 8.40271C79.0871 8.40271 78.4969 7.78265 78.4969 6.8213C78.4969 5.85927 79.1013 5.1361 80.0044 5.1361C80.8189 5.1361 81.3299 5.73021 81.3299 6.62769C81.3345 6.73361 81.3263 6.83968 81.3056 6.94371ZM80.656 6.44673C80.656 5.9624 80.4079 5.62043 79.955 5.62043C79.5481 5.62043 79.2263 5.96905 79.1803 6.44673H80.656Z" fill="white"/>
</svg>
