<svg width="79" height="25" viewBox="0 0 79 25" fill="none" xmlns="http://www.w3.org/2000/svg">
<g clip-path="url(#clip0)">
<path d="M79 21.6213C79 23.4869 77.4368 25 75.5086 25H3.4922C1.56384 25.0002 0 23.4871 0 21.6213V3.37844C0 1.5129 1.56384 0 3.4922 0H75.5084C77.4366 0 78.9998 1.5129 78.9998 3.37844V21.6213H79Z" fill="black"/>
<path d="M5.92554 4.81299V21.743L14.7501 13.2781L5.92554 4.81299Z" fill="url(#paint0_linear)"/>
<path d="M17.1202 11.0043L13.558 9.01478L5.92554 4.75146V4.81303L14.7501 13.2781L17.1202 11.0043Z" fill="url(#paint1_linear)"/>
<path d="M5.92554 21.7432V21.8048L13.558 17.5413L17.12 15.5518L14.7501 13.2783L5.92554 21.7432Z" fill="url(#paint2_linear)"/>
<path d="M17.1203 11.0044L14.7502 13.2782L17.1202 15.5516L21.1911 13.278L17.1203 11.0044Z" fill="url(#paint3_linear)"/>
<path d="M61.4813 16.5873C61.1498 16.5873 60.8474 16.5281 60.5736 16.4099C60.2997 16.2916 60.0696 16.1096 59.8838 15.8643H59.8282C59.8652 16.1517 59.8838 16.4243 59.8838 16.6817V18.7078H59.1134V11.5739H59.7401L59.8467 12.2478H59.8838C60.0821 11.9781 60.3128 11.7837 60.5759 11.6638C60.8389 11.544 61.1409 11.4841 61.4811 11.4841C62.1561 11.4841 62.6771 11.7073 63.0437 12.1535C63.4106 12.5997 63.594 13.2257 63.594 14.0311C63.594 14.8398 63.4075 15.4678 63.0348 15.916C62.6618 16.3636 62.1441 16.5873 61.4813 16.5873ZM61.3698 12.1175C60.8497 12.1175 60.4736 12.2569 60.2415 12.5353C60.0093 12.8138 59.8901 13.2571 59.8838 13.8651V14.0311C59.8838 14.7231 60.003 15.218 60.2415 15.5161C60.48 15.8142 60.8624 15.9629 61.3883 15.9629C61.8282 15.9629 62.1726 15.7909 62.4219 15.4465C62.6709 15.1022 62.7955 14.6275 62.7955 14.0222C62.7955 13.4085 62.6709 12.9372 62.4219 12.6094C62.1728 12.2813 61.8219 12.1175 61.3698 12.1175ZM65.3789 16.4974H64.6082V9.50737H65.3789V16.4974ZM69.8107 16.4974L69.6573 15.7966H69.6202C69.3663 16.1053 69.1133 16.3143 68.8609 16.4232C68.6087 16.5328 68.2936 16.5873 67.9161 16.5873C67.4115 16.5873 67.0161 16.4615 66.7296 16.21C66.4431 15.9585 66.3001 15.6008 66.3001 15.1364C66.3001 14.1423 67.1221 13.6211 68.7658 13.573L69.6298 13.546V13.2405C69.6298 12.8541 69.5438 12.5687 69.3718 12.3848C69.2003 12.2004 68.925 12.1084 68.5477 12.1084C68.1234 12.1084 67.6435 12.2342 67.1082 12.4857L66.8713 11.9152C67.1222 11.7834 67.3967 11.6801 67.6957 11.6053C67.9944 11.5304 68.2938 11.4929 68.5942 11.4929C69.2009 11.4929 69.6505 11.6231 69.9432 11.8837C70.2356 12.1442 70.3818 12.562 70.3818 13.1372V16.4972H69.8107V16.4974H69.8107ZM68.0694 15.972C68.5489 15.972 68.9258 15.8447 69.2 15.5902C69.4737 15.3357 69.611 14.9792 69.611 14.5208V14.0761L68.8398 14.1073C68.2269 14.1287 67.7853 14.2205 67.5141 14.3841C67.2434 14.5472 67.1079 14.8011 67.1079 15.1455C67.1079 15.4149 67.1921 15.6202 67.361 15.7607C67.5298 15.9016 67.7657 15.972 68.0694 15.972ZM70.8293 11.5739H71.6556L72.7702 14.3817C73.0147 15.0227 73.1665 15.4853 73.2255 15.77H73.2626C73.3029 15.6169 73.3873 15.3559 73.5155 14.9856C73.6441 14.6157 74.0645 13.4787 74.7762 11.5739H75.6031L73.4158 17.1804C73.1992 17.7344 72.9461 18.1275 72.6563 18.36C72.367 18.5919 72.0116 18.7078 71.5911 18.7078C71.3557 18.7078 71.1235 18.6824 70.8942 18.6316V18.0342C71.0644 18.07 71.2549 18.0881 71.4655 18.0881C71.9949 18.0881 72.3723 17.8006 72.5986 17.2255L72.8817 16.5248L70.8293 11.5739ZM47.2022 12.0314C47.4469 12.2273 47.9578 12.6388 47.9578 13.4219C47.9578 14.1835 47.5106 14.5447 47.0635 14.884C46.9251 15.0178 46.7654 15.1624 46.7654 15.3892C46.7654 15.6153 46.925 15.739 47.0425 15.8318L47.4258 16.1196C47.8942 16.5008 48.3195 16.8512 48.3195 17.562C48.3195 18.5299 47.3508 19.5079 45.5202 19.5079C43.9764 19.5079 43.2317 18.7975 43.2317 18.035C43.2317 17.6645 43.4224 17.1396 44.0514 16.7787C44.7109 16.3874 45.6056 16.3364 46.0844 16.3047C45.9349 16.1196 45.765 15.9239 45.765 15.6052C45.765 15.4303 45.8185 15.3272 45.8715 15.2031C45.7539 15.2135 45.637 15.2238 45.5304 15.2238C44.4024 15.2238 43.7638 14.4102 43.7638 13.6074C43.7638 13.1336 43.9876 12.608 44.4448 12.2275C45.0518 11.7435 45.7755 11.6608 46.3509 11.6608H48.5432L47.8619 12.0316H47.2022V12.0314H47.2022ZM46.4461 16.604C46.361 16.5933 46.3076 16.5933 46.2016 16.5933C46.1059 16.5933 45.5302 16.6144 45.0837 16.7588C44.8496 16.8406 44.1681 17.0877 44.1681 17.8193C44.1681 18.5501 44.903 19.0761 46.0421 19.0761C47.0633 19.0761 47.6069 18.6014 47.6069 17.9635C47.6069 17.4372 47.2555 17.1603 46.4461 16.604ZM46.755 14.6471C46.9995 14.4099 47.0206 14.0807 47.0206 13.8952C47.0206 13.1539 46.5631 12.0005 45.6798 12.0005C45.4027 12.0005 45.1049 12.1342 44.9345 12.3404C44.7538 12.5566 44.7 12.8344 44.7 13.1025C44.7 13.7924 45.1152 14.9356 46.0311 14.9356C46.2973 14.9356 46.5841 14.812 46.755 14.6471ZM40.5006 16.4392C38.811 16.4392 37.9077 15.1642 37.9077 14.0125C37.9077 12.6654 39.0446 11.5144 40.6606 11.5144C42.2222 11.5144 43.2 12.6963 43.2 13.9407C43.2002 15.1534 42.2334 16.4392 40.5006 16.4392ZM41.8289 15.6065C42.0844 15.2772 42.1482 14.8661 42.1482 14.4648C42.1482 13.5597 41.7018 11.8327 40.3838 11.8327C40.0332 11.8327 39.6826 11.9666 39.4276 12.1829C39.0131 12.5423 38.9383 12.9949 38.9383 13.4375C38.9383 14.4546 39.4591 16.1301 40.7454 16.1301C41.1598 16.1301 41.585 15.9351 41.8289 15.6065ZM34.7403 16.4392C33.0504 16.4392 32.1468 15.1642 32.1468 14.0125C32.1468 12.6654 33.2842 11.5144 34.8998 11.5144C36.4618 11.5144 37.4395 12.6963 37.4395 13.9407C37.4396 15.1534 36.4728 16.4392 34.7403 16.4392ZM36.0689 15.6065C36.3239 15.2772 36.3878 14.8661 36.3878 14.4648C36.3878 13.5597 35.9411 11.8327 34.6232 11.8327C34.2727 11.8327 33.9218 11.9666 33.667 12.1829C33.2524 12.5423 33.1781 12.9949 33.1781 13.4375C33.1781 14.4546 33.6986 16.1301 34.9851 16.1301C35.3996 16.1301 35.8245 15.9351 36.0689 15.6065ZM31.335 16.278L29.8068 16.6191C29.1869 16.7124 28.6315 16.7944 28.0441 16.7944C25.0946 16.7944 23.9731 14.6959 23.9731 13.0523C23.9731 11.0472 25.5649 9.18701 28.29 9.18701C28.8672 9.18701 29.4223 9.26949 29.9244 9.40397C30.7257 9.6211 31.0996 9.8896 31.3349 10.0449L30.4477 10.8614L30.0739 10.9438L30.341 10.5302C29.9778 10.1893 29.3148 9.55892 28.0544 9.55892C26.3661 9.55892 25.0943 10.7999 25.0943 12.6086C25.0943 14.5514 26.5477 16.3811 28.8766 16.3811C29.5611 16.3811 29.913 16.2469 30.2338 16.1226V14.4588L28.6207 14.5414L29.4751 14.0964H31.7405L31.4629 14.3548C31.3876 14.4171 31.3772 14.438 31.3559 14.5199C31.3448 14.6131 31.3347 14.9132 31.3347 15.0164V16.278H31.335V16.278Z" fill="#F9F9F9"/>
<path d="M50.5796 15.9805C50.2268 15.9494 50.153 15.8877 50.153 15.4841V9.63362C50.1551 9.61135 50.1565 9.58849 50.1587 9.56696C50.2018 9.20536 50.3085 9.14335 50.6401 8.95703H49.1117L48.3101 9.32924H49.127V9.33387L49.1264 9.33014V15.7118C49.1264 15.9182 49.0842 15.9495 48.8381 16.2593H50.7296L51.125 16.0325C50.9435 16.0111 50.7615 16.0011 50.5796 15.9805ZM54.9275 16.0755C54.8112 16.1372 54.6944 16.2094 54.5781 16.2603C54.2273 16.4142 53.8667 16.4555 53.5477 16.4555C53.209 16.4555 52.678 16.4343 52.1363 16.0549C51.3835 15.5412 51.0545 14.6584 51.0545 13.8887C51.0545 12.2978 52.3915 11.5177 53.4844 11.5177C53.8665 11.5177 54.2596 11.6099 54.5779 11.8053C55.108 12.1435 55.2459 12.5849 55.3198 12.8211L52.8268 13.7967L52.0095 13.8582C52.2744 15.1619 53.1869 15.921 54.1954 15.921C54.7364 15.921 55.1292 15.7366 55.4899 15.5624L54.9275 16.0755ZM53.9303 13.0159C54.1316 12.9444 54.2377 12.8825 54.2377 12.7389C54.2377 12.3286 53.7604 11.8561 53.1869 11.8561C52.762 11.8561 51.9667 12.1745 51.9667 13.283C51.9667 13.4575 51.9881 13.6422 51.999 13.8276L53.9303 13.0159ZM55.9517 11.5879V12.2652H55.8666V11.5879H55.6349V11.5177H56.1832V11.5879H55.9517ZM56.9062 12.2652V11.5816H56.9023L56.6867 12.2652H56.6201L56.4027 11.5816H56.3999V12.2652H56.3227V11.5177H56.455L56.6518 12.1219H56.6546L56.8484 11.5177H56.9827V12.2652H56.9062Z" fill="#F9F9F9"/>
<path d="M26.0952 7.17457H25.5642C25.5642 7.10389 25.5138 6.90381 25.4131 6.57419H24.6465C24.5426 6.89844 24.4906 7.0985 24.4906 7.17457H23.9912C23.9912 7.13287 24.1203 6.79039 24.3786 6.14729C24.6368 5.50418 24.766 5.14988 24.766 5.08475H25.3932C25.3932 5.14571 25.5101 5.49476 25.7441 6.13205C25.9781 6.76933 26.0952 7.11674 26.0952 7.17457ZM25.3286 6.26757C25.1394 5.71545 25.0449 5.41691 25.0449 5.37192H25.0183C25.0183 5.41363 24.9204 5.71216 24.7247 6.26757H25.3286ZM28.2347 7.17457H27.8249C27.8249 7.13064 27.6728 6.89903 27.3687 6.4796C27.0502 6.03761 26.8687 5.73548 26.8245 5.57277H26.798C26.8256 5.80705 26.8395 6.01894 26.8395 6.20842C26.8395 6.47274 26.8472 6.7949 26.8627 7.17473H26.4545C26.471 6.84301 26.4793 6.47872 26.4793 6.08171C26.4793 5.69113 26.471 5.3588 26.4545 5.08491H26.9472C26.9472 5.14169 27.0837 5.36806 27.3569 5.76388C27.6478 6.18436 27.8149 6.46961 27.858 6.61948H27.8829C27.8563 6.38085 27.843 6.16686 27.843 5.97741C27.843 5.68754 27.8353 5.38988 27.8198 5.08491H28.2347C28.2191 5.35028 28.2115 5.6826 28.2115 6.08171C28.2113 6.48379 28.2191 6.84808 28.2347 7.17457ZM30.6394 6.05735C30.6394 6.36126 30.5387 6.62665 30.3374 6.85347C30.136 7.08044 29.854 7.19371 29.4912 7.19371C29.3274 7.19371 29.1018 7.18727 28.8142 7.17442C28.8285 6.85123 28.8358 6.48678 28.8358 6.08141C28.8358 5.69201 28.8285 5.3597 28.8142 5.0846H29.1046C29.1521 5.0846 29.2229 5.08295 29.3169 5.07982C29.4108 5.07668 29.4723 5.07503 29.501 5.07503C29.9003 5.07503 30.1898 5.17141 30.3697 5.36402C30.5495 5.55662 30.6394 5.78763 30.6394 6.05735ZM30.1865 6.12636C30.1865 5.9209 30.1246 5.74787 30.0007 5.60697C29.8768 5.46636 29.6876 5.39599 29.4332 5.39599C29.3857 5.39599 29.3205 5.40078 29.2374 5.41049C29.2483 5.6246 29.2539 5.84813 29.2539 6.08139C29.2539 6.33721 29.2595 6.59078 29.2704 6.84225C29.3414 6.85609 29.4136 6.86309 29.486 6.86317C29.7239 6.86317 29.9 6.79161 30.0144 6.64875C30.1289 6.5059 30.1865 6.33181 30.1865 6.12636ZM32.8569 7.17457H32.3657C32.2373 6.79578 32.139 6.56194 32.0704 6.47318C32.0018 6.38427 31.8912 6.33989 31.7386 6.33989C31.6744 6.33989 31.613 6.34049 31.5545 6.34154C31.5545 6.61664 31.5594 6.89425 31.5695 7.17457H31.1083C31.1226 6.85137 31.1299 6.48693 31.1299 6.08154C31.1299 5.69216 31.1227 5.35983 31.1083 5.08475H31.3953C31.4285 5.08475 31.4978 5.0831 31.6035 5.07997C31.7091 5.07683 31.8067 5.07517 31.8963 5.07517C32.404 5.07517 32.6579 5.24312 32.6579 5.57919C32.6579 5.84561 32.5131 6.03119 32.2233 6.13623V6.16029C32.335 6.19017 32.4329 6.2746 32.5169 6.41296C32.6008 6.55148 32.7141 6.80535 32.8569 7.17457ZM32.2347 5.69781C32.2347 5.48489 32.0931 5.37836 31.81 5.37836C31.706 5.37836 31.6141 5.38583 31.5346 5.40078C31.5468 5.56663 31.5528 5.78285 31.5528 6.04927C31.6137 6.05151 31.6651 6.05241 31.7071 6.05241C32.0588 6.05256 32.2347 5.93436 32.2347 5.69781ZM35.2351 6.09109C35.2351 6.41954 35.1312 6.69192 34.9231 6.90813C34.7151 7.12421 34.4579 7.23238 34.1516 7.23238C33.8596 7.23238 33.6151 7.13317 33.4183 6.93458C33.2214 6.73615 33.123 6.48379 33.123 6.17791C33.123 5.84948 33.2269 5.57708 33.435 5.36087C33.6429 5.1448 33.9 5.03662 34.2065 5.03662C34.4985 5.03662 34.7429 5.13554 34.9398 5.33352C35.1367 5.53152 35.2351 5.78389 35.2351 6.09109ZM34.7773 6.13758C34.7773 5.91389 34.7182 5.73249 34.5999 5.59338C34.4814 5.45427 34.3354 5.38479 34.1618 5.38479C34.0003 5.38479 33.8631 5.45487 33.7504 5.59502C33.6376 5.73518 33.5809 5.91226 33.5809 6.12637C33.5809 6.34886 33.6404 6.52996 33.7593 6.66968C33.8782 6.80939 34.0239 6.87917 34.1966 6.87917C34.358 6.87917 34.4953 6.80879 34.6081 6.66803C34.7208 6.52742 34.7773 6.35049 34.7773 6.13758ZM36.1733 7.17457H35.7037C35.7181 6.84285 35.7254 6.47856 35.7254 6.08154C35.7254 5.69095 35.7181 5.35864 35.7037 5.08475H36.1733C36.1589 5.35445 36.1517 5.68662 36.1517 6.08154C36.1517 6.48483 36.1589 6.84928 36.1733 7.17457ZM38.5781 6.05735C38.5781 6.36126 38.4774 6.62665 38.2762 6.85347C38.0748 7.08044 37.7927 7.19371 37.4299 7.19371C37.2662 7.19371 37.0405 7.18727 36.7529 7.17442C36.7673 6.85123 36.7746 6.48678 36.7746 6.08141C36.7746 5.69201 36.7673 5.3597 36.7529 5.0846H37.0433C37.0909 5.0846 37.1616 5.08295 37.2557 5.07982C37.3496 5.07668 37.4111 5.07503 37.4398 5.07503C37.8391 5.07503 38.1285 5.17141 38.3085 5.36402C38.4882 5.55662 38.5781 5.78763 38.5781 6.05735ZM38.1253 6.12636C38.1253 5.9209 38.0633 5.74787 37.9395 5.60697C37.8156 5.46636 37.6264 5.39599 37.372 5.39599C37.3244 5.39599 37.2592 5.40078 37.1761 5.41049C37.1871 5.6246 37.1927 5.84813 37.1927 6.08139C37.1927 6.33721 37.1982 6.59078 37.2092 6.84225C37.2802 6.85609 37.3524 6.86309 37.4248 6.86317C37.6626 6.86317 37.8387 6.79161 37.9532 6.64875C38.0677 6.5059 38.1253 6.33181 38.1253 6.12636ZM41.7685 7.17457H41.2375C41.2375 7.10389 41.1872 6.90381 41.0863 6.57419H40.3197C40.2158 6.89844 40.1637 7.0985 40.1637 7.17457H39.6646C39.6646 7.13287 39.7937 6.79039 40.0519 6.14729C40.3102 5.50418 40.4393 5.14988 40.4393 5.08475H41.0665C41.0665 5.14571 41.1836 5.49476 41.4174 6.13205C41.6513 6.76933 41.7685 7.11674 41.7685 7.17457ZM41.002 6.26757C40.8128 5.71545 40.7181 5.41691 40.7181 5.37192H40.6915C40.6915 5.41363 40.5937 5.71216 40.3981 6.26757H41.002ZM43.7038 5.63193C43.7038 5.88774 43.6056 6.07661 43.4093 6.19854C43.213 6.32047 42.9722 6.38157 42.6867 6.38157C42.6347 6.38157 42.5978 6.38053 42.5755 6.37843C42.5755 6.57971 42.5815 6.84494 42.5938 7.17457H42.1275C42.1418 6.86541 42.1491 6.50096 42.1491 6.08154C42.1491 5.69633 42.1418 5.36402 42.1275 5.08475H42.4161C42.4571 5.08475 42.5355 5.0831 42.6517 5.07997C42.7678 5.07683 42.8684 5.07517 42.9536 5.07517C43.1637 5.07517 43.3413 5.12119 43.4862 5.21324C43.6311 5.30529 43.7038 5.44471 43.7038 5.63193ZM43.2758 5.72024C43.2758 5.49131 43.1187 5.37672 42.8046 5.37672C42.726 5.37672 42.643 5.38477 42.5558 5.40078C42.568 5.60309 42.574 5.83201 42.574 6.08782C42.6016 6.09006 42.6338 6.09096 42.6702 6.09096C43.074 6.09109 43.2758 5.96753 43.2758 5.72024ZM45.6938 5.63193C45.6938 5.88774 45.5956 6.07661 45.3994 6.19854C45.2031 6.32047 44.9622 6.38157 44.6767 6.38157C44.6247 6.38157 44.5878 6.38053 44.5655 6.37843C44.5655 6.57971 44.5716 6.84494 44.5838 7.17457H44.1175C44.1318 6.86541 44.1391 6.50096 44.1391 6.08154C44.1391 5.69633 44.1318 5.36402 44.1175 5.08475H44.4061C44.4471 5.08475 44.5255 5.0831 44.6417 5.07997C44.7578 5.07683 44.8584 5.07517 44.9436 5.07517C45.1537 5.07517 45.3313 5.12119 45.4762 5.21324C45.6211 5.30529 45.6938 5.44471 45.6938 5.63193ZM45.2658 5.72024C45.2658 5.49131 45.1087 5.37672 44.7946 5.37672C44.716 5.37672 44.633 5.38477 44.5458 5.40078C44.558 5.60309 44.564 5.83201 44.564 6.08782C44.5916 6.09006 44.6238 6.09096 44.6602 6.09096C45.064 6.09109 45.2658 5.96753 45.2658 5.72024ZM48.9474 6.09109C48.9474 6.41954 48.8434 6.69192 48.6354 6.90813C48.4273 7.12435 48.1702 7.23238 47.8639 7.23238C47.5718 7.23238 47.3273 7.13317 47.1306 6.93458C46.9338 6.73615 46.8352 6.48379 46.8352 6.17791C46.8352 5.84948 46.9392 5.57708 47.1472 5.36087C47.3553 5.14465 47.6124 5.03662 47.9187 5.03662C48.2108 5.03662 48.4553 5.13554 48.6521 5.33352C48.8488 5.53152 48.9474 5.78389 48.9474 6.09109ZM48.4894 6.13758C48.4894 5.91389 48.4303 5.73249 48.312 5.59338C48.1937 5.45427 48.0475 5.38479 47.8739 5.38479C47.7124 5.38479 47.5752 5.45487 47.4625 5.59502C47.3497 5.73518 47.2932 5.91226 47.2932 6.12637C47.2932 6.34886 47.3527 6.52996 47.4716 6.66968C47.5905 6.80939 47.7362 6.87917 47.9087 6.87917C48.0702 6.87917 48.2074 6.80879 48.3201 6.66804C48.433 6.52742 48.4894 6.35049 48.4894 6.13758ZM51.1962 7.17457H50.7865C50.7865 7.13064 50.6345 6.89903 50.3302 6.4796C50.0117 6.03761 49.8302 5.73548 49.7861 5.57277H49.7595C49.7871 5.80705 49.8011 6.01894 49.8011 6.20842C49.8011 6.47274 49.8088 6.7949 49.8242 7.17473H49.416C49.4325 6.84301 49.4409 6.47872 49.4409 6.08171C49.4409 5.69113 49.4326 5.3588 49.416 5.08491H49.9087C49.9087 5.14169 50.0454 5.36806 50.3185 5.76388C50.6095 6.18436 50.7764 6.46961 50.8195 6.61948H50.8444C50.8178 6.38085 50.8046 6.16686 50.8046 5.97741C50.8046 5.68754 50.7968 5.38988 50.7814 5.08491H51.1962C51.1806 5.35028 51.1731 5.6826 51.1731 6.08171C51.1731 6.48379 51.1808 6.84808 51.1962 7.17457Z" fill="#F9F9FA"/>
</g>
<defs>
<linearGradient id="paint0_linear" x1="10.3378" y1="4.81301" x2="10.3378" y2="21.743" gradientUnits="userSpaceOnUse">
<stop stop-color="#257CB0"/>
<stop offset="0.286" stop-color="#4A93B5"/>
<stop offset="0.767" stop-color="#78BCBB"/>
<stop offset="1" stop-color="#89CFBD"/>
</linearGradient>
<linearGradient id="paint1_linear" x1="5.92568" y1="9.01466" x2="17.1203" y2="9.01466" gradientUnits="userSpaceOnUse">
<stop stop-color="#52C1AD"/>
<stop offset="1" stop-color="#DEE89A"/>
</linearGradient>
<linearGradient id="paint2_linear" x1="11.5228" y1="13.2783" x2="11.5228" y2="21.8048" gradientUnits="userSpaceOnUse">
<stop stop-color="#EC413D"/>
<stop offset="0.167" stop-color="#DA4452"/>
<stop offset="0.575" stop-color="#B0487A"/>
<stop offset="0.862" stop-color="#954A92"/>
<stop offset="1" stop-color="#8A4A9D"/>
</linearGradient>
<linearGradient id="paint3_linear" x1="17.9707" y1="11.0044" x2="17.9707" y2="15.5515" gradientUnits="userSpaceOnUse">
<stop stop-color="#F58879"/>
<stop offset="0.119" stop-color="#F69079"/>
<stop offset="0.713" stop-color="#FCB877"/>
<stop offset="1" stop-color="#FEC874"/>
</linearGradient>
<clipPath id="clip0">
<rect width="79" height="25" fill="white"/>
</clipPath>
</defs>
</svg>
