<svg width="639" height="374" viewBox="0 0 639 374" fill="none" xmlns="http://www.w3.org/2000/svg">
<g clip-path="url(#clip0)">
<rect width="639" height="373.416" rx="3.99375" fill="black"/>
<path d="M0.748828 14.7269H638.251V370.42C638.251 371.661 637.245 372.667 636.005 372.667H2.9953C1.75461 372.667 0.748828 371.661 0.748828 370.42V14.7269Z" fill="white"/>
<path d="M0.748828 14.7269H638.251V370.42C638.251 371.661 637.245 372.667 636.005 372.667H2.9953C1.75461 372.667 0.748828 371.661 0.748828 370.42V14.7269Z" stroke="black" stroke-width="1.49766"/>
<path d="M14.9766 7.9875C14.9766 9.64177 13.6356 10.9828 11.9813 10.9828C10.327 10.9828 8.98598 9.64177 8.98598 7.9875C8.98598 6.33323 10.327 4.99219 11.9813 4.99219C13.6356 4.99219 14.9766 6.33323 14.9766 7.9875Z" fill="white"/>
<path d="M26.9578 7.9875C26.9578 9.64177 25.6168 10.9828 23.9625 10.9828C22.3083 10.9828 20.9672 9.64177 20.9672 7.9875C20.9672 6.33323 22.3083 4.99219 23.9625 4.99219C25.6168 4.99219 26.9578 6.33323 26.9578 7.9875Z" fill="white"/>
<path d="M38.9391 7.9875C38.9391 9.64177 37.5981 10.9828 35.9438 10.9828C34.2895 10.9828 32.9485 9.64177 32.9485 7.9875C32.9485 6.33323 34.2895 4.99219 35.9438 4.99219C37.5981 4.99219 38.9391 6.33323 38.9391 7.9875Z" fill="white"/>
</g>
<defs>
<clipPath id="clip0">
<rect width="639" height="373.416" rx="3.99375" fill="white"/>
</clipPath>
</defs>
</svg>
