<svg width="58" height="58" viewBox="0 0 58 58" fill="none" xmlns="http://www.w3.org/2000/svg">
<path d="M50.8951 57.2265H7.10505C6.38005 57.2265 5.80005 56.5982 5.80005 55.8248V14.7415C5.80005 13.9682 6.38005 13.3398 7.10505 13.3398H50.8951C51.6201 13.3398 52.2001 13.9682 52.2001 14.7415V55.8248C52.2001 56.5982 51.6201 57.2265 50.8951 57.2265Z" stroke="#BDC5D1" stroke-width="1.45" stroke-miterlimit="10"/>
<g opacity="0.5">
<path opacity="0.5" d="M5.89669 20.9768C2.70669 20.9768 0.14502 18.3668 0.14502 15.1768V8.55518H11.6967V15.1768C11.6967 18.3668 9.08669 20.9768 5.89669 20.9768Z" fill="#BDC5D1"/>
<path opacity="0.5" d="M17.4482 20.9768C14.2582 20.9768 11.6965 18.4152 11.6965 15.2252V8.55518H23.2482V15.1768C23.2482 18.3668 20.6382 20.9768 17.4482 20.9768Z" fill="#BDC5D1"/>
<path opacity="0.5" d="M29 20.9768C25.81 20.9768 23.2483 18.4152 23.2483 15.2252V8.55518H34.8V15.1768C34.7516 18.3668 32.19 20.9768 29 20.9768Z" fill="#BDC5D1"/>
<path opacity="0.5" d="M40.5517 20.9768C37.3617 20.9768 34.8 18.4152 34.8 15.2252V8.55518H46.3517V15.1768C46.3034 18.3668 43.7417 20.9768 40.5517 20.9768Z" fill="#BDC5D1"/>
<path opacity="0.5" d="M52.1035 20.9768C48.9135 20.9768 46.3518 18.4152 46.3518 15.2252V8.55518H57.9035V15.1768C57.8551 18.3668 55.2935 20.9768 52.1035 20.9768Z" fill="#BDC5D1"/>
</g>
<path d="M5.89669 19.1399C2.70669 19.1399 0.14502 16.5783 0.14502 13.3883V6.7666H11.6967V13.3883C11.6967 16.5783 9.08669 19.1399 5.89669 19.1399Z" fill="#FFA101"/>
<path d="M17.4482 19.1399C14.2582 19.1399 11.6965 16.5783 11.6965 13.3883V6.7666H23.2482V13.3883C23.2482 16.5783 20.6382 19.1399 17.4482 19.1399Z" fill="white"/>
<path d="M29 19.1399C25.81 19.1399 23.2483 16.5783 23.2483 13.3883V6.7666H34.8V13.3883C34.7516 16.5783 32.19 19.1399 29 19.1399Z" fill="#FFA101"/>
<path d="M40.5517 19.1399C37.3617 19.1399 34.8 16.5783 34.8 13.3883V6.7666H46.3517V13.3883C46.3034 16.5783 43.7417 19.1399 40.5517 19.1399Z" fill="white"/>
<path d="M52.1035 19.1399C48.9135 19.1399 46.3518 16.5783 46.3518 13.3883V6.7666H57.9035V13.3883C57.8551 16.5783 55.2935 19.1399 52.1035 19.1399Z" fill="#FFA101"/>
<path d="M11.6965 6.76668L18.8982 0.0966797H26.0032L23.2482 6.76668H11.6965Z" fill="white"/>
<path d="M18.8984 0.0966797H13.195L0.14502 6.76668H11.6967L18.8984 0.0966797Z" fill="#FFA101"/>
<path d="M31.9966 0.0966797H30.015H27.985H26.0033L23.2483 6.76668H27.985H30.015H34.7516L31.9966 0.0966797Z" fill="#FFA101"/>
<path d="M46.3033 6.76668L39.1016 0.0966797H31.9966L34.7516 6.76668H46.3033Z" fill="white"/>
<path d="M39.1016 0.0966797H44.8049L57.8549 6.76668H46.3032L39.1016 0.0966797Z" fill="#FFA101"/>
<path opacity="0.5" d="M40.455 53.3599H24.795C24.1183 53.3599 23.635 52.8283 23.635 52.1999V29.5799C23.635 28.9033 24.1667 28.4199 24.795 28.4199H40.455C41.1317 28.4199 41.615 28.9516 41.615 29.5799V52.1516C41.6633 52.8283 41.1317 53.3599 40.455 53.3599Z" fill="#BDC5D1"/>
<path d="M36.4916 49.8802H22.0882C21.5082 49.8802 21.0249 49.3969 21.0249 48.8169V28.0335C21.0249 27.4535 21.5082 26.9702 22.0882 26.9702H36.4916C37.0716 26.9702 37.5549 27.4535 37.5549 28.0335V48.7686C37.5549 49.3969 37.0716 49.8802 36.4916 49.8802Z" fill="#FFA101"/>
<path d="M14.2583 37.0715C14.2583 38.1349 13.4366 38.9565 12.3733 38.9565C11.3099 38.9565 10.4883 38.1349 10.4883 37.0715C10.4883 36.0082 11.3099 35.1865 12.3733 35.1865C13.4366 35.1865 14.2583 36.0565 14.2583 37.0715Z" stroke="#BDC5D1" stroke-width="1.45" stroke-miterlimit="10"/>
<path d="M47.6567 37.0715C47.6567 38.1349 46.835 38.9565 45.7717 38.9565C44.7084 38.9565 43.8867 38.1349 43.8867 37.0715C43.8867 36.0082 44.7084 35.1865 45.7717 35.1865C46.835 35.1865 47.6567 36.0565 47.6567 37.0715Z" stroke="#BDC5D1" stroke-width="1.45" stroke-miterlimit="10"/>
</svg>
