<svg width="58" height="58" viewBox="0 0 58 58" fill="none" xmlns="http://www.w3.org/2000/svg">
<path d="M13.4369 17.9315C13.4369 18.6565 12.8086 19.2848 12.0836 19.2848C11.3586 19.2848 10.7302 18.7048 10.7302 17.9315C10.7302 17.2065 11.3586 16.5781 12.0836 16.5781C12.8569 16.5781 13.4369 17.1581 13.4369 17.9315Z" stroke="#FFA101" stroke-width="2.07143" stroke-miterlimit="10" stroke-linecap="round" stroke-linejoin="round"/>
<path opacity="0.5" d="M19.8168 17.9315C19.8168 18.6565 19.2368 19.2848 18.4634 19.2848C17.7384 19.2848 17.1101 18.7048 17.1101 17.9315C17.1101 17.2065 17.6901 16.5781 18.4634 16.5781C19.2368 16.5781 19.8168 17.1581 19.8168 17.9315Z" stroke="#BDC5D1" stroke-width="2.07143" stroke-miterlimit="10" stroke-linecap="round" stroke-linejoin="round"/>
<path opacity="0.5" d="M26.1967 17.9315C26.1967 18.6565 25.5683 19.2848 24.8433 19.2848C24.1183 19.2848 23.49 18.7048 23.49 17.9315C23.49 17.2065 24.1183 16.5781 24.8433 16.5781C25.6167 16.5781 26.1967 17.1581 26.1967 17.9315Z" stroke="#BDC5D1" stroke-width="2.07143" stroke-miterlimit="10" stroke-linecap="round" stroke-linejoin="round"/>
<path opacity="0.5" d="M51.1367 29.8218C51.5234 30.4984 51.8134 31.2234 52.0551 31.9968" stroke="#BDC5D1" stroke-width="2.07143" stroke-miterlimit="10" stroke-linecap="round" stroke-linejoin="round"/>
<path opacity="0.5" d="M37.1201 23.2C41.8084 22.33 46.4484 24.0216 49.3968 27.3566" stroke="#BDC5D1" stroke-width="2.07143" stroke-miterlimit="10" stroke-linecap="round" stroke-linejoin="round"/>
<path opacity="0.5" d="M34.8968 19.9134C36.0568 11.2617 30.2568 3.09337 21.5568 1.45004C12.5668 -0.289965 3.86678 5.65503 2.17511 14.645C1.30511 19.285 2.46511 23.8284 4.97845 27.405L2.56178 34.7034L10.3434 32.19C11.8901 33.06 13.5818 33.6884 15.3701 34.0267C18.0284 34.51 20.6384 34.365 23.0551 33.64" stroke="#BDC5D1" stroke-width="2.07143" stroke-miterlimit="10" stroke-linecap="round" stroke-linejoin="round"/>
<path opacity="0.5" d="M35.9115 24.4081C44.9015 22.7164 53.6015 28.6131 55.2932 37.6031C56.1632 42.2431 55.0032 46.7864 52.4898 50.363L54.9548 57.6614L47.1732 55.148C45.6265 56.018 43.9348 56.6464 42.1465 56.9847C33.1565 58.6764 24.4565 52.7797 22.7648 43.7897C20.9765 34.7997 26.9215 26.1481 35.9115 24.4081Z" fill="#BDC5D1"/>
<path d="M36.4435 19.5267C45.4335 17.835 54.1335 23.7317 55.8252 32.7217C56.6952 37.3617 55.5352 41.905 53.0218 45.4817L55.4868 52.78L47.7052 50.2667C46.1585 51.1367 44.4668 51.765 42.6785 52.1034C33.6885 53.795 24.9885 47.8984 23.2968 38.9084C21.5085 29.9184 27.4535 21.2667 36.4435 19.5267Z" fill="#FFA101"/>
<path opacity="0.5" d="M45.9166 37.3615C46.664 37.3615 47.2699 36.7555 47.2699 36.0081C47.2699 35.2607 46.664 34.6548 45.9166 34.6548C45.1691 34.6548 44.5632 35.2607 44.5632 36.0081C44.5632 36.7555 45.1691 37.3615 45.9166 37.3615Z" stroke="white" stroke-width="2.07143" stroke-miterlimit="10" stroke-linecap="round" stroke-linejoin="round"/>
<path opacity="0.5" d="M39.5367 37.3615C40.2841 37.3615 40.89 36.7555 40.89 36.0081C40.89 35.2607 40.2841 34.6548 39.5367 34.6548C38.7893 34.6548 38.1833 35.2607 38.1833 36.0081C38.1833 36.7555 38.7893 37.3615 39.5367 37.3615Z" stroke="white" stroke-width="2.07143" stroke-miterlimit="10" stroke-linecap="round" stroke-linejoin="round"/>
<path d="M33.1568 37.3615C33.9042 37.3615 34.5101 36.7555 34.5101 36.0081C34.5101 35.2607 33.9042 34.6548 33.1568 34.6548C32.4094 34.6548 31.8035 35.2607 31.8035 36.0081C31.8035 36.7555 32.4094 37.3615 33.1568 37.3615Z" stroke="white" stroke-width="2.07143" stroke-miterlimit="10" stroke-linecap="round" stroke-linejoin="round"/>
</svg>
