<svg width="58" height="53" viewBox="0 0 58 53" fill="none" xmlns="http://www.w3.org/2000/svg">
<path d="M16.7817 11.1755V43.5463C16.7817 44.456 17.5192 45.1935 18.4289 45.1935H36.7185C37.6282 45.1935 38.3657 44.456 38.3657 43.5463V11.1755C38.3657 10.2658 37.6282 9.52832 36.7185 9.52832H18.4289C17.5192 9.52844 16.7817 10.2658 16.7817 11.1755Z" fill="#DEE2E8"/>
<path d="M9.90993 27.6519H15.1956C20.6687 27.6519 25.1056 32.0887 25.1056 37.5618V38.2166C25.1056 43.6897 20.6687 48.1266 15.1956 48.1266H11.1324C11.6727 49.7941 12.8183 51.1889 14.3102 52.0524C13.2745 52.6518 12.0732 52.9964 10.7906 52.9964C6.90993 52.9964 3.76313 49.856 3.75188 45.978C1.46687 44.1626 0 41.3618 0 38.2167V37.5619C0 32.0887 4.43689 27.6519 9.90993 27.6519Z" fill="#FFA101"/>
<path d="M6.32639 39.371C7.08589 39.371 7.7016 38.7553 7.7016 37.9958C7.7016 37.2363 7.08589 36.6206 6.32639 36.6206C5.56688 36.6206 4.95117 37.2363 4.95117 37.9958C4.95117 38.7553 5.56688 39.371 6.32639 39.371Z" fill="white"/>
<path d="M12.5527 39.371C13.3122 39.371 13.9279 38.7553 13.9279 37.9958C13.9279 37.2363 13.3122 36.6206 12.5527 36.6206C11.7932 36.6206 11.1775 37.2363 11.1775 37.9958C11.1775 38.7553 11.7932 39.371 12.5527 39.371Z" fill="white"/>
<path d="M18.779 39.371C19.5385 39.371 20.1542 38.7553 20.1542 37.9958C20.1542 37.2363 19.5385 36.6206 18.779 36.6206C18.0195 36.6206 17.4038 37.2363 17.4038 37.9958C17.4038 38.7553 18.0195 39.371 18.779 39.371Z" fill="white"/>
<path d="M15.1362 45.953V13.5822C15.1362 13.225 15.4258 12.9352 15.7834 12.9351C15.7834 12.9351 15.7835 12.9351 15.7835 12.9351H34.073C34.4304 12.9351 34.7202 13.2248 34.7202 13.5822V45.953C34.7202 46.3104 34.4304 46.6002 34.073 46.6002H15.7834C15.426 46.6002 15.1362 46.3104 15.1362 45.953Z" fill="#EFF0F3" stroke="#BDC5D1" stroke-width="2"/>
<path d="M19.6484 11.9351L20.879 14.6077C21.0864 15.058 21.5368 15.3466 22.0326 15.3466H27.8235C28.3193 15.3466 28.7697 15.058 28.9771 14.6077L30.2077 11.9351H19.6484Z" fill="#EFF0F3"/>
<path d="M47.8191 20.783L48.243 19.4748H46.8678H42.8046C37.8837 19.4748 33.8945 15.4856 33.8945 10.5647V9.90993C33.8945 4.98918 37.8837 1 42.8046 1H48.0902C53.011 1 57.0001 4.98917 57.0001 9.91006V10.5648C57.0001 13.3915 55.6833 15.9089 53.6263 17.5432L53.2498 17.8424L53.2484 18.3233C53.2387 21.6504 50.5389 24.3445 47.2097 24.3445C46.6832 24.3445 46.1732 24.277 45.6872 24.1504C46.6562 23.2357 47.3981 22.0824 47.8191 20.783Z" stroke="#BDC5D1" stroke-width="2"/>
<path d="M50.0356 7.17187C48.8063 6.175 46.9905 6.37937 45.9348 7.5578L45.6942 7.82639L45.3982 7.49603C44.3154 6.28758 42.456 6.18366 41.2446 7.26395C40.0334 8.34438 39.9292 10.2 41.012 11.4086L45.1828 16.0642C45.4555 16.3686 45.9328 16.3686 46.2054 16.0642L50.3762 11.4086C51.4905 10.1649 51.348 8.23628 50.0356 7.17187Z" fill="#FFA101"/>
<path d="M54.6469 35.9218H50.9535C50.6836 35.9218 50.4648 35.703 50.4648 35.4331V31.7397C50.4648 31.4698 50.2459 31.251 49.976 31.251H46.9226C46.6527 31.251 46.4338 31.4698 46.4338 31.7397V35.4331C46.4338 35.703 46.2149 35.9218 45.9451 35.9218H42.2517C41.9818 35.9218 41.7629 36.1407 41.7629 36.4106V39.4641C41.7629 39.7339 41.9818 39.9528 42.2517 39.9528H45.9451C46.2149 39.9528 46.4338 40.1717 46.4338 40.4416V44.1349C46.4338 44.4048 46.6527 44.6237 46.9226 44.6237H49.976C50.2459 44.6237 50.4648 44.4048 50.4648 44.1349V40.4416C50.4648 40.1717 50.6836 39.9528 50.9535 39.9528H54.6469C54.9168 39.9528 55.1356 39.7339 55.1356 39.4641V36.4106C55.1356 36.1407 54.9169 35.9218 54.6469 35.9218Z" fill="#BDC5D1"/>
<path d="M28.3816 42.8402C28.8825 42.8402 29.2885 42.4341 29.2885 41.9333C29.2885 41.4324 28.8825 41.0264 28.3816 41.0264H22.0329C21.532 41.0264 21.126 41.4324 21.126 41.9333C21.126 42.4341 21.532 42.8402 22.0329 42.8402H28.3816Z" fill="#FFA101"/>
</svg>
