<svg width="58" height="58" viewBox="0 0 58 58" fill="none" xmlns="http://www.w3.org/2000/svg">
<g clip-path="url(#clip0)">
<path opacity="0.5" d="M35.2833 22.5231L31.6583 18.8015L30.6917 17.7865L29.6283 16.6748L25.0367 11.9381L13.195 9.32812L3.57666 18.6565L5.84833 30.5948L10.44 35.3315L11.455 36.3948L12.47 37.4581L31.9 57.3231C32.77 58.1931 34.1717 58.2415 35.09 57.3715L50.9917 41.9048C51.8617 41.0348 51.91 39.6331 51.04 38.7148L48.285 35.9115" fill="#BDC5D1"/>
<path d="M36.2985 14.0651L32.6735 10.3435L31.7068 9.32845L30.6435 8.21678L26.0518 3.48012L14.2101 0.870117L4.64014 10.1985L6.9118 22.1368L11.5035 26.8735L12.5185 27.9368L13.5335 29.0001L32.9151 48.9134C33.7851 49.7834 35.1868 49.8318 36.1051 48.9618L52.0068 33.4951C52.8768 32.6251 52.9251 31.2235 52.0551 30.3051L49.3001 27.5018" fill="white"/>
<path d="M36.2985 14.0651L32.6735 10.3435L31.7068 9.32845L30.6435 8.21678L26.0518 3.48012L14.2101 0.870117L4.64014 10.1985L6.9118 22.1368L11.5035 26.8735L12.5185 27.9368L13.5335 29.0001L32.9151 48.9134C33.7851 49.7834 35.1868 49.8318 36.1051 48.9618L52.0068 33.4951C52.8768 32.6251 52.9251 31.2235 52.0551 30.3051L49.3001 27.5018" stroke="#BDC5D1" stroke-width="1.93333" stroke-miterlimit="10" stroke-linecap="round" stroke-linejoin="round"/>
<path opacity="0.5" d="M50.5315 24.6855C53.6316 21.6706 53.7007 16.7133 50.6857 13.6131C47.6708 10.513 42.7135 10.4439 39.6133 13.4589C36.5132 16.4739 36.4441 21.4311 39.4591 24.5313C42.474 27.6315 47.4313 27.7005 50.5315 24.6855Z" fill="#BDC5D1"/>
<path d="M17.746 14.1284C19.0856 12.8256 19.1154 10.6836 17.8127 9.34402C16.5099 8.00445 14.3679 7.97461 13.0283 9.27737C11.6887 10.5801 11.6589 12.7222 12.9616 14.0617C14.2644 15.4013 16.4064 15.4312 17.746 14.1284Z" stroke="#FFA101" stroke-width="0.966667" stroke-miterlimit="10" stroke-linecap="round" stroke-linejoin="round"/>
<path d="M48.2224 26.3086C51.3226 23.2936 51.3916 18.3363 48.3766 15.2362C45.3617 12.136 40.4044 12.067 37.3042 15.0819C34.2041 18.0969 34.135 23.0542 37.15 26.1543C40.165 29.2545 45.1222 29.3236 48.2224 26.3086Z" fill="#FFA101"/>
<path d="M39 21L42 24" stroke="white" stroke-width="1.45" stroke-miterlimit="10" stroke-linecap="round" stroke-linejoin="round"/>
<path d="M42 24L46.5 18.5" stroke="white" stroke-width="1.45" stroke-miterlimit="10" stroke-linecap="round" stroke-linejoin="round"/>
<path d="M27.6467 26.4868L23.7317 30.1602" stroke="#FFA101" stroke-width="0.966667" stroke-miterlimit="10" stroke-linecap="round" stroke-linejoin="round"/>
<path opacity="0.5" d="M32.335 28.6616L27.0183 33.6883" stroke="#FFA101" stroke-width="0.966667" stroke-miterlimit="10" stroke-linecap="round" stroke-linejoin="round"/>
<path opacity="0.5" d="M35.4766 32.2866L30.3049 37.1683" stroke="#FFA101" stroke-width="0.966667" stroke-miterlimit="10" stroke-linecap="round" stroke-linejoin="round"/>
</g>
<defs>
<clipPath id="clip0">
<rect width="58" height="58" fill="white"/>
</clipPath>
</defs>
</svg>
