<svg width="103" height="54" viewBox="0 0 103 54" fill="none" xmlns="http://www.w3.org/2000/svg">
<path d="M11.0535 24.1687V30.3234H3.82463V24.1687H0.897705V38.0248H3.82463V31.5649H11.0535L11.0506 36.5368C11.0506 36.8479 11.1137 37.1054 11.2369 37.3043C11.3602 37.4965 11.5172 37.6491 11.7036 37.7584C11.8841 37.8626 12.083 37.9345 12.2979 37.9734C12.5085 38.0087 12.692 38.0263 12.8607 38.0263H13.9826V24.1687" fill="#121118"/>
<path d="M68.2644 38.0263V24.1687H65.4006L59.6723 34.4324L53.8302 24.1687H50.9333V38.0263H52.4258V27.2805L58.576 38.0263H59.3391L65.3273 27.3634V36.5331C65.3273 36.8464 65.3948 37.1032 65.5195 37.3028C65.6406 37.4928 65.7968 37.644 65.984 37.7548C66.1652 37.8626 66.3662 37.9345 66.579 37.9698C66.7852 38.005 66.9701 38.0263 67.1425 38.0263" fill="#121118"/>
<path d="M86.6237 38.0256L79.3061 23.8635H78.4483L70.9523 38.0271H72.6634L74.9916 33.6209H80.3076L79.5724 32.207H75.7393L78.2032 27.5506L83.0364 36.925C83.2272 37.3087 83.4649 37.5941 83.7438 37.7666C84.0241 37.9463 84.3917 38.0256 84.8363 38.0256" fill="#121118"/>
<path d="M101.846 24.1687C101.767 24.1687 101.68 24.1746 101.576 24.19C101.472 24.2113 101.372 24.2465 101.281 24.2993C101.182 24.3573 101.101 24.4365 101.041 24.5334C100.974 24.639 100.941 24.7711 100.941 24.9281V33.86L91.1971 24.1687H89.3187V38.0248H91.0261V27.5784L100.913 37.6814C101.317 38.0541 101.874 38.0248 102.416 38.0248H102.62V24.1687" fill="#121118"/>
<path d="M28.9865 18.611C28.9865 18.611 32.3977 16.6952 34.9504 15.6225C41.2467 12.9795 46.7872 11.4262 51.8926 10.4701C56.0141 9.69893 68.5854 7.76697 78.5504 10.8538C78.7089 13.1483 78.0757 15.7832 76.7982 18.611H80.8874C81.8941 16.5228 82.5779 14.5167 82.8927 12.6413C84.4387 13.4689 85.8563 14.4727 87.0868 15.6915C88.2263 16.82 89.3292 18.611 89.3292 18.611H91.1356C91.1356 18.611 90.3652 16.8889 88.66 15.172C87.0773 13.5783 85.1123 12.3668 83.0453 11.4438C83.3542 7.79339 82.1406 4.70798 79.0464 2.57204C71.6451 -2.53705 56.954 0.397208 43.423 7.57106C37.3622 10.7849 31.8378 14.6892 27.3018 18.611H28.9865ZM70.9517 8.58364C64.403 8.03259 56.9423 8.80963 51.9528 9.80973C45.8685 11.0314 40.1945 12.733 34.8374 15.0524C33.615 15.5821 32.4432 16.1618 31.275 16.7781C34.9731 14.0236 39.1547 11.3719 43.6013 9.13321C56.0933 2.84133 69.2039 0.460311 75.3916 5.02642C77.0976 6.28407 78.0742 7.92326 78.4249 9.84275C75.454 9.0591 72.6892 8.73039 70.9517 8.58364Z" fill="#121118"/>
<path d="M25.0852 23.8635H24.2282L16.7198 38.0256H18.4301L23.9824 27.5506L26.384 32.207H22.5303L21.787 33.6209H27.1206L28.8075 36.9264C28.9983 37.3102 29.236 37.5956 29.5149 37.7703C29.7959 37.9478 30.1628 38.0271 30.6074 38.0271H32.4095" fill="#121118"/>
<path d="M68.4862 45.4409H67.3716C60.0055 48.486 51.4749 50.4935 42.8813 50.8281C46.5772 49.5264 50.4866 47.7251 54.4173 45.4409H50.7309C46.8443 47.637 42.998 49.3342 39.4077 50.4847C39.0137 50.6109 38.6256 50.729 38.2418 50.842C31.991 50.6094 27.0323 49.2168 23.5896 47.0823C22.7685 46.5716 22.0487 46.0206 21.4052 45.4409H20.6575C21.4206 46.2231 22.3202 46.9554 23.3629 47.6209C26.402 49.5602 30.6233 50.9367 35.8791 51.4562C31.0533 52.5605 27.1189 52.4761 24.2301 51.5149C21.3399 50.5515 19.1827 48.7164 18.391 46.3053C18.3 46.0257 18.2237 45.7366 18.1591 45.4409H17.6866C17.7622 45.8159 17.8546 46.1842 17.9698 46.5379C18.8415 49.2219 21.2291 51.2801 24.3175 52.3829C27.9869 53.6963 33.314 53.6912 40.0204 51.7489C40.0923 51.7277 40.1642 51.7064 40.2354 51.6836C49.1886 51.7702 59.3407 49.6812 68.4862 45.4409Z" fill="#121118"/>
<path d="M43.9042 36.912L39.5876 31.6891H38.0878V38.0214H35.1616V24.166H40.5341C40.5341 24.166 42.7515 24.1323 44.2036 24.8513C45.6557 25.5697 46.2698 26.5786 46.2698 27.859C46.2698 29.1394 45.4943 30.6501 42.7185 31.4088L48.3096 38.0236H46.068C46.068 38.0236 45.597 38.0251 45.0474 37.8416C44.4978 37.6567 43.9042 36.912 43.9042 36.912ZM38.0805 25.3826V30.6325H39.435C39.435 30.6325 40.7792 30.6516 41.6524 30.1571C42.5255 29.6618 43.1433 28.9735 43.1433 27.9448C43.1433 26.9168 42.4771 26.0063 41.5342 25.6453C41.5342 25.6453 40.9949 25.3826 40.033 25.3826" fill="#121118"/>
</svg>
