<svg width="158" height="33" viewBox="0 0 158 33" fill="none" xmlns="http://www.w3.org/2000/svg">
<path d="M16.3881 31.7469C7.88287 31.7469 1.00768 24.8615 1.00768 16.3775C1.00768 7.88285 7.88287 1.00222 16.3881 1.00222C24.8785 1.00222 31.7567 7.88165 31.7567 16.3775C31.7567 24.8615 24.8791 31.7469 16.3881 31.7469ZM16.3881 0C7.33871 0 0 7.33727 0 16.3787C0 25.419 7.33811 32.7491 16.3881 32.7491C25.4274 32.7491 32.7649 25.419 32.7649 16.3787C32.7649 7.33727 25.428 0 16.3881 0Z" fill="#121118"/>
<path d="M2.26885 16.2729C7.86039 18.0303 13.1342 23.4825 14.7296 30.452C6.87003 29.4295 2.28677 22.9745 2.26885 16.2729Z" fill="#121118"/>
<path d="M30.4307 16.2729C24.8404 18.0303 19.5003 23.4825 17.9706 30.452C25.8295 29.4295 30.4128 22.9745 30.4307 16.2729Z" fill="#121118"/>
<path d="M16.3671 30.4524C10.4064 21.2581 11.6936 8.64653 16.3731 1.85425C20.8345 8.64594 22.2316 21.2557 16.3671 30.4524Z" fill="#121118"/>
<path d="M47.3017 1.75476V6.82753H40.7603V1.75476H37.4278V14.6205H40.7603V9.34553H47.3017V14.6205H50.6341V1.75476H47.3017Z" fill="#121118"/>
<path d="M57.3527 12.2311V9.25363H64.0381V6.93781H57.3527V4.14411H64.9227V1.75476H54.0409V14.6205H65.1901V12.2311H57.3527Z" fill="#121118"/>
<path d="M93.5413 7.9303C94.7138 7.37892 95.4544 6.38642 95.4544 5.09985C95.4544 3.09647 93.603 1.75476 90.0032 1.75476H82.9681V14.6205H90.4146C94.1996 14.6205 96.1743 13.3339 96.1743 11.11C96.1743 9.49257 95.1458 8.38979 93.5413 7.9303ZM89.5918 3.99707C91.2169 3.99707 92.1014 4.49332 92.1014 5.5042C92.1014 6.51508 91.2169 7.0297 89.5918 7.0297H86.2799V3.99707H89.5918ZM90.1678 12.3782H86.2799V9.1985H90.1678C91.8957 9.1985 92.8213 9.71313 92.8213 10.7975C92.8213 11.9003 91.8957 12.3782 90.1678 12.3782Z" fill="#121118"/>
<path d="M109.456 14.6205H112.953L106.514 1.75476H103.223L96.8048 14.6205H100.219L101.495 11.8635H108.18L109.456 14.6205ZM102.565 9.60285L104.848 4.67711L107.131 9.60285H102.565Z" fill="#121118"/>
<path d="M114.447 14.6205H124.999V12.1944H117.779V1.75476H114.447V14.6205Z" fill="#121118"/>
<path d="M126.861 14.6205H130.194V1.75476H126.861V14.6205Z" fill="#121118"/>
<path d="M144.493 4.14411V1.75476H133.611V14.6205H136.943V9.93368H143.608V7.54433H136.943V4.14411H144.493Z" fill="#121118"/>
<path d="M150.06 12.2311V9.25363H156.746V6.93781H150.06V4.14411H157.63V1.75476H146.749V14.6205H157.898V12.2311H150.06Z" fill="#121118"/>
<path fill-rule="evenodd" clip-rule="evenodd" d="M78.6484 8.53647C80.5453 9.13134 80.9091 10.5324 80.9874 12.0947C81.0287 12.9193 81.084 13.7418 81.5804 14.5196C81.2479 14.6754 80.9349 14.6008 80.6406 14.6062C79.9235 14.6194 79.2059 14.6157 78.4885 14.6091C77.8243 14.6028 77.7655 14.5675 77.623 13.9495C77.5304 13.5475 77.4865 13.1349 77.4264 12.7262C77.3583 12.2627 77.326 11.7924 77.2258 11.3355C77.0014 10.3125 76.4369 9.80173 75.3639 9.6791C73.9638 9.51895 72.5549 9.64043 71.1504 9.60731C70.7764 9.59861 70.7505 9.81995 70.7518 10.0938C70.7571 11.3066 70.7544 12.5196 70.7541 13.7323C70.754 13.9253 70.758 14.1185 70.7475 14.3111C70.737 14.5031 70.6281 14.6079 70.4201 14.6077C69.3871 14.6067 68.3541 14.6072 67.3212 14.6058C67.0726 14.6055 66.9615 14.4753 66.9629 14.2431C66.964 14.0776 66.9605 13.9123 66.9605 13.7469C66.9603 10.0532 66.9603 6.35928 66.9605 2.66559C66.9606 2.47266 66.9655 2.27972 66.9655 2.08678C66.9655 1.84226 67.0962 1.74198 67.3437 1.75474C67.4867 1.76202 67.6305 1.7549 67.774 1.7549C70.5862 1.75473 73.3982 1.75391 76.2103 1.75523C77.2582 1.75573 78.2655 1.94949 79.1935 2.4243C80.7341 3.2126 81.3908 4.55379 81.0573 6.14067C80.8882 6.94562 80.416 7.54306 79.7181 7.98308C79.4325 8.16302 79.1159 8.29692 78.6484 8.53647ZM73.2478 7.50091C74.0204 7.50091 74.7931 7.50737 75.5655 7.49586C75.7332 7.49329 75.9022 7.43326 76.0668 7.38747C77.0355 7.11769 77.5051 6.39141 77.332 5.43733C77.1825 4.613 76.6035 4.10921 75.56 4.06524C74.1021 4.0038 72.6403 4.03063 71.1804 4.00786C70.8292 4.0024 70.7462 4.16279 70.7502 4.46362C70.7619 5.34392 70.7708 6.22472 70.7467 7.10452C70.7359 7.49959 70.9362 7.55432 71.2717 7.5472C71.9302 7.53312 72.589 7.54297 73.2477 7.54297C73.2477 7.52906 73.2478 7.51499 73.2478 7.50091Z" fill="#121118"/>
<path d="M47.6191 16.6074V24.8464L40.2611 16.6074H37.4278V30.1775H40.8108V21.9385L48.19 30.1775H51.0021V16.6074H47.6191Z" fill="#121118"/>
<path d="M61.0796 30.4101C65.2872 30.4101 67.7822 28.2001 67.7822 24.2066V16.6074H64.3992V24.0903C64.3992 26.6686 63.194 27.7348 61.1007 27.7348C59.0286 27.7348 57.8023 26.6686 57.8023 24.0903V16.6074H54.377V24.2066C54.377 28.2001 56.872 30.4101 61.0796 30.4101Z" fill="#121118"/>
<path d="M73.985 30.1775H77.4103V19.1663H82.1465V16.6074H69.2488V19.1663H73.985V30.1775Z" fill="#121118"/>
<path d="M99.5376 30.1775H102.963V16.6074H99.5376V30.1775Z" fill="#121118"/>
<path d="M109.541 30.1775H112.966V19.1663H117.703V16.6074H104.805V19.1663H109.541V30.1775Z" fill="#121118"/>
<path d="M119.546 30.1775H122.971V16.6074H119.546V30.1775Z" fill="#121118"/>
<path d="M133.651 30.4101C138.303 30.4101 141.749 27.4441 141.749 23.3924C141.749 19.3408 138.303 16.3748 133.651 16.3748C128.978 16.3748 125.553 19.3602 125.553 23.3924C125.553 27.4247 128.978 30.4101 133.651 30.4101ZM133.651 27.7348C131.008 27.7348 129.021 25.9707 129.021 23.3924C129.021 20.8141 131.008 19.05 133.651 19.05C136.294 19.05 138.282 20.8141 138.282 23.3924C138.282 25.9707 136.294 27.7348 133.651 27.7348Z" fill="#121118"/>
<path d="M154.515 16.6074V24.8464L147.157 16.6074H144.323V30.1775H147.706V21.9385L155.086 30.1775H157.898V16.6074H154.515Z" fill="#121118"/>
<path fill-rule="evenodd" clip-rule="evenodd" d="M94.5556 24.0056C96.3766 24.6546 96.7259 26.183 96.8011 27.8873C96.8407 28.7869 96.8938 29.0993 97.3704 29.9479C97.0511 30.1178 96.7507 30.0364 96.4682 30.0423C95.7797 30.0568 95.0908 30.0527 94.4021 30.0455C93.7645 30.0386 93.708 30.0001 93.5713 29.326C93.4823 28.8874 93.4402 29.0221 93.3825 28.5763C93.3171 28.0706 93.2861 27.5576 93.1899 27.0591C92.9745 25.9431 92.4326 25.3859 91.4025 25.2521C90.0584 25.0774 88.7059 25.2099 87.3576 25.1738C86.9985 25.1643 86.9737 25.4058 86.9748 25.7045C86.98 27.0275 86.9774 28.3508 86.9771 29.6738C86.977 29.8843 86.9808 29.5103 86.9708 29.7205C86.9607 29.9298 86.8562 30.0442 86.6564 30.044C85.6647 30.0429 84.6731 30.0435 83.6815 30.0419C83.4428 30.0416 83.3362 29.8996 83.3376 29.6462C83.3386 29.4657 83.3352 29.2854 83.3352 29.1049C83.335 25.0754 83.335 21.6305 83.3352 17.601C83.3353 17.3906 83.34 17.1801 83.34 16.9696C83.34 16.7029 83.4655 16.5935 83.7031 16.6074C83.8404 16.6153 83.9785 16.6076 84.1162 16.6076C86.8159 16.6074 89.5154 16.6065 92.2151 16.6079C93.2211 16.6085 94.188 16.8198 95.0789 17.3378C96.5579 18.1978 97.1883 19.6609 96.8682 21.392C96.7058 22.2702 96.2525 22.9219 95.5825 23.4019C95.3083 23.5982 95.0044 23.7443 94.5556 24.0056ZM89.371 22.8759C90.1127 22.8759 90.8545 22.883 91.596 22.8704C91.757 22.8676 91.9192 22.8021 92.0773 22.7522C93.0072 22.4579 93.458 21.6656 93.2919 20.6247C93.1484 19.7255 92.5925 19.1759 91.5907 19.1279C90.1912 19.0609 88.7879 19.0902 87.3864 19.0653C87.0492 19.0594 86.9695 19.2343 86.9733 19.5625C86.9846 20.5228 86.9931 21.4837 86.97 22.4435C86.9596 22.8745 87.1519 22.9342 87.474 22.9264C88.1061 22.9111 88.7386 22.9218 89.3709 22.9218C89.3709 22.9066 89.371 22.8913 89.371 22.8759Z" fill="#121118"/>
</svg>
