<svg width="56" height="55" viewBox="0 0 56 55" fill="none" xmlns="http://www.w3.org/2000/svg">
<path d="M47.233 34.3655H9.04785V10.2685H47.233V34.3655Z" fill="white"/>
<path d="M13.9867 54.0117V51.3632H10.4388V54.0117H9.27502V48.0134H10.4388V50.4905H13.9867V48.0134H15.1499V54.0117H13.9867Z" fill="#121118"/>
<path d="M19.7615 48.8822L18.359 51.7551H21.1567L19.7615 48.8822ZM22.2611 54.0117L21.5638 52.5764H17.9436L17.2379 54.0117H15.9922L19.1058 48.0181H20.4838L23.5808 54.0117H22.2611Z" fill="#121118"/>
<path d="M27.3187 48.8532H25.5907V50.6313H27.3187C28.2409 50.6313 28.631 50.3814 28.631 49.7325C28.631 49.1103 28.2409 48.8532 27.3187 48.8532ZM28.8481 54.0117C28.7724 53.6889 28.6978 53.2415 28.631 52.9821L28.4491 52.2436C28.2743 51.5535 28.025 51.4717 27.1362 51.4717H25.5907V54.0117H24.4275V48.0134H27.5931C29.1631 48.0134 29.8282 48.6467 29.8282 49.6256C29.8282 50.697 28.6644 51.0042 28.3912 51.0448C29.1136 51.1049 29.512 51.3053 29.6701 52.2347L29.886 53.2637C29.9445 53.5888 30.0274 53.8965 30.0853 54.0117H28.8481Z" fill="#121118"/>
<path d="M38.5405 54.0117V48.7733L36.092 54.0117H34.8213L32.3717 48.7733V54.0117H31.3346V48.0181H33.1775L35.5109 53.0497L37.8354 48.0181H39.67V54.0117H38.5405Z" fill="#121118"/>
<path d="M44.2874 48.8822L42.8833 51.7551H45.681L44.2874 48.8822ZM46.786 54.0117L46.087 52.5764H42.4679L41.7622 54.0117H40.5182L43.6296 48.0181H45.0092L48.1045 54.0117H46.786Z" fill="#121118"/>
<path d="M53.3814 54.0117L49.9999 49.0435V54.0117H48.9531V48.0134H50.5475L53.9285 52.9821V48.0134H54.9759V54.0117H53.3814Z" fill="#121118"/>
<path d="M2.21653 51.8795C1.70897 51.8795 1.37282 52.2051 1.37282 52.7505C1.37282 53.2948 1.68504 53.6065 2.21653 53.6065C2.73412 53.6065 3.05969 53.2676 3.05969 52.74C3.05969 52.2051 2.75248 51.8795 2.21653 51.8795ZM2.38405 54.0044C1.84309 54.0044 1.53644 53.8141 1.35446 53.5664C1.35446 53.6404 1.33609 53.8514 1.33108 53.9154H0.748383C0.753391 53.7896 0.767303 53.523 0.767303 53.42V50.5516H1.37282V51.9407C1.5971 51.6836 1.8904 51.4877 2.38962 51.4877C3.10143 51.4877 3.6986 51.9268 3.6986 52.7366C3.6986 53.5107 3.09753 54.0044 2.38405 54.0044Z" fill="#121118"/>
<path d="M5.39349 54.8057H4.72619L5.22096 53.9147L3.9437 51.5716H4.64272L5.55655 53.4021L6.41864 51.5716H7.06144L5.39349 54.8057Z" fill="#121118"/>
<path d="M45.587 31.7183H36.2578V12.9666H39.3364V29.0123C39.3364 29.8882 40.0482 30.6 40.9229 30.6C41.7994 30.6 42.5095 29.8882 42.5095 29.0123L42.5078 25.7475H45.587V31.7183ZM34.0178 19.2171C34.0178 20.1503 33.2015 21.8058 31.9897 21.8058C33.2015 21.8058 34.0178 22.8546 34.0178 23.6487V29.2692C34.0178 30.2251 33.2488 31.7183 30.9398 31.7183H24.7827V12.9666H30.9398C32.1288 12.9666 34.0178 13.9464 34.0178 16.0218V19.2171ZM22.4504 28.4529C22.4504 30.3203 21.2381 31.9974 17.7853 31.9974C14.3336 31.9974 13.1212 29.8053 13.1212 28.4529V25.7475H16.1993L16.2009 29.0123C16.2009 29.8882 16.9122 30.6 17.7875 30.6C18.6634 30.6 19.3724 29.8659 19.3724 28.9901L19.3718 12.9666H22.4504V28.4529ZM14.6605 20.1408C15.6437 20.1408 16.4412 20.9377 16.4412 21.9231C16.4412 22.9063 15.6437 23.7043 14.6605 23.7043C13.6762 23.7043 12.8793 22.9063 12.8793 21.9231C12.8793 20.9377 13.6762 20.1408 14.6605 20.1408ZM17.5061 12.9666L14.6605 19.4496L11.815 12.9666H17.5061ZM0.620117 44.7783H55.1013V-2.54539e-05H0.620117V44.7783ZM29.5407 14.7389H27.8612V21.0356L29.5407 21.0412C30.6601 21.0412 30.9398 20.8493 30.9398 17.9114C30.9398 14.973 30.6601 14.7389 29.5407 14.7389ZM29.727 22.6238H27.8612V30.1784L29.727 30.1829C30.9398 30.1829 30.9398 29.3615 30.9398 26.4242C30.9398 23.4847 30.9398 22.6238 29.727 22.6238Z" fill="#121118"/>
</svg>
