<svg width="165" height="41" viewBox="0 0 165 41" fill="none" xmlns="http://www.w3.org/2000/svg">
<path d="M0 0H20.4949V19.1867H0V0Z" fill="#121118"/>
<path d="M22.6749 0H43.1697V19.1867H22.6749V0Z" fill="#121118"/>
<path d="M0 21.3669H20.4949V40.5536H0V21.3669Z" fill="#121118"/>
<path d="M22.6749 21.3669H43.1697V40.5536H22.6749V21.3669Z" fill="#121118"/>
<path d="M61.7425 13.4255L60.7927 15.9521H60.7135C60.5552 15.3824 60.265 14.5154 59.79 13.475L54.6976 1.46145H49.7108V20.6089H53.0089V8.79346C53.0089 8.05035 53.0089 7.20816 52.9826 6.16781C52.9562 5.64763 52.9034 5.25131 52.877 4.95406H52.9562C53.1145 5.69717 53.2992 6.24212 53.4311 6.5889L59.5525 20.5594H61.8745L67.9431 6.46505C68.0751 6.14304 68.207 5.49901 68.3389 4.95406H68.4181C68.3389 6.36597 68.2862 7.62926 68.2598 8.39714V20.5346H71.769V1.41191H66.9669L61.7425 13.4255ZM75.0936 6.81183H78.5237V20.5346H75.0936V6.81183ZM76.8351 1.01558C76.2546 1.01558 75.7796 1.21375 75.3839 1.56053C74.9881 1.90731 74.777 2.35318 74.777 2.89813C74.777 3.4183 74.9881 3.86417 75.3839 4.21095C75.7796 4.55774 76.2546 4.73113 76.8351 4.73113C77.4155 4.73113 77.9169 4.53297 78.2863 4.21095C78.682 3.86417 78.8931 3.4183 78.8931 2.89813C78.8931 2.37795 78.682 1.93208 78.2863 1.56053C77.9433 1.21375 77.4419 1.01558 76.8351 1.01558ZM90.6875 6.68798C90.0542 6.56413 89.3946 6.48982 88.7613 6.48982C87.2046 6.48982 85.7798 6.81184 84.5924 7.45586C83.4051 8.09989 82.4552 8.99162 81.8483 10.1063C81.2151 11.2457 80.8984 12.5585 80.8984 14.0695C80.8984 15.3824 81.2151 16.5466 81.8219 17.6117C82.4288 18.652 83.2731 19.4942 84.4077 20.064C85.4895 20.6337 86.756 20.9309 88.1808 20.9309C89.8167 20.9309 91.2152 20.6089 92.3234 20.0144L92.3498 19.9896V17.0172L92.2178 17.1163C91.7165 17.4631 91.136 17.7603 90.5555 17.9337C89.9487 18.1319 89.3946 18.2309 88.9196 18.2309C87.5476 18.2309 86.4658 17.8594 85.7006 17.042C84.909 16.2493 84.5132 15.1594 84.5132 13.7971C84.5132 12.3852 84.909 11.2705 85.727 10.4531C86.5449 9.63565 87.6267 9.21455 88.946 9.21455C90.0542 9.21455 91.1888 9.56134 92.2178 10.2549L92.3498 10.354V7.20816L92.3234 7.18339C91.8748 7.01 91.3735 6.81183 90.6875 6.68798ZM102.007 6.5889C101.163 6.5889 100.371 6.8366 99.6849 7.35678C99.1044 7.80265 98.7087 8.44668 98.3656 9.21455H98.3393V6.81183H94.9091V20.5346H98.3393V13.5246C98.3393 12.3356 98.6031 11.3448 99.1836 10.6265C99.7641 9.88335 100.503 9.5118 101.4 9.5118C101.717 9.5118 102.033 9.58611 102.429 9.63565C102.798 9.73473 103.062 9.83381 103.247 9.95766L103.379 10.0567V6.83661L103.3 6.81183C103.062 6.66321 102.587 6.5889 102.007 6.5889ZM111.347 6.51459C108.946 6.51459 107.02 7.18339 105.674 8.49622C104.302 9.80904 103.643 11.6173 103.643 13.8961C103.643 16.0264 104.329 17.7603 105.648 19.0236C106.967 20.2621 108.762 20.9061 111.004 20.9061C113.353 20.9061 115.226 20.2373 116.572 18.8997C117.944 17.5622 118.603 15.7787 118.603 13.5741C118.603 11.3943 117.97 9.66042 116.677 8.39714C115.437 7.13385 113.616 6.51459 111.347 6.51459ZM114.091 17.0667C113.458 17.8346 112.456 18.2062 111.215 18.2062C109.975 18.2062 108.973 17.8346 108.26 17.0172C107.548 16.2493 107.205 15.1347 107.205 13.7228C107.205 12.2613 107.574 11.1466 108.26 10.354C108.973 9.56134 109.949 9.16502 111.189 9.16502C112.403 9.16502 113.353 9.53657 114.039 10.3044C114.725 11.0723 115.094 12.187 115.094 13.6484C115.041 15.1347 114.751 16.2989 114.091 17.0667ZM126.255 12.509C125.173 12.0879 124.487 11.7659 124.171 11.4934C123.907 11.2457 123.775 10.8989 123.775 10.4531C123.775 10.0815 123.933 9.70996 124.329 9.46226C124.725 9.21455 125.173 9.0907 125.833 9.0907C126.413 9.0907 127.02 9.18979 127.601 9.33841C128.181 9.48703 128.709 9.70996 129.131 10.0072L129.263 10.1063V7.08431L129.184 7.05954C128.788 6.91092 128.26 6.76229 127.627 6.63844C126.994 6.53936 126.413 6.48982 125.939 6.48982C124.303 6.48982 122.957 6.86138 121.902 7.6788C120.846 8.44668 120.345 9.48703 120.345 10.7008C120.345 11.3448 120.45 11.9145 120.688 12.3852C120.925 12.8558 121.268 13.3017 121.743 13.6732C122.218 14.02 122.904 14.4163 123.854 14.7879C124.646 15.1099 125.252 15.3576 125.622 15.5558C125.991 15.7539 126.229 15.9769 126.413 16.1502C126.545 16.3484 126.625 16.5961 126.625 16.9181C126.625 17.8346 125.886 18.2805 124.382 18.2805C123.801 18.2805 123.194 18.1814 122.482 17.9585C121.77 17.7355 121.11 17.4135 120.556 17.042L120.424 16.9429V20.0887L120.503 20.1135C121.004 20.3364 121.611 20.485 122.35 20.6584C123.089 20.7823 123.749 20.8814 124.329 20.8814C126.097 20.8814 127.548 20.5098 128.577 19.6924C129.632 18.8997 130.187 17.8842 130.187 16.5713C130.187 15.6548 129.923 14.8374 129.342 14.2182C128.577 13.6237 127.627 13.0044 126.255 12.509ZM139.237 6.51459C136.836 6.51459 134.91 7.18339 133.564 8.49622C132.218 9.80904 131.532 11.6173 131.532 13.8961C131.532 16.0264 132.218 17.7603 133.538 19.0236C134.857 20.2621 136.651 20.9061 138.894 20.9061C141.242 20.9061 143.115 20.2373 144.461 18.8997C145.833 17.5622 146.493 15.7787 146.493 13.5741C146.493 11.3943 145.86 9.66042 144.567 8.39714C143.327 7.13385 141.506 6.51459 139.237 6.51459ZM141.955 17.0667C141.321 17.8346 140.319 18.2062 139.078 18.2062C137.812 18.2062 136.836 17.8346 136.123 17.0172C135.411 16.2493 135.068 15.1347 135.068 13.7228C135.068 12.2613 135.437 11.1466 136.123 10.354C136.836 9.56134 137.812 9.16502 139.052 9.16502C140.239 9.16502 141.216 9.53657 141.902 10.3044C142.588 11.0723 142.957 12.187 142.957 13.6484C142.957 15.1347 142.614 16.2989 141.955 17.0667ZM164.831 9.46226V6.81183H161.374V2.7495L161.269 2.77427L157.997 3.69078L157.918 3.71555V6.81183H152.746V5.07791C152.746 4.28526 152.957 3.66601 153.327 3.26968C153.696 2.87336 154.25 2.67519 154.936 2.67519C155.411 2.67519 155.912 2.77427 156.467 2.99721L156.598 3.07152V0.272474L156.519 0.247703C156.044 0.0990812 155.411 0 154.593 0C153.564 0 152.667 0.222933 151.849 0.594487C151.031 1.01558 150.424 1.5853 149.976 2.35318C149.527 3.09629 149.29 3.93848 149.29 4.90452V6.81183H146.889V9.43749H149.29V20.5346H152.746V9.46226H157.918V16.5218C157.918 19.4199 159.369 20.8814 162.271 20.8814C162.746 20.8814 163.248 20.8071 163.723 20.7328C164.224 20.6337 164.593 20.5098 164.804 20.4107L164.831 20.386V17.7355L164.699 17.8346C164.488 17.9585 164.303 18.0576 163.986 18.1319C163.723 18.2062 163.485 18.2309 163.3 18.2309C162.614 18.2309 162.139 18.0823 161.796 17.7108C161.48 17.364 161.321 16.7943 161.321 15.9521V9.46226H164.831Z" fill="#121118"/>
<path d="M62.1328 39.5196C60.6135 40.3777 58.9254 40.8068 57.0684 40.8068C54.909 40.8068 53.1611 40.1105 51.8247 38.7178C50.4953 37.3251 49.8306 35.4822 49.8306 33.1891C49.8306 30.8469 50.5692 28.9266 52.0463 27.4284C53.5304 25.9232 55.4084 25.1705 57.6804 25.1705C59.3263 25.1705 60.7085 25.4378 61.8268 25.9724V27.9348C60.603 27.1611 59.154 26.7743 57.4799 26.7743C55.7848 26.7743 54.3956 27.3581 53.3124 28.5257C52.2291 29.6933 51.6875 31.2056 51.6875 33.0625C51.6875 34.9757 52.1905 36.481 53.1963 37.5783C54.2021 38.6685 55.5667 39.2136 57.29 39.2136C58.4717 39.2136 59.4951 38.978 60.3603 38.5067V34.2653H57.0473V32.6616H62.1328V39.5196Z" fill="#FEC71C"/>
<path d="M69.9404 40.8068C68.3437 40.8068 67.0671 40.3039 66.1105 39.298C65.1609 38.2852 64.6861 36.9452 64.6861 35.2782C64.6861 33.4635 65.182 32.0461 66.1738 31.0262C67.1655 30.0063 68.5055 29.4964 70.1936 29.4964C71.8044 29.4964 73.0599 29.9923 73.9603 30.984C74.8676 31.9758 75.3213 33.3509 75.3213 35.1094C75.3213 36.8327 74.8325 38.2148 73.8547 39.2558C72.8841 40.2898 71.5793 40.8068 69.9404 40.8068ZM70.067 30.9524C68.9557 30.9524 68.0764 31.3322 67.4293 32.0919C66.7822 32.8445 66.4586 33.8855 66.4586 35.2149C66.4586 36.4951 66.7857 37.5044 67.4399 38.243C68.094 38.9815 68.9697 39.3508 70.067 39.3508C71.1854 39.3508 72.0435 38.9886 72.6414 38.2641C73.2463 37.5396 73.5488 36.5091 73.5488 35.1727C73.5488 33.8222 73.2463 32.7812 72.6414 32.0497C72.0435 31.3181 71.1854 30.9524 70.067 30.9524Z" fill="#FEC71C"/>
<path d="M79.8159 40.5536H78.0856V24.5586H79.8159V40.5536Z" fill="#FEC71C"/>
<path d="M92.5402 40.5536H90.8099V38.7178H90.7677C89.9658 40.1105 88.7278 40.8068 87.0538 40.8068C85.6963 40.8068 84.6095 40.325 83.7936 39.3614C82.9847 38.3907 82.5802 37.0718 82.5802 35.4048C82.5802 33.6182 83.0304 32.1868 83.9308 31.1106C84.8311 30.0345 86.0304 29.4964 87.5286 29.4964C89.0127 29.4964 90.0924 30.0802 90.7677 31.2478H90.8099V24.5586H92.5402V40.5536ZM90.8099 35.6686V34.0754C90.8099 33.2032 90.5215 32.4647 89.9447 31.8597C89.3679 31.2548 88.6364 30.9524 87.7501 30.9524C86.6951 30.9524 85.8651 31.3392 85.2602 32.113C84.6552 32.8867 84.3528 33.9558 84.3528 35.3204C84.3528 36.5654 84.6412 37.5501 85.2179 38.2746C85.8018 38.9921 86.5825 39.3508 87.5602 39.3508C88.5239 39.3508 89.3046 39.0026 89.9025 38.3063C90.5074 37.6099 90.8099 36.7307 90.8099 35.6686Z" fill="#FEC71C"/>
<path d="M100.126 34.8351V40.5537H98.3533V25.4238H102.51C104.128 25.4238 105.38 25.8177 106.266 26.6055C107.16 27.3933 107.606 28.5047 107.606 29.9396C107.606 31.3745 107.11 32.5491 106.119 33.4635C105.134 34.3779 103.801 34.8351 102.12 34.8351H100.126ZM100.126 27.0275V33.2314H101.983C103.207 33.2314 104.139 32.9536 104.779 32.3979C105.426 31.8352 105.749 31.0439 105.749 30.024C105.749 28.0264 104.568 27.0275 102.204 27.0275H100.126Z" fill="#121118"/>
<path d="M117.229 40.5537H115.498V38.8655H115.456C114.704 40.1598 113.596 40.8069 112.133 40.8069C111.056 40.8069 110.212 40.522 109.6 39.9523C108.996 39.3825 108.693 38.6264 108.693 37.6838C108.693 35.6651 109.882 34.4905 112.259 34.1599L115.498 33.7062C115.498 31.8704 114.756 30.9524 113.272 30.9524C111.971 30.9524 110.796 31.3956 109.748 32.2818V30.5093C110.81 29.8341 112.034 29.4964 113.42 29.4964C115.959 29.4964 117.229 30.8399 117.229 33.5268V40.5537ZM115.498 35.0884L112.892 35.4471C112.09 35.5596 111.486 35.7601 111.078 36.0485C110.67 36.3298 110.466 36.8328 110.466 37.5572C110.466 38.0848 110.652 38.5174 111.025 38.855C111.405 39.1856 111.908 39.3509 112.534 39.3509C113.392 39.3509 114.099 39.0519 114.654 38.4541C115.217 37.8491 115.498 37.086 115.498 36.1645V35.0884Z" fill="#121118"/>
<path d="M126.123 31.5011C125.821 31.269 125.384 31.1529 124.815 31.1529C124.076 31.1529 123.457 31.5011 122.958 32.1974C122.465 32.8938 122.219 33.8434 122.219 35.0462V40.5537H120.489V29.7497H122.219V31.9759H122.261C122.508 31.2162 122.884 30.6254 123.39 30.2033C123.897 29.7743 124.463 29.5597 125.089 29.5597C125.539 29.5597 125.884 29.609 126.123 29.7074V31.5011Z" fill="#121118"/>
<path d="M133.013 40.4482C132.605 40.6732 132.067 40.7858 131.398 40.7858C129.506 40.7858 128.56 39.7307 128.56 37.6205V31.2268H126.703V29.7497H128.56V27.112L130.291 26.5528V29.7497H133.013V31.2268H130.291V37.3146C130.291 38.0391 130.414 38.556 130.66 38.8655C130.906 39.175 131.314 39.3298 131.884 39.3298C132.32 39.3298 132.696 39.2102 133.013 38.971V40.4482Z" fill="#121118"/>
<path d="M144.291 40.5537H142.561V34.392C142.561 32.099 141.724 30.9524 140.05 30.9524C139.185 30.9524 138.467 31.2795 137.898 31.9337C137.335 32.5808 137.054 33.4002 137.054 34.392V40.5537H135.323V29.7497H137.054V31.5433H137.096C137.912 30.1787 139.093 29.4964 140.641 29.4964C141.823 29.4964 142.726 29.8798 143.352 30.6465C143.978 31.4061 144.291 32.5069 144.291 33.9489V40.5537Z" fill="#121118"/>
<path d="M156.246 35.5842H148.617C148.645 36.787 148.969 37.7155 149.588 38.3696C150.207 39.0238 151.058 39.3509 152.141 39.3509C153.358 39.3509 154.477 38.9499 155.496 38.1481V39.7729C154.547 40.4622 153.291 40.8069 151.73 40.8069C150.203 40.8069 149.004 40.318 148.132 39.3403C147.26 38.3556 146.824 36.9734 146.824 35.1939C146.824 33.5128 147.298 32.1447 148.248 31.0896C149.205 30.0275 150.39 29.4964 151.804 29.4964C153.217 29.4964 154.311 29.9536 155.085 30.868C155.859 31.7824 156.246 33.052 156.246 34.6769V35.5842ZM154.473 34.1177C154.466 33.1189 154.223 32.3416 153.745 31.786C153.274 31.2303 152.616 30.9524 151.772 30.9524C150.956 30.9524 150.263 31.2443 149.693 31.8282C149.124 32.412 148.772 33.1751 148.638 34.1177H154.473Z" fill="#121118"/>
<path d="M164.507 31.5011C164.204 31.269 163.768 31.1529 163.198 31.1529C162.46 31.1529 161.841 31.5011 161.342 32.1974C160.849 32.8938 160.603 33.8434 160.603 35.0462V40.5537H158.873V29.7497H160.603V31.9759H160.645C160.891 31.2162 161.268 30.6254 161.774 30.2033C162.281 29.7743 162.847 29.5597 163.473 29.5597C163.923 29.5597 164.268 29.609 164.507 29.7074V31.5011Z" fill="#121118"/>
</svg>
