<svg width="194" height="33" viewBox="0 0 194 33" fill="none" xmlns="http://www.w3.org/2000/svg">
<g clip-path="url(#clip0)">
<path d="M39.0946 32.298C37.7592 32.3264 36.4646 31.8435 35.4837 30.951C34.5027 30.0585 33.9119 28.8261 33.8357 27.5133C33.742 24.6572 36.4511 21.8934 39.4227 21.8058C42.1318 21.7227 44.78 24.1497 44.855 26.7612C44.9347 29.5665 42.1459 32.2426 39.0946 32.298Z" fill="#121118"/>
<path d="M29.8282 26.8303C29.8282 29.5987 27.2785 32.2702 24.5647 32.344C23.9986 32.3659 23.4339 32.2744 22.9048 32.0751C22.3757 31.8759 21.8932 31.5729 21.4865 31.1847C21.0799 30.7964 20.7575 30.3309 20.5389 29.8164C20.3204 29.3019 20.2102 28.7491 20.2151 28.1914C20.2151 25.3262 22.9008 22.6178 25.7177 22.6547C26.8217 22.6824 27.8707 23.1353 28.6393 23.9161C29.4078 24.6968 29.8347 25.7431 29.8282 26.8303Z" fill="#121118"/>
<path d="M39.0946 19.0698C36.4089 19.0698 34.5856 17.4733 34.6184 15.1479C34.6513 12.661 37.4307 10.2525 40.1867 10.294C42.577 10.3309 44.4987 12.0842 44.4987 14.2251C44.4987 16.975 42.1833 19.0698 39.0946 19.0698Z" fill="#121118"/>
<path d="M25.7272 19.9555C23.604 19.9555 22.0713 18.5436 22.0666 16.6011C22.0666 14.1419 24.6445 11.6226 27.2224 11.5719C27.7099 11.5362 28.1996 11.6026 28.6592 11.7669C29.1188 11.9311 29.5378 12.1894 29.8885 12.5246C30.2393 12.8599 30.5139 13.2646 30.6942 13.7119C30.8745 14.1593 30.9564 14.6392 30.9345 15.12C30.9345 17.7177 28.5113 19.9693 25.7272 19.9555Z" fill="#121118"/>
<path d="M18.1201 26.9549C18.1529 29.6726 15.6828 32.3441 13.119 32.3579C11.1832 32.3579 9.79588 30.8768 9.75369 28.7359C9.69745 26.0644 12.0035 23.5683 14.5814 23.5083C15.0481 23.4891 15.5139 23.5647 15.9496 23.7307C16.3853 23.8966 16.7815 24.1491 17.1136 24.4726C17.4457 24.796 17.7065 25.1834 17.8796 25.6105C18.0528 26.0376 18.1347 26.4953 18.1201 26.9549Z" fill="#121118"/>
<path d="M39.3384 7.57161C37.0511 7.59468 35.5465 6.39504 35.4856 4.4987C35.4106 2.09481 37.7588 0.0600459 40.6742 6.4118e-05C42.9474 -0.0414617 44.4566 1.16279 44.5269 3.06836C44.5972 5.47225 42.2162 7.53931 39.3384 7.57161Z" fill="#121118"/>
<path d="M7.43827 27.3425C7.31641 29.8802 5.00101 32.3717 2.81216 32.3256C1.12951 32.2979 -0.150055 30.5262 -6.92522e-05 28.4775C0.149916 26.4289 2.67155 24.0066 4.68698 24.0389C6.43056 24.062 7.5367 25.4046 7.43827 27.3425Z" fill="#121118"/>
<path d="M28.6846 1.84564C30.6485 1.80873 31.9093 2.89301 31.9375 4.65555C31.9796 6.92102 29.458 9.22801 26.9598 9.22801C26.5503 9.25311 26.14 9.19406 25.755 9.05463C25.3699 8.91519 25.0186 8.69842 24.7232 8.4181C24.4279 8.13777 24.195 7.80002 24.0394 7.42631C23.8838 7.0526 23.8089 6.65112 23.8195 6.24738C23.8289 4.05112 26.2099 1.89639 28.6846 1.84564Z" fill="#121118"/>
<path d="M19.8215 16.2505C19.7324 18.456 17.1499 20.8922 14.9985 20.6846C13.194 20.5092 12.2097 19.3973 12.1863 17.6255C12.1863 15.4431 14.7032 13.0623 16.9249 13.0623C18.6544 13.0669 19.8965 14.4372 19.8215 16.2505Z" fill="#121118"/>
<path d="M16.5828 10.7506C15.2657 10.7506 14.1455 9.92935 14.0752 8.16681C13.9908 5.99824 16.5078 3.69125 18.8653 3.6405C20.6652 3.6082 21.6776 4.4987 21.8041 6.2151C21.9447 8.30523 19.3294 10.7137 16.5828 10.7506Z" fill="#121118"/>
<path d="M10.2647 16.7351C10.2647 19.1066 7.97738 21.4275 5.65729 21.3998C3.90433 21.3767 3.13565 20.4262 3.14034 18.756C3.14034 16.4813 5.55417 13.9805 7.72896 14.0036C9.21945 14.022 10.2647 15.1478 10.2647 16.7351Z" fill="#121118"/>
<path d="M10.1052 5.43541C11.666 5.49078 12.3269 6.35821 12.2378 7.82084C12.1207 9.82793 9.7537 11.9965 7.81326 11.8073C6.43527 11.6735 5.72753 10.8338 5.75096 9.50033C5.78377 7.44711 8.03824 5.38005 10.1052 5.43541Z" fill="#121118"/>
</g>
<path d="M58.6367 9.38579C61.2622 9.38579 62.575 10.8291 62.575 13.7157V20.5914H60.8125V13.8027C60.8125 12.7874 60.6095 12.0476 60.2033 11.5834C59.7972 11.1047 59.1589 10.8654 58.2886 10.8654C57.2732 10.8654 56.4609 11.1772 55.8516 11.801C55.2424 12.4247 54.9378 13.266 54.9378 14.3249V20.5914H53.1753V12.7148C53.1753 11.5834 53.1173 10.5607 53.0013 9.64689H54.6767L54.8507 11.6051C55.1844 10.8944 55.6848 10.3504 56.3521 9.97327C57.0193 9.58162 57.7809 9.38579 58.6367 9.38579Z" fill="#121118"/>
<path d="M69.7761 20.7437C68.7462 20.7437 67.8396 20.5116 67.0563 20.0474C66.273 19.5832 65.6638 18.9232 65.2286 18.0674C64.808 17.2116 64.5977 16.2107 64.5977 15.0647C64.5977 13.9188 64.808 12.9179 65.2286 12.0621C65.6638 11.2062 66.273 10.5462 67.0563 10.0821C67.8396 9.61788 68.7462 9.38579 69.7761 9.38579C70.806 9.38579 71.7126 9.61788 72.4959 10.0821C73.2792 10.5462 73.8812 11.2062 74.3019 12.0621C74.7371 12.9179 74.9546 13.9188 74.9546 15.0647C74.9546 16.2107 74.7371 17.2116 74.3019 18.0674C73.8812 18.9232 73.2792 19.5832 72.4959 20.0474C71.7126 20.5116 70.806 20.7437 69.7761 20.7437ZM69.7761 19.2859C70.8641 19.2859 71.6981 18.9305 72.2784 18.2197C72.8586 17.4944 73.1487 16.4428 73.1487 15.0647C73.1487 13.7302 72.8513 12.7003 72.2566 11.975C71.6619 11.2353 70.8351 10.8654 69.7761 10.8654C68.7027 10.8654 67.8687 11.2353 67.2739 11.975C66.6792 12.7003 66.3818 13.7302 66.3818 15.0647C66.3818 16.4428 66.6719 17.4944 67.2522 18.2197C67.8469 18.9305 68.6882 19.2859 69.7761 19.2859Z" fill="#121118"/>
<path d="M82.5106 9.38579C83.4679 9.38579 84.3165 9.62513 85.0563 10.1038C85.7961 10.5825 86.3691 11.257 86.7752 12.1273C87.1814 12.9832 87.3845 13.9768 87.3845 15.1082C87.3845 16.2397 87.1814 17.2333 86.7752 18.0891C86.3691 18.9305 85.7961 19.5832 85.0563 20.0474C84.331 20.5116 83.4825 20.7437 82.5106 20.7437C81.6547 20.7437 80.9077 20.5551 80.2695 20.178C79.6312 19.8008 79.1453 19.2641 78.8117 18.5678V25.2912H77.0492V12.7148C77.0492 11.5834 76.9912 10.5607 76.8752 9.64689H78.5506L78.7246 11.7575C79.0292 11.0032 79.5079 10.4229 80.1607 10.0168C80.8279 9.59612 81.6112 9.38579 82.5106 9.38579ZM82.1842 19.2859C83.2576 19.2859 84.0844 18.9232 84.6647 18.1979C85.2594 17.4727 85.5568 16.4428 85.5568 15.1082C85.5568 13.7737 85.2594 12.7366 84.6647 11.9968C84.0699 11.2425 83.2431 10.8654 82.1842 10.8654C81.0963 10.8654 80.2622 11.228 79.682 11.9533C79.1018 12.6786 78.8117 13.7157 78.8117 15.0647C78.8117 16.4138 79.1018 17.4582 79.682 18.1979C80.2622 18.9232 81.0963 19.2859 82.1842 19.2859Z" fill="#121118"/>
<path d="M96.558 20.7872C94.9914 20.7872 93.6206 20.4608 92.4457 19.8081C91.2852 19.1408 90.3931 18.2124 89.7694 17.023C89.1456 15.819 88.8338 14.4192 88.8338 12.8236C88.8338 11.2425 89.1456 9.85722 89.7694 8.66777C90.3931 7.4638 91.2852 6.53544 92.4457 5.88269C93.6206 5.22994 94.9914 4.90356 96.558 4.90356C97.5879 4.90356 98.567 5.06313 99.4954 5.38225C100.438 5.68687 101.207 6.12203 101.802 6.68775L100.736 9.12469C100.039 8.60249 99.3576 8.22534 98.6903 7.99325C98.0376 7.74666 97.3485 7.62336 96.6233 7.62336C95.2307 7.62336 94.1646 8.06578 93.4248 8.95062C92.685 9.83547 92.3151 11.1265 92.3151 12.8236C92.3151 14.5353 92.685 15.8408 93.4248 16.7401C94.1646 17.625 95.2307 18.0674 96.6233 18.0674C97.3485 18.0674 98.0376 17.9513 98.6903 17.7193C99.3576 17.4727 100.039 17.0883 100.736 16.5661L101.802 19.003C101.207 19.5687 100.438 20.0111 99.4954 20.3303C98.567 20.6349 97.5879 20.7872 96.558 20.7872Z" fill="#121118"/>
<path d="M108.369 20.7654C107.194 20.7654 106.164 20.5333 105.279 20.0692C104.409 19.605 103.734 18.9377 103.255 18.0674C102.791 17.1971 102.559 16.1817 102.559 15.0212C102.559 13.8608 102.791 12.8454 103.255 11.975C103.734 11.1047 104.409 10.4374 105.279 9.97327C106.164 9.50909 107.194 9.277 108.369 9.277C109.529 9.277 110.544 9.50909 111.415 9.97327C112.285 10.4374 112.952 11.1047 113.416 11.975C113.895 12.8454 114.135 13.8608 114.135 15.0212C114.135 16.1817 113.895 17.1971 113.416 18.0674C112.952 18.9377 112.285 19.605 111.415 20.0692C110.544 20.5333 109.529 20.7654 108.369 20.7654ZM108.369 18.2632C109.181 18.2632 109.797 17.9949 110.218 17.4582C110.653 16.9214 110.871 16.1091 110.871 15.0212C110.871 13.9478 110.653 13.1427 110.218 12.606C109.797 12.0548 109.181 11.7792 108.369 11.7792C107.542 11.7792 106.911 12.0548 106.476 12.606C106.04 13.1427 105.823 13.9478 105.823 15.0212C105.823 17.1825 106.671 18.2632 108.369 18.2632Z" fill="#121118"/>
<path d="M129.072 9.277C130.334 9.277 131.27 9.6614 131.879 10.4302C132.503 11.1845 132.814 12.3449 132.814 13.9115V20.5914H129.529V14.0203C129.529 13.2515 129.406 12.7003 129.159 12.3667C128.912 12.0186 128.506 11.8445 127.941 11.8445C127.273 11.8445 126.758 12.0766 126.396 12.5408C126.033 13.0049 125.852 13.6577 125.852 14.499V20.5914H122.566V14.0203C122.566 13.266 122.436 12.7148 122.175 12.3667C121.928 12.0186 121.529 11.8445 120.978 11.8445C120.311 11.8445 119.788 12.0766 119.411 12.5408C119.049 13.0049 118.867 13.6577 118.867 14.499V20.5914H115.582V12.7148C115.582 11.5399 115.524 10.4882 115.408 9.55986H118.497L118.693 11.2135C119.027 10.5898 119.491 10.1111 120.086 9.77744C120.695 9.44381 121.391 9.277 122.175 9.277C123.814 9.277 124.902 9.95876 125.438 11.3223C125.801 10.6985 126.301 10.2054 126.94 9.84272C127.592 9.46557 128.303 9.277 129.072 9.277Z" fill="#121118"/>
<path d="M148.244 9.277C149.506 9.277 150.442 9.6614 151.051 10.4302C151.675 11.1845 151.986 12.3449 151.986 13.9115V20.5914H148.701V14.0203C148.701 13.2515 148.578 12.7003 148.331 12.3667C148.084 12.0186 147.678 11.8445 147.113 11.8445C146.445 11.8445 145.93 12.0766 145.568 12.5408C145.205 13.0049 145.024 13.6577 145.024 14.499V20.5914H141.738V14.0203C141.738 13.266 141.608 12.7148 141.347 12.3667C141.1 12.0186 140.701 11.8445 140.15 11.8445C139.483 11.8445 138.96 12.0766 138.583 12.5408C138.221 13.0049 138.039 13.6577 138.039 14.499V20.5914H134.754V12.7148C134.754 11.5399 134.696 10.4882 134.58 9.55986H137.669L137.865 11.2135C138.199 10.5898 138.663 10.1111 139.258 9.77744C139.867 9.44381 140.563 9.277 141.347 9.277C142.986 9.277 144.074 9.95876 144.61 11.3223C144.973 10.6985 145.473 10.2054 146.112 9.84272C146.764 9.46557 147.475 9.277 148.244 9.277Z" fill="#121118"/>
<path d="M163.826 15.3476H156.559C156.617 16.3775 156.885 17.1318 157.364 17.6105C157.842 18.0746 158.553 18.3067 159.496 18.3067C160.062 18.3067 160.627 18.2124 161.193 18.0239C161.759 17.8353 162.281 17.5597 162.76 17.1971L163.63 19.4164C163.108 19.8371 162.455 20.1707 161.672 20.4173C160.903 20.6494 160.127 20.7654 159.344 20.7654C157.487 20.7654 156.029 20.2577 154.97 19.2423C153.911 18.2124 153.382 16.8127 153.382 15.043C153.382 13.926 153.607 12.9324 154.056 12.0621C154.521 11.1772 155.166 10.4955 155.993 10.0168C156.82 9.5236 157.755 9.277 158.8 9.277C160.352 9.277 161.578 9.7847 162.477 10.8001C163.376 11.801 163.826 13.1572 163.826 14.8689V15.3476ZM158.887 11.5834C158.263 11.5834 157.755 11.7647 157.364 12.1273C156.987 12.49 156.74 13.0194 156.624 13.7157H160.997C160.823 12.2942 160.12 11.5834 158.887 11.5834Z" fill="#121118"/>
<path d="M171.655 9.29876C172.119 9.29876 172.51 9.37129 172.83 9.51634L172.808 12.519C172.271 12.2724 171.734 12.1491 171.198 12.1491C170.327 12.1491 169.66 12.3885 169.196 12.8671C168.746 13.3313 168.521 13.9841 168.521 14.8254V20.5914H165.236V12.7148C165.236 11.5399 165.178 10.4882 165.062 9.55986H168.152L168.369 11.4528C168.645 10.7566 169.073 10.2271 169.653 9.86448C170.248 9.48733 170.915 9.29876 171.655 9.29876Z" fill="#121118"/>
<path d="M178.517 20.7654C176.718 20.7654 175.304 20.2577 174.274 19.2423C173.259 18.227 172.751 16.8417 172.751 15.0865C172.751 13.9405 172.998 12.9324 173.491 12.0621C173.984 11.1772 174.673 10.4955 175.558 10.0168C176.457 9.5236 177.494 9.277 178.669 9.277C179.467 9.277 180.243 9.4003 180.998 9.64689C181.752 9.89349 182.354 10.2271 182.803 10.6478L181.933 12.9324C181.498 12.5843 181.019 12.3159 180.497 12.1273C179.975 11.9243 179.467 11.8227 178.974 11.8227C178.075 11.8227 177.371 12.0983 176.863 12.6496C176.37 13.1863 176.124 13.9768 176.124 15.0212C176.124 16.0801 176.37 16.8852 176.863 17.4364C177.357 17.9731 178.06 18.2415 178.974 18.2415C179.467 18.2415 179.975 18.1472 180.497 17.9586C181.019 17.7555 181.498 17.4799 181.933 17.1318L182.803 19.4164C182.325 19.8371 181.701 20.1707 180.932 20.4173C180.163 20.6494 179.358 20.7654 178.517 20.7654Z" fill="#121118"/>
<path d="M193.613 15.3476H186.345C186.404 16.3775 186.672 17.1318 187.151 17.6105C187.629 18.0746 188.34 18.3067 189.283 18.3067C189.849 18.3067 190.414 18.2124 190.98 18.0239C191.546 17.8353 192.068 17.5597 192.547 17.1971L193.417 19.4164C192.895 19.8371 192.242 20.1707 191.459 20.4173C190.69 20.6494 189.914 20.7654 189.131 20.7654C187.274 20.7654 185.816 20.2577 184.757 19.2423C183.698 18.2124 183.169 16.8127 183.169 15.043C183.169 13.926 183.394 12.9324 183.843 12.0621C184.307 11.1772 184.953 10.4955 185.78 10.0168C186.607 9.5236 187.542 9.277 188.587 9.277C190.139 9.277 191.364 9.7847 192.264 10.8001C193.163 11.801 193.613 13.1572 193.613 14.8689V15.3476ZM188.674 11.5834C188.05 11.5834 187.542 11.7647 187.151 12.1273C186.773 12.49 186.527 13.0194 186.411 13.7157H190.784C190.61 12.2942 189.907 11.5834 188.674 11.5834Z" fill="#121118"/>
<defs>
<clipPath id="clip0">
<rect width="44.8598" height="32.3579" fill="white"/>
</clipPath>
</defs>
</svg>
