<svg width="50" height="50" viewBox="0 0 50 50" fill="none" xmlns="http://www.w3.org/2000/svg">
<path d="M0 10C0 4.47715 4.47715 0 10 0H40C45.5228 0 50 4.47715 50 10V40C50 45.5228 45.5228 50 40 50H10C4.47715 50 0 45.5228 0 40V10Z" fill="#FFA101"/>
<path d="M29.3232 16.8781C29.634 16.2455 30.4048 15.9777 30.9904 16.37C32.0198 17.0595 32.9088 17.9451 33.6041 18.9804C34.2994 20.0158 34.7829 21.1737 35.0316 22.3875C35.1731 23.078 34.6337 23.6902 33.9305 23.7385V23.7385C33.2273 23.7867 32.6296 23.2504 32.4547 22.5676C32.2577 21.7993 31.9309 21.067 31.4852 20.4034C31.0396 19.7398 30.4854 19.1602 29.8487 18.6872C29.2829 18.2669 29.0125 17.5107 29.3232 16.8781V16.8781Z" fill="white"/>
<path d="M31.1358 10.3149C31.428 9.64568 32.2103 9.33552 32.8548 9.67881C35.2771 10.9691 37.3572 12.8302 38.9103 15.109C40.4633 17.3877 41.4349 20.0044 41.7501 22.7308C41.8339 23.4561 41.2591 24.0709 40.5294 24.0981V24.0981C39.7997 24.1254 39.1924 23.5544 39.0981 22.8303C38.8081 20.6016 37.9978 18.4656 36.7252 16.5982C35.4525 14.7308 33.7607 13.1956 31.7924 12.1107C31.1529 11.7582 30.8436 10.9841 31.1358 10.3149V10.3149Z" fill="white"/>
<path d="M33.2701 30.7618L22.6628 14.5835C21.1832 18.5462 18.6146 22.0532 16.3688 24.0947C14.6527 25.6548 11.2589 27.3855 9.12072 29.7859C8.22415 31.0321 7.33993 33.7606 9.09295 36.0509C10.846 38.3411 13.6202 38.0834 14.9425 37.622C15.2111 37.4045 19.6479 41.8822 21.3016 42.9509C22.1621 43.2796 25.4969 41.6938 25.8198 40.2284C25.9544 39.406 25.4435 38.9726 24.1124 38.9804C20.5227 36.5366 19.186 34.6632 19.3531 34.5408C23.4142 31.5642 30.1417 30.9171 33.2701 30.7618Z" fill="white"/>
</svg>
