<svg width="50" height="50" viewBox="0 0 50 50" fill="none" xmlns="http://www.w3.org/2000/svg">
<path d="M49.125 25C49.125 24.7917 49.125 24.5833 49.125 24.375L46.1667 23.1667L48.875 21.3333C48.5 18.9583 47.8333 16.75 46.8333 14.6667L43.4583 14.7917L45.25 11.9167C44 9.95833 42.4583 8.25 40.7083 6.75L37.5417 8.29167L38.0417 4.79167C36.125 3.58333 34.0417 2.625 31.8333 1.95833L29.5417 4.70833L28.5417 1.25C27.4167 1.08333 26.2917 1 25.125 1C23.9583 1 22.8333 1.08333 21.7083 1.25L20.7083 4.70833L18.4167 1.95833C16.2083 2.625 14.0833 3.58333 12.2083 4.79167L12.7083 8.29167L9.54167 6.75C7.79167 8.25 6.25 10 5 11.9167L6.79167 14.7917L3.41667 14.6667C2.41667 16.75 1.70833 19 1.375 21.3333L4.08333 23.1667L1.125 24.375C1.125 24.5833 1.125 24.7917 1.125 25C1.125 27.2083 1.41667 29.375 2 31.4167L5 31.9583L2.91667 34.125C3.75 36.375 5 38.4583 6.54167 40.2917L9.375 39.5833L8.41667 42.2917C10.1667 43.9583 12.125 45.4167 14.3333 46.5L16.5417 44.7917L16.75 47.5417C19 48.375 21.375 48.875 23.875 49.0417L25.1667 46.625L26.4583 49.0417C28.9583 48.9167 31.3333 48.375 33.5833 47.5417L33.7917 44.7917L36 46.5C38.1667 45.4167 40.1667 43.9583 41.9167 42.2917L40.8333 39.5833L43.6667 40.2917C45.1667 38.4583 46.4167 36.375 47.3333 34.125L45.25 31.9583L48.25 31.4167C48.8333 29.375 49.125 27.25 49.125 25Z" stroke="#BDC5D1" stroke-width="1.34202" stroke-miterlimit="10" stroke-linecap="round" stroke-linejoin="round"/>
<path opacity="0.5" d="M38.0417 23.3752L35.125 23.1668L35.8333 20.3335C35.125 19.6668 34.3333 19.0418 33.4167 18.5835L30.9167 20.1252L29.7917 17.4168C29.2917 17.3335 28.7917 17.3335 28.2917 17.3335C27.7917 17.3335 27.2917 17.3752 26.7917 17.4168L25.6667 20.1252L23.1667 18.5835C22.2917 19.0418 21.4583 19.6668 20.75 20.3335L21.4583 23.1668L18.5417 23.3752C18.125 24.2502 17.7917 25.2085 17.625 26.2085L19.875 28.1252L17.625 30.0002C17.7917 31.0002 18.125 31.9585 18.5417 32.8335L21.4583 33.0418L20.75 35.8752C21.4583 36.5418 22.25 37.1668 23.1667 37.6252L25.6667 36.0835L26.7917 38.7918C27.2917 38.8752 27.7917 38.8752 28.2917 38.8752C28.7917 38.8752 29.2917 38.8335 29.7917 38.7918L30.9167 36.0835L33.4167 37.6252C34.2917 37.1668 35.125 36.5418 35.8333 35.8752L35.125 33.0418L38.0417 32.8335C38.4583 31.9585 38.7917 31.0002 38.9583 30.0002L36.7083 28.0835L38.9583 26.1668C38.7917 25.2085 38.5 24.2502 38.0417 23.3752Z" fill="#BDC5D1"/>
<path d="M34.7502 20.1668L31.8335 19.9585L32.5002 17.0835C31.7918 16.4168 31.0002 15.7918 30.0835 15.3335L27.5835 16.8752L26.5002 14.1668C26.0002 14.0835 25.5002 14.0835 25.0002 14.0835C24.5002 14.0835 24.0002 14.1252 23.5002 14.1668L22.3752 16.8752L19.8752 15.3335C19.0002 15.7918 18.1668 16.4168 17.4585 17.0835L18.1668 19.9168L15.2502 20.1252C14.8335 21.0002 14.5002 21.9585 14.3335 22.9585L16.5835 24.8752L14.3335 26.7918C14.5002 27.7918 14.8335 28.7502 15.2502 29.6252L18.1668 29.8335L17.5002 32.7085C18.2085 33.3752 19.0002 34.0002 19.9168 34.4585L22.4168 32.9168L23.5418 35.6252C24.0418 35.7085 24.5418 35.7085 25.0418 35.7085C25.5418 35.7085 26.0418 35.6668 26.5418 35.6252L27.6668 32.9168L30.1668 34.4585C31.0418 34.0002 31.8752 33.3752 32.5835 32.7085L31.8752 29.8752L34.7918 29.6668C35.2085 28.7918 35.5418 27.8335 35.7085 26.8335L33.4585 24.9168L35.7085 23.0002C35.5002 22.0002 35.1668 21.0418 34.7502 20.1668Z" fill="#FFA101"/>
<path d="M41.625 24.8333C41.625 24.8749 41.625 24.9583 41.625 24.9999" stroke="#FFA101" stroke-width="1.34202" stroke-miterlimit="10" stroke-linecap="round" stroke-linejoin="round"/>
<path d="M41.2917 21.6667C41.3751 22.0417 41.4584 22.4584 41.5001 22.8751" stroke="#FFA101" stroke-width="1.34202" stroke-miterlimit="10" stroke-linecap="round" stroke-linejoin="round"/>
<path d="M25.0835 8.5C32.0002 8.5 37.9585 12.75 40.3752 18.8333" stroke="#FFA101" stroke-width="1.34202" stroke-miterlimit="10" stroke-linecap="round" stroke-linejoin="round"/>
<path d="M9.0835 29.0833C8.75016 27.7917 8.5835 26.4167 8.5835 25" stroke="#FFA101" stroke-width="1.34202" stroke-miterlimit="10" stroke-linecap="round" stroke-linejoin="round"/>
<path d="M25.0833 41.5C18.6249 41.5 13.0416 37.7917 10.3333 32.375" stroke="#FFA101" stroke-width="1.34202" stroke-miterlimit="10" stroke-linecap="round" stroke-linejoin="round"/>
<path d="M25.0001 29.5834C27.6004 29.5834 29.7084 27.4754 29.7084 24.8751C29.7084 22.2747 27.6004 20.1667 25.0001 20.1667C22.3997 20.1667 20.2917 22.2747 20.2917 24.8751C20.2917 27.4754 22.3997 29.5834 25.0001 29.5834Z" stroke="white" stroke-width="1.34202" stroke-miterlimit="10" stroke-linecap="round" stroke-linejoin="round"/>
<path d="M27.9168 10.7917L25.0835 8.5L28.2918 6.75" stroke="#FFA101" stroke-width="1.34202" stroke-miterlimit="10" stroke-linecap="round" stroke-linejoin="round"/>
<path d="M22.0835 39.5L25.0835 41.5417L22.0835 43.5417" stroke="#FFA101" stroke-width="1.34202" stroke-miterlimit="10" stroke-linecap="round" stroke-linejoin="round"/>
</svg>
