<svg width="50" height="50" viewBox="0 0 50 50" fill="none" xmlns="http://www.w3.org/2000/svg">
<path d="M0 10C0 4.47715 4.47715 0 10 0H40C45.5228 0 50 4.47715 50 10V40C50 45.5228 45.5228 50 40 50H10C4.47715 50 0 45.5228 0 40V10Z" fill="#FFA101"/>
<path d="M10 14C10 12.8954 10.8954 12 12 12H39C40.1046 12 41 12.8954 41 14V14C41 15.1046 40.1046 16 39 16H12C10.8954 16 10 15.1046 10 14V14Z" fill="white"/>
<path d="M38 14C38 16.2091 36.2091 18 34 18C31.7909 18 30 16.2091 30 14C30 11.7909 31.7909 10 34 10C36.2091 10 38 11.7909 38 14Z" fill="white"/>
<path d="M10 26C10 24.8954 10.8954 24 12 24H39C40.1046 24 41 24.8954 41 26V26C41 27.1046 40.1046 28 39 28H12C10.8954 28 10 27.1046 10 26V26Z" fill="white"/>
<path d="M20 26C20 28.2091 18.2091 30 16 30C13.7909 30 12 28.2091 12 26C12 23.7909 13.7909 22 16 22C18.2091 22 20 23.7909 20 26Z" fill="white"/>
<path d="M10 38C10 36.8954 10.8954 36 12 36H39C40.1046 36 41 36.8954 41 38V38C41 39.1046 40.1046 40 39 40H12C10.8954 40 10 39.1046 10 38V38Z" fill="white"/>
<path d="M35 38C35 40.2091 33.2091 42 31 42C28.7909 42 27 40.2091 27 38C27 35.7909 28.7909 34 31 34C33.2091 34 35 35.7909 35 38Z" fill="white"/>
</svg>
