<svg width="51" height="50" viewBox="0 0 51 50" fill="none" xmlns="http://www.w3.org/2000/svg">
<path d="M0.136719 10C0.136719 4.47715 4.61387 0 10.1367 0H40.1367C45.6596 0 50.1367 4.47715 50.1367 10V40C50.1367 45.5228 45.6596 50 40.1367 50H10.1367C4.61387 50 0.136719 45.5228 0.136719 40V10Z" fill="#FFA101"/>
<path d="M14.2162 23.1424L30.5279 18.8021L19.2219 28.8019L20.4733 30.2167L31.7793 20.217L25.4789 35.8762L17.0539 38.2845L10.7968 31.2101L14.2162 23.1424Z" fill="white"/>
<path d="M35.5763 10.9252C35.99 10.5593 36.6219 10.5981 36.9878 11.0117L40.3004 14.757C40.6663 15.1707 40.6275 15.8027 40.2138 16.1686L36.4686 19.4811C36.0549 19.847 35.4229 19.8083 35.057 19.3946L31.7445 15.6493C31.3786 15.2356 31.4173 14.6037 31.831 14.2378L35.5763 10.9252Z" fill="white"/>
<path d="M15.5269 13.0157C15.2032 12.5015 15.3562 11.8188 15.8903 11.529C19.0266 9.82758 22.6286 9.15164 26.1854 9.61347C30.1069 10.1227 33.7283 11.983 36.426 14.8743C39.1238 17.7656 40.7292 21.5069 40.966 25.4543C41.1807 29.0345 40.2572 32.5811 38.3429 35.5922C38.0169 36.105 37.3253 36.2104 36.8347 35.8519V35.8519C36.3441 35.4935 36.2408 34.8071 36.5618 34.2912C38.1769 31.6959 38.9536 28.6552 38.7695 25.586C38.5634 22.1496 37.1658 18.8925 34.8172 16.3754C32.4686 13.8584 29.316 12.2388 25.9021 11.7955C22.853 11.3996 19.7658 11.9642 17.0651 13.3959C16.5282 13.6804 15.8506 13.53 15.5269 13.0157V13.0157Z" fill="white"/>
</svg>
