<svg width="50" height="50" viewBox="0 0 50 50" fill="none" xmlns="http://www.w3.org/2000/svg">
<g clip-path="url(#clip0)">
<path opacity="0.5" d="M49.0832 49.9998H31.0832C30.5832 49.9998 30.1665 49.5832 30.1665 49.0832V31.0832C30.1665 30.5832 30.5832 30.1665 31.0832 30.1665H49.0832C49.5832 30.1665 49.9998 30.5832 49.9998 31.0832V49.0832C49.9998 49.5832 49.5832 49.9998 49.0832 49.9998Z" fill="#BDC5D1"/>
<path d="M44.7916 46.2499H27.9999C27.2083 46.2499 26.5833 45.6249 26.5833 44.8333V27.9999C26.5833 27.2083 27.2083 26.5833 27.9999 26.5833H44.7916C45.5833 26.5833 46.2083 27.2083 46.2083 27.9999V44.7916C46.2083 45.6249 45.5833 46.2499 44.7916 46.2499Z" fill="#FFA101"/>
<path opacity="0.5" d="M39.7915 40.5416H34.9998C34.6248 40.5416 34.2915 40.2083 34.2915 39.8333V35.0416C34.2915 34.6666 34.6248 34.3333 34.9998 34.3333H39.7915C40.1665 34.3333 40.4998 34.6666 40.4998 35.0416V39.8333C40.4998 40.2083 40.2082 40.5416 39.7915 40.5416Z" fill="white"/>
<path d="M37.7498 38.5001H32.9998C32.6248 38.5001 32.2915 38.1667 32.2915 37.7917V33.0001C32.2915 32.6251 32.6248 32.2917 32.9998 32.2917H37.7915C38.1665 32.2917 38.4998 32.6251 38.4998 33.0001V37.7917C38.4582 38.1667 38.1665 38.5001 37.7498 38.5001Z" fill="white"/>
<path d="M11.9999 49.2498C18.1671 49.2498 23.1666 44.2503 23.1666 38.0832C23.1666 31.916 18.1671 26.9165 11.9999 26.9165C5.83274 26.9165 0.833252 31.916 0.833252 38.0832C0.833252 44.2503 5.83274 49.2498 11.9999 49.2498Z" stroke="#BDC5D1" stroke-width="1.34202" stroke-miterlimit="10" stroke-linecap="round" stroke-linejoin="round"/>
<path opacity="0.5" d="M13.0416 43.9582C15.5729 43.9582 17.6249 41.9061 17.6249 39.3748C17.6249 36.8435 15.5729 34.7915 13.0416 34.7915C10.5103 34.7915 8.45825 36.8435 8.45825 39.3748C8.45825 41.9061 10.5103 43.9582 13.0416 43.9582Z" fill="#BDC5D1"/>
<path d="M10.9583 41.3749C13.4896 41.3749 15.5417 39.3229 15.5417 36.7916C15.5417 34.2603 13.4896 32.2083 10.9583 32.2083C8.42703 32.2083 6.375 34.2603 6.375 36.7916C6.375 39.3229 8.42703 41.3749 10.9583 41.3749Z" fill="#FFA101"/>
<path d="M25.4582 20.4998L36.7498 0.916504C36.9582 0.583171 37.4582 0.583171 37.6665 0.916504L48.9582 20.4998C49.1665 20.8332 48.9165 21.2915 48.4999 21.2915H25.9165C25.4999 21.2915 25.2499 20.8332 25.4582 20.4998Z" stroke="#BDC5D1" stroke-width="1.34202" stroke-miterlimit="10" stroke-linecap="round" stroke-linejoin="round"/>
<path opacity="0.5" d="M35.875 17.1666L39.25 11.3333C39.375 11.1249 39.6666 11.1249 39.7916 11.3333L43.1666 17.1666C43.2916 17.3749 43.125 17.6249 42.9166 17.6249H36.125C35.875 17.6249 35.75 17.3749 35.875 17.1666Z" fill="#BDC5D1"/>
<path d="M33.0416 15.2083L36.4166 9.375C36.5416 9.16667 36.8332 9.16667 36.9582 9.375L40.3332 15.2083C40.4582 15.4167 40.2916 15.6667 40.0832 15.6667H33.3332C33.0832 15.6667 32.9582 15.4167 33.0416 15.2083Z" fill="#FFA101"/>
</g>
<defs>
<clipPath id="clip0">
<rect width="50" height="50" fill="white"/>
</clipPath>
</defs>
</svg>
