<svg width="51" height="50" viewBox="0 0 51 50" fill="none" xmlns="http://www.w3.org/2000/svg">
<path d="M0.136719 10C0.136719 4.47715 4.61387 0 10.1367 0H40.1367C45.6596 0 50.1367 4.47715 50.1367 10V40C50.1367 45.5228 45.6596 50 40.1367 50H10.1367C4.61387 50 0.136719 45.5228 0.136719 40V10Z" fill="#FFA101"/>
<g clip-path="url(#clip0)">
<path d="M37.559 19.431C37.559 19.4035 37.559 19.4035 37.559 19.376C37.5315 19.3211 37.5315 19.2661 37.504 19.2111V19.1837C37.4765 19.1287 37.4215 19.0737 37.3941 19.0462L37.3666 19.0188C37.3391 18.9913 37.2841 18.9638 37.2566 18.9363L37.2292 18.9088H37.2017L37.1742 18.8814L25.4939 13.0824C25.2741 12.9725 24.9993 12.9725 24.7519 13.0824L20.8218 15.0337L32.5571 21.0525L32.5845 21.08C32.612 21.08 32.612 21.1075 32.6395 21.1075C32.667 21.135 32.667 21.1624 32.6945 21.1899C32.6945 21.2174 32.6945 21.2174 32.6945 21.2449V21.2724V27.6484C32.6945 27.7583 32.6395 27.8408 32.5571 27.8958L30.1935 29.1325C30.0561 29.2149 29.8912 29.16 29.8088 29.0226C29.7813 28.9951 29.7813 28.9401 29.7813 28.8851V22.6465L17.9087 16.5178L17.8812 16.4903L13.1266 18.8539L13.0991 18.8814H13.0717L13.0442 18.9088C13.0167 18.9363 12.9617 18.9638 12.9342 18.9913L12.9068 19.0188C12.8518 19.0737 12.8243 19.1287 12.7693 19.1837V19.2111C12.7419 19.2661 12.7144 19.3211 12.7144 19.376C12.7144 19.4035 12.7144 19.4035 12.7144 19.431C12.7144 19.486 12.6869 19.5135 12.6869 19.5684V19.5959V32.403C12.6869 32.7053 12.8518 33.0076 13.1541 33.145L24.7244 38.9164C24.8893 38.9989 25.0817 39.0264 25.2741 38.9714L25.329 38.9439C25.384 38.9439 25.4115 38.9164 25.4665 38.8889L37.1192 33.1175C37.3941 32.9801 37.5864 32.7053 37.5864 32.3755V19.5959V19.5684C37.559 19.5135 37.559 19.486 37.559 19.431Z" fill="white"/>
</g>
<defs>
<clipPath id="clip0">
<rect width="26" height="26" fill="white" transform="translate(12.1367 13)"/>
</clipPath>
</defs>
</svg>
