<svg width="50" height="50" viewBox="0 0 50 50" fill="none" xmlns="http://www.w3.org/2000/svg">
<g clip-path="url(#clip0)">
<path d="M24.459 19.3548C24.1602 19.3548 23.9182 19.1263 23.9182 18.8442V15.4758C23.9182 13.7308 22.4138 12.3112 20.5646 12.3112C18.7154 12.3112 17.211 13.7308 17.211 15.4758V18.8442C17.211 19.126 16.9688 19.3545 16.6702 19.3545C16.3713 19.3545 16.1292 19.126 16.1292 18.8442V15.4758C16.1292 13.1677 18.119 11.2903 20.5646 11.2903C23.0103 11.2903 25.0001 13.168 25.0001 15.4758V18.8442C25.0001 19.1263 24.7579 19.3548 24.459 19.3548Z" fill="#D0D4DA"/>
<path d="M13.0915 17.7419H27.2307L29.0322 34.6774H11.2903L13.0915 17.7419Z" fill="#D0D4DA"/>
<path d="M0.937954 34.5583H0.925532V7.82759C0.925532 6.34615 2.32231 4.95776 4.29206 4.95776H45.7079C47.6777 4.95776 49.0745 6.34615 49.0745 7.82759V34.5583H49.0617H49.0418H49.0221H49.0025H48.983H48.9637H48.9445H48.9255H48.9066H48.8878H48.8691H48.8506H48.8322H48.8139H48.7958H48.7778H48.7599H48.7422H48.7246H48.7071H48.6897H48.6725H48.6554H48.6384H48.6215H48.6048H48.5882H48.5717H48.5553H48.5391H48.523H48.507H48.4911H48.4753H48.4597H48.4442H48.4288H48.4135H48.3983H48.3833H48.3683H48.3535H48.3388H48.3242H48.3098H48.2954H48.2811H48.267H48.253H48.2391H48.2253H48.2116H48.198H48.1845H48.1712H48.1579H48.1448H48.1317H48.1188H48.106H48.0933H48.0807H48.0681H48.0557H48.0434H48.0312H48.0191H48.0071H47.9953H47.9835H47.9718H47.9602H47.9487H47.9373H47.926H47.9148H47.9037H47.8927H47.8818H47.871H47.8603H47.8497H47.8391H47.8287H47.8184H47.8081H47.798H47.7879H47.7779H47.768H47.7583H47.7486H47.7389H47.7294H47.72H47.7106H47.7014H47.6922H47.6831H47.6741H47.6652H47.6563H47.6476H47.6389H47.6303H47.6218H47.6134H47.605H47.5968H47.5886H47.5805H47.5725H47.5645H47.5566H47.5489H47.5411H47.5335H47.5259H47.5184H47.511H47.5037H47.4964H47.4892H47.4821H47.4751H47.4681H47.4612H47.4543H47.4476H47.4409H47.4342H47.4277H47.4212H47.4148H47.4084H47.4021H47.3959H47.3897H47.3836H47.3776H47.3716H47.3657H47.3599H47.3541H47.3484H47.3427H47.3371H47.3316H47.3261H47.3207H47.3153H47.31H47.3047H47.2996H47.2944H47.2893H47.2843H47.2793H47.2744H47.2696H47.2647H47.26H47.2553H47.2506H47.246H47.2415H47.237H47.2325H47.2281H47.2237H47.2194H47.2152H47.2109H47.2068H47.2027H47.1986H47.1945H47.1905H47.1866H47.1827H47.1788H47.175H47.1712H47.1675H47.1638H47.1601H47.1565H47.1529H47.1494H47.1459H47.1424H47.139H47.1356H47.1322H47.1289H47.1256H47.1223H47.1191H47.1159H47.1128H47.1096H47.1065H47.1035H47.1004H47.0974H47.0945H47.0915H47.0886H47.0857H47.0828H47.08H47.0772H47.0744H47.0716H47.0689H47.0662H47.0635H47.0608H47.0582H47.0556H47.053H47.0504H47.0478H47.0453H47.0428H47.0403H47.0378H47.0353H47.0328H47.0304H47.028H47.0256H47.0232H47.0208H47.0185H47.0161H47.0138H47.0115H47.0092H47.0069H47.0046H47.0023H47H46.9978H46.9955H46.9933H46.991H46.9888H46.9866H46.9844H46.9821H46.9799H46.9777H46.9755H46.9733H46.9712H46.969H46.9668H46.9646H46.9624H46.9602H46.958H46.9558H46.9537H46.9515H46.9493H46.9471H46.9449H46.9427H46.9405H46.9382H46.936H46.9338H46.9316H46.9293H46.9271H46.9248H46.9226H46.9203H46.918H46.9157H46.9134H46.9111H46.9087H46.9064H46.904H46.9017H46.8993H46.8969H46.8945H46.8921H46.8896H46.8871H46.8847H46.8822H46.8797H46.8771H46.8746H46.872H46.8694H46.8668H46.8641H46.8615H46.8588H46.8561H46.8534H46.8506H46.8478H46.845H46.8422H46.8394H46.8365H46.8336H46.8306H46.8277H46.8247H46.8216H46.8186H46.8155H46.8124H46.8092H46.8061H46.8028H46.7996H46.7963H46.793H46.7897H46.7863H46.7829H46.7794H46.7759H46.7724H46.7688H46.7652H46.7616H46.7579H46.7542H46.7504H46.7466H46.7427H46.7388H46.7349H46.7309H46.7269H46.7228H46.7187H46.7146H46.7104H46.7061H46.7018H46.6975H46.6931H46.6887H46.6842H46.6797H46.6751H46.6704H46.6657H46.661H46.6562H46.6514H46.6465H46.6415H46.6365H46.6314H46.6263H46.6212H46.6159H46.6106H46.6053H46.5999H46.5944H46.5889H46.5833H46.5777H46.572H46.5662H46.5604H46.5545H46.5486H46.5426H46.5365H46.5304H46.5242H46.5179H46.5116H46.5052H46.4987H46.4922H46.4856H46.4789H46.4721H46.4653H46.4585H46.4515H46.4445H46.4374H46.4302H46.423H46.4157H46.4083H46.4008H46.3933H46.3857H46.378H46.3702H46.3624H46.3544H46.3465H46.3384H46.3302H46.322H46.3137H46.3053H46.2968H46.2882H46.2796H46.2709H46.2621H46.2532H46.2442H46.2351H46.226H46.2168H46.2074H46.198H46.1885H46.179H46.1693H46.1595H46.1497H46.1397H46.1297H46.1196H46.1094H46.0991H46.0887H46.0782H46.0676H46.0569H46.0461H46.0353H46.0243H46.0132H46.0021H45.9908H45.9795H45.968H45.9565H45.9448H45.933H45.9212H45.9092H45.8972H45.885H45.8728H45.8604H45.8479H45.8353H45.8227H45.8099H45.797H45.784H45.7709H45.7577H45.7443H45.7309H45.7174H45.7037H45.69H45.6761H45.6621H4.33789H4.32391H4.31004H4.29627H4.28261H4.26906H4.25562H4.24228H4.22905H4.21593H4.20291H4.18999H4.17718H4.16448H4.15187H4.13937H4.12697H4.11467H4.10247H4.09038H4.07838H4.06648H4.05468H4.04298H4.03138H4.01987H4.00846H3.99715H3.98593H3.97481H3.96378H3.95285H3.94201H3.93127H3.92061H3.91005H3.89958H3.8892H3.87892H3.86872H3.85861H3.84859H3.83866H3.82882H3.81906H3.80939H3.79981H3.79032H3.78091H3.77158H3.76234H3.75319H3.74411H3.73512H3.72621H3.71739H3.70864H3.69998H3.6914H3.68289H3.67447H3.66612H3.65785H3.64966H3.64155H3.63351H3.62555H3.61767H3.60986H3.60213H3.59447H3.58688H3.57937H3.57193H3.56456H3.55726H3.55003H3.54288H3.53579H3.52878H3.52183H3.51495H3.50814H3.50139H3.49472H3.48811H3.48156H3.47508H3.46867H3.46232H3.45603H3.44981H3.44365H3.43755H3.43152H3.42554H3.41963H3.41378H3.40798H3.40225H3.39657H3.39095H3.38539H3.37989H3.37444H3.36905H3.36372H3.35844H3.35321H3.34804H3.34292H3.33786H3.33285H3.32789H3.32298H3.31812H3.31331H3.30855H3.30384H3.29919H3.29457H3.29001H3.2855H3.28103H3.2766H3.27223H3.26789H3.26361H3.25937H3.25517H3.25101H3.2469H3.24283H3.2388H3.23481H3.23086H3.22695H3.22309H3.21926H3.21547H3.21172H3.208H3.20432H3.20068H3.19708H3.19351H3.18997H3.18647H3.18301H3.17958H3.17618H3.17281H3.16947H3.16617H3.1629H3.15965H3.15644H3.15326H3.1501H3.14697H3.14387H3.1408H3.13776H3.13474H3.13175H3.12878H3.12583H3.12291H3.12002H3.11715H3.1143H3.11147H3.10866H3.10588H3.10311H3.10037H3.09764H3.09494H3.09225H3.08958H3.08693H3.08429H3.08167H3.07907H3.07648H3.07391H3.07135H3.06881H3.06628H3.06376H3.06125H3.05876H3.05627H3.0538H3.05134H3.04889H3.04644H3.04401H3.04158H3.03917H3.03675H3.03435H3.03195H3.02956H3.02717H3.02479H3.02241H3.02003H3.01766H3.01529H3.01292H3.01055H3.00819H3.00582H3.00345H3.00109H2.99872H2.99635H2.99398H2.99161H2.98923H2.98685H2.98447H2.98208H2.97968H2.97728H2.97487H2.97246H2.97004H2.96761H2.96518H2.96273H2.96027H2.95781H2.95533H2.95285H2.95035H2.94784H2.94532H2.94279H2.94024H2.93767H2.9351H2.93251H2.9299H2.92728H2.92464H2.92198H2.9193H2.91661H2.9139H2.91117H2.90842H2.90565H2.90286H2.90005H2.89721H2.89436H2.89148H2.88858H2.88565H2.8827H2.87973H2.87673H2.8737H2.87065H2.86757H2.86446H2.86133H2.85816H2.85497H2.85175H2.8485H2.84522H2.84191H2.83856H2.83519H2.83178H2.82834H2.82486H2.82135H2.81781H2.81423H2.81061H2.80696H2.80327H2.79955H2.79579H2.79199H2.78815H2.78427H2.78035H2.77639H2.77239H2.76835H2.76427H2.76015H2.75598H2.75177H2.74751H2.74321H2.73887H2.73448H2.73005H2.72556H2.72104H2.71646H2.71183H2.70716H2.70244H2.69767H2.69285H2.68798H2.68305H2.67808H2.67305H2.66797H2.66284H2.65765H2.65241H2.64712H2.64177H2.63636H2.6309H2.62538H2.61981H2.61417H2.60848H2.60273H2.59692H2.59105H2.58512H2.57913H2.57308H2.56696H2.56078H2.55454H2.54824H2.54187H2.53544H2.52895H2.52238H2.51575H2.50906H2.5023H2.49547H2.48857H2.48161H2.47457H2.46747H2.46029H2.45304H2.44573H2.43834H2.43088H2.42335H2.41574H2.40806H2.4003H2.39247H2.38457H2.37659H2.36853H2.3604H2.35219H2.3439H2.33553H2.32708H2.31856H2.30995H2.30127H2.2925H2.28365H2.27472H2.26571H2.25661H2.24743H2.23817H2.22882H2.21939H2.20987H2.20027H2.19057H2.18079H2.17093H2.16097H2.15093H2.1408H2.13058H2.12026H2.10986H2.09937H2.08878H2.0781H2.06733H2.05647H2.04551H2.03446H2.02331H2.01206H2.00073H1.98929H1.97776H1.96613H1.9544H1.94257H1.93065H1.91862H1.9065H1.89427H1.88195H1.86952H1.85699H1.84436H1.83162H1.81878H1.80584H1.79279H1.77964H1.76638H1.75301H1.73954H1.72596H1.71228H1.69848H1.68458H1.67056H1.65644H1.64221H1.62786H1.61341H1.59884H1.58416H1.56937H1.55446H1.53944H1.52431H1.50906H1.49369H1.47821H1.46261H1.4469H1.43107H1.41512H1.39905H1.38286H1.36655H1.35012H1.33358H1.31691H1.30012H1.2832H1.26617H1.24901H1.23173H1.21432H1.19679H1.17913H1.16135H1.14344H1.1254H1.10724H1.08895H1.07053H1.05198H1.0333H1.01449H0.995556H0.976487H0.957286H0.937954Z" stroke="#EFF0F3" stroke-width="1.85106"/>
<mask id="path-4-inside-1" fill="white">
<path fill-rule="evenodd" clip-rule="evenodd" d="M50 34.6775V35.1867C50 37.5775 48.0572 39.5162 45.6613 39.5162H33.0157L33.8709 45.1613H17.7419L18.5971 39.5162H4.33751C1.94166 39.5162 0 37.5775 0 35.1867V34.6775H50ZM38.6085 49.7519V48.3794C38.6085 46.6022 37.1677 45.1613 35.3904 45.1613H15.316C13.5376 45.1613 12.0967 46.6022 12.0967 48.3794V49.7519H38.6085Z"/>
</mask>
<path d="M50 34.6775H51.8511V32.8264H50V34.6775ZM33.0157 39.5162V37.6651H30.8631L31.1855 39.7935L33.0157 39.5162ZM33.8709 45.1613V47.0124H36.0235L35.7011 44.8841L33.8709 45.1613ZM17.7419 45.1613L15.9117 44.8841L15.5893 47.0124H17.7419V45.1613ZM18.5971 39.5162L20.4272 39.7935L20.7497 37.6651H18.5971V39.5162ZM0 34.6775V32.8264H-1.85106V34.6775H0ZM38.6085 49.7519V51.603H40.4596V49.7519H38.6085ZM12.0967 49.7519H10.2457V51.603H12.0967V49.7519ZM51.8511 35.1867V34.6775H48.1489V35.1867H51.8511ZM45.6613 41.3673C49.0758 41.3673 51.8511 38.6035 51.8511 35.1867H48.1489C48.1489 36.5515 47.0386 37.6651 45.6613 37.6651V41.3673ZM33.0157 41.3673H45.6613V37.6651H33.0157V41.3673ZM35.7011 44.8841L34.8459 39.2389L31.1855 39.7935L32.0407 45.4386L35.7011 44.8841ZM17.7419 47.0124H33.8709V43.3103H17.7419V47.0124ZM16.7669 39.2389L15.9117 44.8841L19.5721 45.4386L20.4272 39.7935L16.7669 39.2389ZM4.33751 41.3673H18.5971V37.6651H4.33751V41.3673ZM-1.85106 35.1867C-1.85106 38.6029 0.92242 41.3673 4.33751 41.3673V37.6651C2.9609 37.6651 1.85106 36.5521 1.85106 35.1867H-1.85106ZM-1.85106 34.6775V35.1867H1.85106V34.6775H-1.85106ZM50 32.8264H0V36.5286H50V32.8264ZM36.7575 48.3794V49.7519H40.4596V48.3794H36.7575ZM35.3904 47.0124C36.1454 47.0124 36.7575 47.6245 36.7575 48.3794H40.4596C40.4596 45.5798 38.19 43.3103 35.3904 43.3103V47.0124ZM15.316 47.0124H35.3904V43.3103H15.316V47.0124ZM13.9478 48.3794C13.9478 47.6249 14.5594 47.0124 15.316 47.0124V43.3103C12.5157 43.3103 10.2457 45.5794 10.2457 48.3794H13.9478ZM13.9478 49.7519V48.3794H10.2457V49.7519H13.9478ZM38.6085 47.9009H12.0967V51.603H38.6085V47.9009Z" fill="#BDC5D1" mask="url(#path-4-inside-1)"/>
<path d="M9.05928 16.9353H23.1985L25 33.8708H7.25806L9.05928 16.9353Z" fill="#FFA101"/>
<path opacity="0.3" d="M19.2415 22.4138L14.6553 27" stroke="white" stroke-width="1.85106" stroke-miterlimit="10" stroke-linecap="round" stroke-linejoin="round"/>
<path opacity="0.3" d="M20.4943 27.5862L18.9656 29.1149" stroke="white" stroke-width="1.85106" stroke-miterlimit="10" stroke-linecap="round" stroke-linejoin="round"/>
<path d="M20.4266 19.3548C20.1277 19.3548 19.8858 19.1263 19.8858 18.8442V15.4758C19.8858 13.7308 18.3814 12.3112 16.5322 12.3112C14.683 12.3112 13.1786 13.7308 13.1786 15.4758V18.8442C13.1786 19.126 12.9364 19.3545 12.6378 19.3545C12.3389 19.3545 12.0967 19.126 12.0967 18.8442V15.4758C12.0967 13.1677 14.0865 11.2903 16.5322 11.2903C18.9778 11.2903 20.9676 13.168 20.9676 15.4758V18.8442C20.9676 19.1263 20.7255 19.3548 20.4266 19.3548Z" fill="#FFA101"/>
<path d="M40.5172 9.91375C40.5172 13.0086 38.0083 15.5172 34.9138 15.5172C31.8189 15.5172 29.3103 13.0086 29.3103 9.91375C29.3103 6.81919 31.8189 4.3103 34.9138 4.3103C38.0083 4.3103 40.5172 6.81919 40.5172 9.91375Z" fill="#BDC5D1"/>
<path d="M34.6622 12.0689C34.4532 12.0689 34.26 11.96 34.1581 11.784L31.9691 9.7514C31.8145 9.48423 31.9147 9.14717 32.1934 8.9988C32.4721 8.85044 32.8231 8.94658 32.9777 9.21403L34.5934 10.8039L36.8354 7.20817C36.9744 6.93327 37.3193 6.81861 37.6064 6.95233C37.8929 7.08606 38.0121 7.41732 37.8727 7.69222L35.181 11.7573C35.0869 11.9429 34.8931 12.0628 34.678 12.0686C34.6729 12.0686 34.6677 12.0689 34.6622 12.0689Z" fill="white"/>
<path d="M43.4456 19.6321H36.1088C35.6869 19.6321 35.3447 19.2899 35.3447 18.868C35.3447 18.4457 35.6869 18.1035 36.1088 18.1035H43.4456C43.8679 18.1035 44.2097 18.4457 44.2097 18.868C44.2097 19.2899 43.8675 19.6321 43.4456 19.6321Z" fill="#FFA101"/>
<path d="M44.5033 22.2183H38.6954C38.2731 22.2183 37.9309 21.8761 37.9309 21.4542C37.9309 21.0319 38.2731 20.6897 38.6954 20.6897H44.5033C44.9255 20.6897 45.2673 21.0319 45.2673 21.4542C45.2673 21.8761 44.9252 22.2183 44.5033 22.2183Z" fill="#FFA101"/>
<path d="M50.7546 20.3616C50.7546 20.8727 50.3403 21.2871 49.8291 21.2871C49.3179 21.2871 48.9036 20.8727 48.9036 20.3616C48.9036 19.8504 49.3179 19.436 49.8291 19.436C50.3403 19.436 50.7546 19.8504 50.7546 20.3616Z" fill="#FFA101"/>
</g>
<defs>
<clipPath id="clip0">
<rect width="50" height="50" fill="white"/>
</clipPath>
</defs>
</svg>
