<svg width="50" height="50" viewBox="0 0 50 50" fill="none" xmlns="http://www.w3.org/2000/svg">
<path d="M0 10C0 4.47715 4.47715 0 10 0H40C45.5228 0 50 4.47715 50 10V40C50 45.5228 45.5228 50 40 50H10C4.47715 50 0 45.5228 0 40V10Z" fill="#FFA101"/>
<path d="M21.785 10.2588C29.6536 8.74584 37.2684 14.0197 38.7491 22.0602C39.5106 26.2101 38.4952 30.2736 36.2954 33.4725L38.4529 40L31.6419 37.7521C30.2882 38.5302 28.8075 39.0922 27.2423 39.3948C19.3736 40.9078 11.7588 35.6339 10.2782 27.5934C8.71291 19.5529 13.9164 11.8151 21.785 10.2588Z" fill="white"/>
<path opacity="0.5" d="M30 27C31.1046 27 32 26.1046 32 25C32 23.8954 31.1046 23 30 23C28.8954 23 28 23.8954 28 25C28 26.1046 28.8954 27 30 27Z" fill="#FFA101"/>
<path opacity="0.5" d="M24 27C25.1046 27 26 26.1046 26 25C26 23.8954 25.1046 23 24 23C22.8954 23 22 23.8954 22 25C22 26.1046 22.8954 27 24 27Z" fill="#FFA101"/>
<path d="M18 27C19.1046 27 20 26.1046 20 25C20 23.8954 19.1046 23 18 23C16.8954 23 16 23.8954 16 25C16 26.1046 16.8954 27 18 27Z" fill="#FFA101"/>
</svg>
