<svg width="50" height="50" viewBox="0 0 50 50" fill="none" xmlns="http://www.w3.org/2000/svg">
<rect width="50" height="50" rx="10" fill="#F89D01"/>
<path opacity="0.5" fill-rule="evenodd" clip-rule="evenodd" d="M39.564 11.9327C37.4945 7.89635 32.5447 6.30193 28.5084 8.37143L8.17012 18.7993C6.69576 19.5552 6.11336 21.3633 6.8693 22.8376L13.014 34.8221C13.7699 36.2964 15.5779 36.8788 17.0523 36.1229L37.3906 25.695C41.4269 23.6255 43.0213 18.6758 40.9518 14.6395L39.564 11.9327ZM32.4761 20.2744C34.3735 20.6433 36.2108 19.4041 36.5797 17.5066C36.9486 15.6092 35.7095 13.7719 33.812 13.403C31.9145 13.0341 30.0773 14.2733 29.7084 16.1707C29.3395 18.0682 30.5786 19.9054 32.4761 20.2744Z" fill="white"/>
<path fill-rule="evenodd" clip-rule="evenodd" d="M36.4685 9.94684C32.8659 7.19076 27.7112 7.87698 24.9551 11.4796L11.0677 29.6324C10.0609 30.9483 10.3116 32.8312 11.6275 33.838L22.3242 42.0212C23.6401 43.0279 25.523 42.7773 26.5297 41.4614L40.4172 23.3085C43.1733 19.7059 42.4871 14.5512 38.8845 11.7951L36.4685 9.94684ZM33.6508 20.5243C35.5228 20.0424 36.6496 18.1343 36.1678 16.2623C35.6859 14.3903 33.7777 13.2634 31.9057 13.7453C30.0338 14.2272 28.9069 16.1354 29.3888 18.0073C29.8706 19.8793 31.7788 21.0062 33.6508 20.5243Z" fill="white"/>
</svg>
