<svg width="50" height="50" viewBox="0 0 50 50" fill="none" xmlns="http://www.w3.org/2000/svg">
<path d="M0 10C0 4.47715 4.47715 0 10 0H40C45.5228 0 50 4.47715 50 10V40C50 45.5228 45.5228 50 40 50H10C4.47715 50 0 45.5228 0 40V10Z" fill="#FFA101"/>
<path d="M17 14C17 12.3431 18.3431 11 20 11H31C32.6569 11 34 12.3431 34 14V36C34 37.6569 32.6569 39 31 39H20C18.3431 39 17 37.6569 17 36V14Z" fill="white"/>
<path d="M5 18C5 16.3431 6.34315 15 8 15H11C12.6569 15 14 16.3431 14 18V31C14 32.6569 12.6569 34 11 34H8C6.34315 34 5 32.6569 5 31V18Z" fill="white"/>
<path d="M37 18C37 16.3431 38.3431 15 40 15H43C44.6569 15 46 16.3431 46 18V31C46 32.6569 44.6569 34 43 34H40C38.3431 34 37 32.6569 37 31V18Z" fill="white"/>
</svg>
