<svg width="109" height="33" viewBox="0 0 109 33" fill="none" xmlns="http://www.w3.org/2000/svg">
<path d="M32.0587 16.0293C32.0587 24.8821 24.8821 32.0587 16.0293 32.0587C7.17658 32.0587 0 24.8821 0 16.0293C0 7.17658 7.17658 0 16.0293 0C24.8821 0 32.0587 7.17658 32.0587 16.0293Z" fill="#FFA101"/>
<path d="M16.1583 5.94532C11.4353 5.94532 7.46117 9.15125 6.29325 13.5056H4.29028C5.50062 8.06649 10.3546 4 16.1583 4C21.962 4 26.816 8.06649 28.0263 13.5056H26.0234C24.8554 9.15125 20.8813 5.94532 16.1583 5.94532Z" fill="white"/>
<path d="M15.9151 9.83595C13.502 9.83595 11.4458 11.3642 10.6617 13.5056H8.62451C9.47466 10.274 12.4165 7.89063 15.9151 7.89063C19.4136 7.89063 22.3555 10.274 23.2057 13.5056H21.1685C20.3843 11.3642 18.3282 9.83595 15.9151 9.83595Z" fill="white"/>
<path d="M24.861 21.5056C23.0634 24.4249 19.8381 26.3711 16.1582 26.3711C10.9416 26.3711 6.63841 22.4599 6.02126 17.41H28.3134V15.4616H5.9687L5.96922 15.454H4.02006C4.00675 15.687 4 15.9218 4 16.1582C4 22.873 9.44342 28.3165 16.1582 28.3165C20.9543 28.3165 25.1018 25.5394 27.0804 21.5056H24.861Z" fill="white"/>
<path d="M44.8032 9.48951C45.2342 9.59571 45.6996 9.64882 46.1994 9.64882C46.7492 9.64882 47.2302 9.56448 47.6426 9.3958C48.0611 9.22088 48.386 8.97723 48.6171 8.66487C48.8483 8.34625 48.9639 7.98079 48.9639 7.56847C48.9639 7.23736 48.892 6.94998 48.7483 6.70634C48.6046 6.46269 48.361 6.25029 48.0174 6.06911C47.6738 5.88169 47.2021 5.72239 46.6024 5.59119C46.2338 5.51623 45.9558 5.44438 45.7684 5.37566C45.5809 5.3007 45.4529 5.22573 45.3842 5.15076C45.3154 5.07579 45.2811 4.97896 45.2811 4.86026C45.2811 4.66035 45.3779 4.50104 45.5716 4.38234C45.7652 4.2574 46.0214 4.19492 46.34 4.19492C46.5711 4.19492 46.7836 4.21991 46.9772 4.26989C47.1771 4.31362 47.3489 4.3761 47.4926 4.45731C47.6426 4.53228 47.7331 4.57913 47.7644 4.59787C47.8893 4.67284 47.9862 4.72282 48.0549 4.74781C48.1236 4.76655 48.1986 4.77592 48.2798 4.77592C48.4297 4.77592 48.5578 4.7072 48.664 4.56976C48.7764 4.43232 48.8327 4.26989 48.8327 4.08247C48.8327 3.95128 48.8077 3.84195 48.7577 3.75449C48.714 3.66078 48.6359 3.57332 48.5234 3.4921C48.2298 3.27969 47.9049 3.12351 47.5488 3.02355C47.1927 2.9236 46.7867 2.87362 46.3306 2.87362C45.8121 2.87362 45.3435 2.96733 44.925 3.15475C44.5127 3.33592 44.1878 3.58894 43.9504 3.91379C43.713 4.23865 43.5943 4.601 43.5943 5.00083C43.5943 5.35067 43.663 5.65054 43.8005 5.90044C43.9442 6.14408 44.1909 6.35649 44.5408 6.53766C44.8906 6.71883 45.3748 6.87502 45.9933 7.00621C46.4931 7.10617 46.8304 7.20925 47.0053 7.31545C47.1865 7.41541 47.2771 7.53723 47.2771 7.68092C47.2771 7.89333 47.1803 8.05576 46.9866 8.16821C46.7992 8.27441 46.5212 8.32751 46.1526 8.32751C45.834 8.32751 45.5466 8.29628 45.2904 8.2338C45.0406 8.17133 44.7875 8.06825 44.5314 7.92456C44.4189 7.85584 44.3252 7.80899 44.2503 7.784C44.1753 7.75901 44.0972 7.74651 44.016 7.74651C43.8661 7.74651 43.7349 7.81523 43.6224 7.95267C43.51 8.09012 43.4537 8.25254 43.4537 8.43996C43.4537 8.5774 43.4756 8.68986 43.5193 8.77732C43.5693 8.86478 43.6474 8.94912 43.7536 9.03033C44.0285 9.224 44.3783 9.37706 44.8032 9.48951Z" fill="#222222"/>
<path d="M40.4126 9.3958C40.5688 9.54574 40.7781 9.6207 41.0405 9.6207C41.3091 9.6207 41.5215 9.54574 41.6777 9.3958C41.8339 9.23962 41.912 9.03033 41.912 8.76795V3.75449C41.912 3.49835 41.8339 3.29531 41.6777 3.14538C41.5215 2.98919 41.3091 2.9111 41.0405 2.9111C40.7781 2.9111 40.5688 2.98919 40.4126 3.14538C40.2627 3.29531 40.1877 3.49835 40.1877 3.75449V8.76795C40.1877 9.03033 40.2627 9.23962 40.4126 9.3958Z" fill="#222222"/>
<path fill-rule="evenodd" clip-rule="evenodd" d="M51.3447 9.56448C51.0885 9.56448 50.8917 9.49576 50.7543 9.35832C50.6169 9.22088 50.5481 9.02409 50.5481 8.76795V3.75449C50.5481 3.49835 50.6169 3.30156 50.7543 3.16412C50.8917 3.02668 51.0885 2.95796 51.3447 2.95796H53.2376C53.9685 2.95796 54.5964 3.09227 55.1212 3.36091C55.6522 3.6233 56.0583 4.00126 56.3394 4.49479C56.6205 4.98833 56.7611 5.57558 56.7611 6.25653C56.7611 6.94374 56.6205 7.53723 56.3394 8.03701C56.0645 8.53055 55.6616 8.90851 55.1305 9.1709C54.6058 9.43329 53.9748 9.56448 53.2376 9.56448H51.3447ZM53.1158 8.17758C53.7592 8.17758 54.2403 8.0214 54.5589 7.70903C54.8838 7.39042 55.0462 6.90625 55.0462 6.25653C55.0462 5.60681 54.8838 5.12577 54.5589 4.81341C54.2403 4.50104 53.7592 4.34486 53.1158 4.34486H52.2724V8.17758H53.1158Z" fill="#222222"/>
<path d="M64.2244 8.8148C64.2244 8.60864 64.1432 8.42747 63.9808 8.27129L61.9005 6.13471L63.8215 4.25115C64.0027 4.07622 64.0933 3.88568 64.0933 3.67952C64.0933 3.47336 64.0152 3.29531 63.859 3.14538C63.7028 2.98919 63.5216 2.9111 63.3155 2.9111C63.1093 2.9111 62.925 2.99544 62.7626 3.16412L60.1293 5.8161V3.75449C60.1293 3.49835 60.0513 3.29531 59.8951 3.14538C59.7389 2.98919 59.5265 2.9111 59.2578 2.9111C58.9955 2.9111 58.7862 2.98919 58.63 3.14538C58.4801 3.29531 58.4051 3.49835 58.4051 3.75449V8.76795C58.4051 9.03033 58.4801 9.23962 58.63 9.3958C58.7862 9.54574 58.9955 9.6207 59.2578 9.6207C59.5265 9.6207 59.7389 9.54574 59.8951 9.3958C60.0513 9.23962 60.1293 9.03033 60.1293 8.76795V6.5564L62.8001 9.29272C62.9937 9.49263 63.2061 9.59259 63.4373 9.59259C63.6497 9.59259 63.834 9.5145 63.9902 9.35832C64.1464 9.20214 64.2244 9.02096 64.2244 8.8148Z" fill="#222222"/>
<path d="M40.9843 18.5976C40.7281 18.5976 40.5313 18.5289 40.3939 18.3914C40.2565 18.254 40.1877 18.0572 40.1877 17.8011V12.7876C40.1877 12.5315 40.2565 12.3347 40.3939 12.1972C40.5313 12.0598 40.7281 11.9911 40.9843 11.9911H44.2266C44.4953 11.9911 44.6983 12.0473 44.8357 12.1597C44.9732 12.2722 45.0419 12.4346 45.0419 12.647C45.0419 13.0968 44.7701 13.3217 44.2266 13.3217H41.8651V14.5775H44.0392C44.5827 14.5775 44.8545 14.7992 44.8545 15.2428C44.8545 15.4552 44.7858 15.6176 44.6483 15.7301C44.5109 15.8425 44.3078 15.8988 44.0392 15.8988H41.8651V17.2669H44.2266C44.7701 17.2669 45.0419 17.4918 45.0419 17.9416C45.0419 18.154 44.9732 18.3165 44.8357 18.4289C44.6983 18.5414 44.4953 18.5976 44.2266 18.5976H40.9843Z" fill="#222222"/>
<path d="M46.1647 16.0768C46.1647 16.5141 46.424 16.7328 46.9425 16.7328H48.7043C48.9666 16.7328 49.1603 16.6765 49.2853 16.5641C49.4164 16.4454 49.482 16.283 49.482 16.0768C49.482 15.8706 49.4164 15.7113 49.2853 15.5989C49.1603 15.4864 48.9666 15.4302 48.7043 15.4302H46.9425C46.424 15.4302 46.1647 15.6457 46.1647 16.0768Z" fill="#222222"/>
<path d="M54.2546 18.6819C53.5924 18.6819 53.0114 18.5445 52.5116 18.2696C52.018 17.9947 51.6338 17.6011 51.3589 17.0889C51.0903 16.5766 50.956 15.9769 50.956 15.2896C50.956 14.6087 51.0903 14.0121 51.3589 13.4998C51.6338 12.9875 52.018 12.5939 52.5116 12.3191C53.0114 12.0442 53.5924 11.9067 54.2546 11.9067C55.048 11.9067 55.7445 12.116 56.3443 12.5346C56.4505 12.6096 56.5255 12.6908 56.5692 12.7782C56.6192 12.8657 56.6442 12.9781 56.6442 13.1156C56.6442 13.3093 56.5879 13.4748 56.4755 13.6122C56.3693 13.7434 56.2381 13.809 56.0819 13.809C55.9882 13.809 55.9039 13.7965 55.8289 13.7716C55.7539 13.7403 55.6665 13.6935 55.5665 13.631C55.3478 13.4998 55.1417 13.4061 54.948 13.3499C54.7543 13.2936 54.5544 13.2655 54.3483 13.2655C53.7923 13.2655 53.3768 13.4342 53.1019 13.7716C52.8333 14.1027 52.699 14.6087 52.699 15.2896C52.699 15.9769 52.8333 16.4891 53.1019 16.8265C53.3768 17.1576 53.7923 17.3231 54.3483 17.3231C54.5357 17.3231 54.7169 17.295 54.8918 17.2388C55.0667 17.1763 55.2916 17.0826 55.5665 16.9577C55.6977 16.889 55.7945 16.8421 55.857 16.8171C55.9195 16.7921 55.9944 16.7796 56.0819 16.7796C56.2381 16.7796 56.3693 16.8483 56.4755 16.9858C56.5879 17.117 56.6442 17.2794 56.6442 17.4731C56.6442 17.6043 56.6192 17.7167 56.5692 17.8104C56.5255 17.8979 56.4505 17.9791 56.3443 18.0541C55.7445 18.4726 55.048 18.6819 54.2546 18.6819Z" fill="#222222"/>
<path fill-rule="evenodd" clip-rule="evenodd" d="M59.3159 18.2696C59.8157 18.5445 60.4029 18.6819 61.0776 18.6819C61.7461 18.6819 62.3271 18.5445 62.8206 18.2696C63.3204 17.9885 63.7046 17.5949 63.9733 17.0889C64.2419 16.5766 64.3762 15.9769 64.3762 15.2896C64.3762 14.6024 64.2419 14.0058 63.9733 13.4998C63.7109 12.9875 63.3298 12.5939 62.83 12.3191C62.3365 12.0442 61.7523 11.9067 61.0776 11.9067C60.4029 11.9067 59.8157 12.0442 59.3159 12.3191C58.8224 12.5939 58.4413 12.9875 58.1726 13.4998C57.904 14.0058 57.7697 14.6024 57.7697 15.2896C57.7697 15.9769 57.904 16.5766 58.1726 17.0889C58.4413 17.5949 58.8224 17.9885 59.3159 18.2696ZM62.249 16.8359C61.9679 17.1857 61.5774 17.3606 61.0776 17.3606C60.5779 17.3606 60.1874 17.1857 59.9063 16.8359C59.6251 16.486 59.4846 15.9706 59.4846 15.2896C59.4846 14.6087 59.6251 14.0964 59.9063 13.7528C60.1874 13.403 60.5779 13.228 61.0776 13.228C61.5712 13.228 61.9585 13.403 62.2396 13.7528C62.527 14.1027 62.6707 14.6149 62.6707 15.2896C62.6707 15.9644 62.5301 16.4798 62.249 16.8359Z" fill="#222222"/>
<path d="M71.872 11.9442C72.1094 11.9442 72.3031 12.0223 72.453 12.1785C72.603 12.3347 72.6779 12.5377 72.6779 12.7876V17.8854C72.6779 18.1228 72.6092 18.3102 72.4718 18.4477C72.3343 18.5851 72.1532 18.6538 71.9283 18.6538C71.7096 18.6538 71.5284 18.5851 71.3847 18.4477C71.2473 18.3102 71.1786 18.1228 71.1786 17.8854V15.1303L70.1103 17.0982C70.0041 17.2982 69.8916 17.4418 69.7729 17.5293C69.6542 17.6105 69.5137 17.6511 69.3512 17.6511C69.1888 17.6511 69.0482 17.6105 68.9295 17.5293C68.8108 17.4418 68.6984 17.2982 68.5922 17.0982L67.5333 15.1866V17.8854C67.5333 18.1165 67.4614 18.304 67.3177 18.4477C67.1803 18.5851 66.9991 18.6538 66.7742 18.6538C66.5556 18.6538 66.3744 18.5851 66.2307 18.4477C66.0933 18.3102 66.0246 18.1228 66.0246 17.8854V12.7876C66.0246 12.5377 66.0995 12.3347 66.2495 12.1785C66.4056 12.0223 66.6024 11.9442 66.8398 11.9442C67.0085 11.9442 67.1616 11.9942 67.299 12.0942C67.4364 12.1879 67.552 12.3253 67.6457 12.5065L69.37 15.7488L71.0849 12.5065C71.2785 12.1316 71.5409 11.9442 71.872 11.9442Z" fill="#222222"/>
<path d="M80.9506 12.1785C80.8006 12.0223 80.607 11.9442 80.3696 11.9442C80.0385 11.9442 79.7761 12.1316 79.5824 12.5065L77.8675 15.7488L76.1433 12.5065C76.0496 12.3253 75.934 12.1879 75.7965 12.0942C75.6591 11.9942 75.5061 11.9442 75.3374 11.9442C75.1 11.9442 74.9032 12.0223 74.747 12.1785C74.5971 12.3347 74.5221 12.5377 74.5221 12.7876V17.8854C74.5221 18.1228 74.5908 18.3102 74.7283 18.4477C74.8719 18.5851 75.0531 18.6538 75.2718 18.6538C75.4967 18.6538 75.6779 18.5851 75.8153 18.4477C75.959 18.304 76.0308 18.1165 76.0308 17.8854V15.1866L77.0897 17.0982C77.1959 17.2982 77.3084 17.4418 77.4271 17.5293C77.5458 17.6105 77.6864 17.6511 77.8488 17.6511C78.0112 17.6511 78.1518 17.6105 78.2705 17.5293C78.3892 17.4418 78.5016 17.2982 78.6078 17.0982L79.6761 15.1303V17.8854C79.6761 18.1228 79.7448 18.3102 79.8823 18.4477C80.026 18.5851 80.2071 18.6538 80.4258 18.6538C80.6507 18.6538 80.8319 18.5851 80.9693 18.4477C81.1068 18.3102 81.1755 18.1228 81.1755 17.8854V12.7876C81.1755 12.5377 81.1005 12.3347 80.9506 12.1785Z" fill="#222222"/>
<path d="M83.7974 18.5976C83.5413 18.5976 83.3445 18.5289 83.2071 18.3914C83.0696 18.254 83.0009 18.0572 83.0009 17.8011V12.7876C83.0009 12.5315 83.0696 12.3347 83.2071 12.1972C83.3445 12.0598 83.5413 11.9911 83.7974 11.9911H87.0398C87.3084 11.9911 87.5115 12.0473 87.6489 12.1597C87.7863 12.2722 87.8551 12.4346 87.8551 12.647C87.8551 13.0968 87.5833 13.3217 87.0398 13.3217H84.6783V14.5775H86.8524C87.3959 14.5775 87.6676 14.7992 87.6676 15.2428C87.6676 15.4552 87.5989 15.6176 87.4615 15.7301C87.324 15.8425 87.121 15.8988 86.8524 15.8988H84.6783V17.2669H87.0398C87.5833 17.2669 87.8551 17.4918 87.8551 17.9416C87.8551 18.154 87.7863 18.3165 87.6489 18.4289C87.5115 18.5414 87.3084 18.5976 87.0398 18.5976H83.7974Z" fill="#222222"/>
<path fill-rule="evenodd" clip-rule="evenodd" d="M94.9271 17.9791C94.9271 17.8292 94.8709 17.6699 94.7584 17.5012L94.1774 16.6672C94.0275 16.4548 93.8744 16.2955 93.7183 16.1893C93.5683 16.0831 93.3903 16.0143 93.1841 15.9831C93.6839 15.8644 94.0712 15.6332 94.3461 15.2896C94.621 14.9398 94.7584 14.515 94.7584 14.0152C94.7584 13.3592 94.5554 12.8594 94.1493 12.5158C93.7495 12.166 93.1498 11.9911 92.3501 11.9911H89.998C89.7419 11.9911 89.5451 12.0598 89.4076 12.1972C89.2702 12.3347 89.2015 12.5315 89.2015 12.7876V17.8011C89.2015 18.0634 89.2764 18.2727 89.4264 18.4289C89.5826 18.5788 89.7918 18.6538 90.0542 18.6538C90.3166 18.6538 90.5228 18.5788 90.6727 18.4289C90.8226 18.2727 90.8976 18.0634 90.8976 17.8011V16.1237H91.5067C91.6379 16.1237 91.7504 16.1549 91.8441 16.2174C91.944 16.2736 92.0377 16.3642 92.1252 16.4891L93.3434 18.2696C93.4371 18.407 93.5496 18.5101 93.6808 18.5789C93.812 18.6476 93.9525 18.6819 94.1025 18.6819C94.3211 18.6819 94.5117 18.6163 94.6741 18.4851C94.8428 18.3477 94.9271 18.179 94.9271 17.9791ZM92.8936 14.6524C92.7312 14.7711 92.4594 14.8305 92.0784 14.8305H90.8789V13.2936H92.0784C92.4594 13.2936 92.7312 13.3561 92.8936 13.4811C93.0623 13.5998 93.1466 13.7965 93.1466 14.0714C93.1466 14.3401 93.0623 14.5337 92.8936 14.6524Z" fill="#222222"/>
<path d="M99.5203 18.6819C98.8581 18.6819 98.2771 18.5445 97.7773 18.2696C97.2837 17.9947 96.8995 17.6011 96.6247 17.0889C96.356 16.5766 96.2217 15.9769 96.2217 15.2896C96.2217 14.6087 96.356 14.0121 96.6247 13.4998C96.8995 12.9875 97.2837 12.5939 97.7773 12.3191C98.2771 12.0442 98.8581 11.9067 99.5203 11.9067C100.314 11.9067 101.01 12.116 101.61 12.5346C101.716 12.6096 101.791 12.6908 101.835 12.7782C101.885 12.8657 101.91 12.9781 101.91 13.1156C101.91 13.3093 101.854 13.4748 101.741 13.6122C101.635 13.7434 101.504 13.809 101.348 13.809C101.254 13.809 101.17 13.7965 101.095 13.7716C101.02 13.7403 100.932 13.6935 100.832 13.631C100.614 13.4998 100.407 13.4061 100.214 13.3499C100.02 13.2936 99.8201 13.2655 99.614 13.2655C99.058 13.2655 98.6425 13.4342 98.3677 13.7716C98.099 14.1027 97.9647 14.6087 97.9647 15.2896C97.9647 15.9769 98.099 16.4891 98.3677 16.8265C98.6425 17.1576 99.058 17.3231 99.614 17.3231C99.8014 17.3231 99.9826 17.295 100.158 17.2388C100.332 17.1763 100.557 17.0826 100.832 16.9577C100.963 16.889 101.06 16.8421 101.123 16.8171C101.185 16.7921 101.26 16.7796 101.348 16.7796C101.504 16.7796 101.635 16.8483 101.741 16.9858C101.854 17.117 101.91 17.2794 101.91 17.4731C101.91 17.6043 101.885 17.7167 101.835 17.8104C101.791 17.8979 101.716 17.9791 101.61 18.0541C101.01 18.4726 100.314 18.6819 99.5203 18.6819Z" fill="#222222"/>
<path d="M103.557 18.3914C103.694 18.5289 103.891 18.5976 104.147 18.5976H107.389C107.658 18.5976 107.861 18.5414 107.999 18.4289C108.136 18.3165 108.205 18.154 108.205 17.9416C108.205 17.4918 107.933 17.2669 107.389 17.2669H105.028V15.8988H107.202C107.471 15.8988 107.674 15.8425 107.811 15.7301C107.949 15.6176 108.017 15.4552 108.017 15.2428C108.017 14.7992 107.745 14.5775 107.202 14.5775H105.028V13.3217H107.389C107.933 13.3217 108.205 13.0968 108.205 12.647C108.205 12.4346 108.136 12.2722 107.999 12.1597C107.861 12.0473 107.658 11.9911 107.389 11.9911H104.147C103.891 11.9911 103.694 12.0598 103.557 12.1972C103.419 12.3347 103.351 12.5315 103.351 12.7876V17.8011C103.351 18.0572 103.419 18.254 103.557 18.3914Z" fill="#222222"/>
<path fill-rule="evenodd" clip-rule="evenodd" d="M42.022 27.4958C41.6098 27.4958 41.2514 27.4035 40.9466 27.2189C40.6418 27.03 40.4078 26.7617 40.2447 26.414C40.0816 26.062 40 25.6498 40 25.1776C40 24.7011 40.0816 24.289 40.2447 23.9413C40.4078 23.5892 40.6396 23.3209 40.9401 23.1363C41.2449 22.9474 41.6055 22.853 42.022 22.853C42.4384 22.853 42.799 22.9474 43.1038 23.1363C43.4086 23.3209 43.6425 23.5871 43.8057 23.9348C43.9688 24.2825 44.0504 24.6947 44.0504 25.1712C44.0504 25.6477 43.9688 26.062 43.8057 26.414C43.6425 26.7617 43.4086 27.03 43.1038 27.2189C42.799 27.4035 42.4384 27.4958 42.022 27.4958ZM42.022 27.1416C42.5328 27.1416 42.9299 26.9699 43.2132 26.6265C43.4966 26.283 43.6382 25.7979 43.6382 25.1712C43.6382 24.5444 43.4966 24.0615 43.2132 23.7223C42.9342 23.3789 42.5371 23.2072 42.022 23.2072C41.5111 23.2072 41.114 23.3789 40.8307 23.7223C40.5516 24.0658 40.4121 24.5487 40.4121 25.1712C40.4121 25.7936 40.5516 26.2787 40.8307 26.6265C41.114 26.9699 41.5111 27.1416 42.022 27.1416Z" fill="#222222"/>
<path d="M51.2034 22.8723C51.2678 22.8723 51.3172 22.8916 51.3515 22.9303C51.3902 22.9689 51.4095 23.0183 51.4095 23.0784V27.2704C51.4095 27.3305 51.3923 27.3799 51.358 27.4185C51.3236 27.4571 51.2764 27.4765 51.2163 27.4765C51.1562 27.4765 51.1111 27.4593 51.0811 27.4249C51.051 27.3863 51.036 27.3348 51.036 27.2704V23.6966L49.5099 26.6458C49.4584 26.7445 49.3875 26.7939 49.2974 26.7939C49.2072 26.7939 49.1364 26.7445 49.0849 26.6458L47.5459 23.7223V27.2704C47.5459 27.3348 47.5308 27.3863 47.5008 27.4249C47.4707 27.4593 47.4257 27.4765 47.3656 27.4765C47.3012 27.4765 47.2518 27.4593 47.2175 27.4249C47.1874 27.3863 47.1724 27.3348 47.1724 27.2704V23.0784C47.1724 23.0183 47.1896 22.9689 47.2239 22.9303C47.2625 22.8916 47.3141 22.8723 47.3784 22.8723C47.4557 22.8723 47.5201 22.9217 47.5716 23.0204L49.3038 26.3431L51.0102 23.0204C51.0618 22.9217 51.1262 22.8723 51.2034 22.8723Z" fill="#222222"/>
<path d="M58.2149 22.9303C58.1848 22.8916 58.1398 22.8723 58.0797 22.8723C58.0238 22.8723 57.9788 22.8916 57.9444 22.9303C57.9101 22.9689 57.8929 23.0183 57.8929 23.0784V26.7681L55.0789 22.9689C55.036 22.9045 54.9802 22.8723 54.9115 22.8723C54.8471 22.8723 54.7956 22.8916 54.7569 22.9303C54.7226 22.9689 54.7054 23.0183 54.7054 23.0784V27.2704C54.7054 27.3348 54.7205 27.3863 54.7505 27.4249C54.7806 27.4593 54.8278 27.4765 54.8922 27.4765C54.948 27.4765 54.9931 27.4571 55.0274 27.4185C55.0617 27.3799 55.0789 27.3305 55.0789 27.2704V23.5742L57.8994 27.3799C57.9509 27.4443 58.0088 27.4765 58.0732 27.4765C58.1333 27.4765 58.1805 27.4571 58.2149 27.4185C58.2492 27.3799 58.2664 27.3305 58.2664 27.2704V23.0784C58.2664 23.014 58.2492 22.9646 58.2149 22.9303Z" fill="#222222"/>
<path d="M61.7652 27.4765C61.7051 27.4765 61.6558 27.4571 61.6171 27.4185C61.5828 27.3799 61.5656 27.3305 61.5656 27.2704V23.0784C61.5656 23.0183 61.5828 22.9689 61.6171 22.9303C61.6558 22.8916 61.7051 22.8723 61.7652 22.8723C61.8253 22.8723 61.8726 22.8916 61.9069 22.9303C61.9455 22.9689 61.9648 23.0183 61.9648 23.0784V27.2704C61.9648 27.3305 61.9455 27.3799 61.9069 27.4185C61.8726 27.4571 61.8253 27.4765 61.7652 27.4765Z" fill="#222222"/>
<path d="M66.0483 27.2189C66.3617 27.4035 66.7287 27.4958 67.1494 27.4958C67.4371 27.4958 67.7097 27.4486 67.9672 27.3541C68.2291 27.2554 68.4502 27.1159 68.6305 26.9356C68.6906 26.8798 68.7206 26.8175 68.7206 26.7488C68.7206 26.7016 68.7056 26.6608 68.6756 26.6265C68.6498 26.5921 68.6198 26.575 68.5854 26.575C68.5511 26.575 68.5017 26.5964 68.4373 26.6393C68.2055 26.8282 67.9951 26.9592 67.8063 27.0321C67.6174 27.1051 67.3963 27.1416 67.143 27.1416C66.6236 27.1416 66.22 26.9699 65.9324 26.6265C65.6491 26.283 65.5074 25.7979 65.5074 25.1712C65.5074 24.5487 65.6491 24.0658 65.9324 23.7223C66.22 23.3789 66.6236 23.2072 67.143 23.2072C67.3963 23.2072 67.6174 23.2437 67.8063 23.3166C67.9951 23.3896 68.2055 23.5206 68.4373 23.7094C68.4931 23.7524 68.5425 23.7738 68.5854 23.7738C68.6198 23.7738 68.6498 23.7567 68.6756 23.7223C68.7056 23.688 68.7206 23.6472 68.7206 23.6C68.7206 23.5313 68.6906 23.469 68.6305 23.4132C68.4502 23.2329 68.2291 23.0956 67.9672 23.0011C67.7097 22.9024 67.4371 22.853 67.1494 22.853C66.7287 22.853 66.3617 22.9474 66.0483 23.1363C65.7392 23.3209 65.501 23.5871 65.3335 23.9348C65.1704 24.2825 65.0888 24.6947 65.0888 25.1712C65.0888 25.6477 65.1704 26.062 65.3335 26.414C65.501 26.7617 65.7392 27.03 66.0483 27.2189Z" fill="#222222"/>
<path d="M75.2293 22.8723C75.2937 22.8723 75.343 22.8916 75.3774 22.9303C75.4117 22.9646 75.4289 23.014 75.4289 23.0784V27.2704C75.4289 27.3348 75.4117 27.3863 75.3774 27.4249C75.343 27.4593 75.2937 27.4765 75.2293 27.4765C75.1692 27.4765 75.122 27.4571 75.0876 27.4185C75.0533 27.3799 75.0361 27.3305 75.0361 27.2704V25.3128H72.1384V27.2704C72.1384 27.3305 72.1212 27.3799 72.0869 27.4185C72.0525 27.4571 72.0053 27.4765 71.9452 27.4765C71.8851 27.4765 71.8357 27.4571 71.7971 27.4185C71.7628 27.3799 71.7456 27.3305 71.7456 27.2704V23.0784C71.7456 23.0183 71.7628 22.9689 71.7971 22.9303C71.8357 22.8916 71.8851 22.8723 71.9452 22.8723C72.0053 22.8723 72.0525 22.8916 72.0869 22.9303C72.1212 22.9689 72.1384 23.0183 72.1384 23.0784V24.9651H75.0361V23.0784C75.0361 23.0183 75.0533 22.9689 75.0876 22.9303C75.122 22.8916 75.1692 22.8723 75.2293 22.8723Z" fill="#222222"/>
<path fill-rule="evenodd" clip-rule="evenodd" d="M82.5116 27.4314C82.5502 27.397 82.5695 27.3563 82.5695 27.309C82.5695 27.2833 82.5631 27.2575 82.5502 27.2318L80.6764 23.0075C80.6592 22.9646 80.6291 22.9303 80.5862 22.9045C80.5476 22.8788 80.5047 22.8659 80.4574 22.8659C80.3544 22.8659 80.2836 22.9131 80.2449 23.0075L78.3646 27.2318C78.3561 27.2489 78.3518 27.2726 78.3518 27.3026C78.3518 27.3541 78.3689 27.397 78.4033 27.4314C78.4419 27.4614 78.487 27.4765 78.5385 27.4765C78.6201 27.4765 78.6802 27.4357 78.7188 27.3541L79.2146 26.2337H81.7131L82.2025 27.3541C82.2197 27.3928 82.2433 27.4228 82.2733 27.4443C82.3077 27.4657 82.342 27.4765 82.3764 27.4765C82.4279 27.4765 82.4729 27.4614 82.5116 27.4314ZM80.4639 23.3939L81.5586 25.8859H79.3627L80.4639 23.3939Z" fill="#222222"/>
<path d="M88.859 22.8723C88.9191 22.8723 88.9642 22.8916 88.9943 22.9303C89.0286 22.9646 89.0458 23.014 89.0458 23.0784V27.2704C89.0458 27.3305 89.0286 27.3799 88.9943 27.4185C88.9599 27.4571 88.9127 27.4765 88.8526 27.4765C88.7882 27.4765 88.7302 27.4443 88.6787 27.3799L85.8583 23.5742V27.2704C85.8583 27.3305 85.8411 27.3799 85.8068 27.4185C85.7724 27.4571 85.7274 27.4765 85.6715 27.4765C85.6072 27.4765 85.5599 27.4593 85.5299 27.4249C85.4998 27.3863 85.4848 27.3348 85.4848 27.2704V23.0784C85.4848 23.0183 85.502 22.9689 85.5363 22.9303C85.575 22.8916 85.6265 22.8723 85.6909 22.8723C85.7596 22.8723 85.8154 22.9045 85.8583 22.9689L88.6723 26.7681V23.0784C88.6723 23.0183 88.6895 22.9689 88.7238 22.9303C88.7581 22.8916 88.8032 22.8723 88.859 22.8723Z" fill="#222222"/>
<path d="M95.8544 22.9303C95.8244 22.8916 95.7793 22.8723 95.7192 22.8723C95.6634 22.8723 95.6183 22.8916 95.584 22.9303C95.5496 22.9689 95.5325 23.0183 95.5325 23.0784V26.7681L92.7185 22.9689C92.6755 22.9045 92.6197 22.8723 92.551 22.8723C92.4867 22.8723 92.4351 22.8916 92.3965 22.9303C92.3622 22.9689 92.345 23.0183 92.345 23.0784V27.2704C92.345 27.3348 92.36 27.3863 92.3901 27.4249C92.4201 27.4593 92.4673 27.4765 92.5317 27.4765C92.5875 27.4765 92.6326 27.4571 92.667 27.4185C92.7013 27.3799 92.7185 27.3305 92.7185 27.2704V23.5742L95.5389 27.3799C95.5904 27.4443 95.6484 27.4765 95.7128 27.4765C95.7729 27.4765 95.8201 27.4571 95.8544 27.4185C95.8888 27.3799 95.9059 27.3305 95.9059 27.2704V23.0784C95.9059 23.014 95.8888 22.9646 95.8544 22.9303Z" fill="#222222"/>
<path d="M99.4177 27.4443C99.3576 27.4443 99.306 27.4249 99.2631 27.3863C99.2245 27.3477 99.2052 27.3005 99.2052 27.2446V23.1041C99.2052 23.0483 99.2245 23.0011 99.2631 22.9625C99.306 22.9238 99.3576 22.9045 99.4177 22.9045H101.865C101.92 22.9045 101.963 22.9195 101.993 22.9496C102.028 22.9796 102.045 23.0226 102.045 23.0784C102.045 23.1299 102.028 23.1707 101.993 23.2007C101.963 23.2308 101.92 23.2458 101.865 23.2458H99.598V24.9651H101.736C101.792 24.9651 101.835 24.9801 101.865 25.0102C101.899 25.0402 101.916 25.0832 101.916 25.139C101.916 25.1948 101.899 25.2377 101.865 25.2678C101.835 25.2978 101.792 25.3128 101.736 25.3128H99.598V27.103H101.865C101.92 27.103 101.963 27.118 101.993 27.1481C102.028 27.1738 102.045 27.2146 102.045 27.2704C102.045 27.3262 102.028 27.3691 101.993 27.3992C101.963 27.4292 101.92 27.4443 101.865 27.4443H99.4177Z" fill="#222222"/>
<path d="M105.117 27.3928C105.16 27.4271 105.209 27.4443 105.265 27.4443H107.661C107.717 27.4443 107.759 27.4292 107.789 27.3992C107.824 27.3691 107.841 27.3262 107.841 27.2704C107.841 27.2146 107.824 27.1717 107.789 27.1416C107.759 27.1116 107.717 27.0965 107.661 27.0965H105.458V23.0784C105.458 23.014 105.441 22.9646 105.407 22.9303C105.373 22.8916 105.323 22.8723 105.259 22.8723C105.199 22.8723 105.149 22.8916 105.111 22.9303C105.076 22.9689 105.059 23.0183 105.059 23.0784V27.264C105.059 27.3155 105.079 27.3584 105.117 27.3928Z" fill="#222222"/>
</svg>
