<svg width="72" height="34" viewBox="0 0 72 34" fill="none" xmlns="http://www.w3.org/2000/svg">
<path d="M0 0H7.36667V34H0V0Z" fill="#EF7800"/>
<path d="M21.3329 28.0615C21.3329 27.2244 21.0184 26.5842 20.3893 26.1411C19.7603 25.688 18.628 25.2153 16.9924 24.7229C15.3568 24.2206 14.062 23.7282 13.1079 23.2456C10.5078 21.9259 9.2077 20.1483 9.2077 17.9126C9.2077 16.7505 9.55369 15.7164 10.2457 14.8104C10.9481 13.8945 11.9494 13.1804 13.2494 12.6683C14.56 12.1562 16.0278 11.9001 17.6529 11.9001C19.2885 11.9001 20.7458 12.1808 22.0249 12.7422C23.304 13.2937 24.2948 14.0767 24.9973 15.0911C25.7102 16.1054 26.0667 17.2577 26.0667 18.5479H21.3487C21.3487 17.563 21.0184 16.7998 20.3579 16.2581C19.6974 15.7066 18.7695 15.4308 17.5743 15.4308C16.421 15.4308 15.5246 15.6623 14.885 16.1251C14.2455 16.5782 13.9257 17.1789 13.9257 17.9274C13.9257 18.6267 14.2979 19.2126 15.0423 19.6854C15.7972 20.1581 16.9033 20.6013 18.3606 21.0149C21.0446 21.7733 23 22.7138 24.2267 23.8365C25.4533 24.9592 26.0667 26.3577 26.0667 28.032C26.0667 29.8933 25.317 31.3558 23.8178 32.4195C22.3185 33.4733 20.3002 34.0001 17.763 34.0001C16.0016 34.0001 14.3975 33.6998 12.9506 33.099C11.5038 32.4884 10.3977 31.6562 9.63232 30.6024C8.87744 29.5486 8.5 28.3274 8.5 26.9388H13.2337C13.2337 29.3123 14.7435 30.499 17.763 30.499C18.8848 30.499 19.7603 30.2873 20.3893 29.8638C21.0184 29.4305 21.3329 28.8297 21.3329 28.0615Z" fill="#EF7800"/>
<path fill-rule="evenodd" clip-rule="evenodd" d="M49.3008 10.2H53.8341V20.7653L64.4635 10.2H70.8939L61.224 19.8115L71.2674 34H65.7136L57.964 23.052L53.8341 27.1571V34H49.3008V10.2Z" fill="#1E2022"/>
<path fill-rule="evenodd" clip-rule="evenodd" d="M19.834 0H11.334V10.2H19.834V5.66667H27.7673V5.67026H30.2878C33.0413 5.67026 35.1336 6.56475 36.5648 8.35372C37.9959 10.1271 38.7115 12.7406 38.7115 16.1941V17.9908C38.6804 21.3199 37.9415 23.8789 36.4948 25.6679C35.048 27.4568 32.9557 28.3513 30.2178 28.3513H27.7673V33.9749H30.3578C33.3291 33.9594 35.997 33.2749 38.3615 31.9215C40.7261 30.5681 42.5539 28.6624 43.8451 26.2046C45.1518 23.7467 45.8052 20.9388 45.8052 17.7808V16.2174C45.8052 13.0595 45.144 10.2438 43.8218 7.77036C42.4995 5.28136 40.6561 3.36793 38.2915 2.03009C35.9425 0.676697 33.2746 0 30.2878 0H19.834Z" fill="#1E2022"/>
</svg>
