<svg width="28" height="22" viewBox="0 0 28 22" fill="none" xmlns="http://www.w3.org/2000/svg">
<path fill-rule="evenodd" clip-rule="evenodd" d="M27.0725 1.99741C27.6234 1.95735 28.0374 1.47834 27.9974 0.927508C27.9573 0.376678 27.4783 -0.0373821 26.9275 0.00267834C26.4842 0.0349178 26.0293 0.0651552 25.565 0.0960146C21.3397 0.376883 16.3393 0.709275 12.2498 3.07164C8.04394 5.50123 4.94445 9.95792 4.17164 18.0727L2.31932 15.4265C2.0026 14.9741 1.37907 14.864 0.926623 15.1807C0.474174 15.4974 0.364139 16.121 0.680854 16.5734L4.16968 21.5575C4.34429 21.8171 4.63777 21.9911 4.97437 21.9997C5.22886 22.0062 5.46357 21.9171 5.64406 21.765C5.67976 21.735 5.71334 21.7024 5.74453 21.6677C5.74686 21.6651 5.74918 21.6625 5.75149 21.6598L9.74749 17.1643C10.1144 16.7515 10.0772 16.1195 9.66445 15.7526C9.25167 15.3856 8.61959 15.4228 8.25268 15.8356L6.17007 18.1785C6.90792 10.5918 9.76087 6.81914 13.2502 4.80345C16.91 2.68928 21.4251 2.38286 25.7249 2.09104L25.725 2.09103C26.177 2.06036 26.6266 2.02984 27.0725 1.99741Z" fill="#00C48C"/>
</svg>
